<?xml version="1.0" encoding="utf-8"?>
<!-- Generator: Adobe Illustrator 19.0.0, SVG Export Plug-In . SVG Version: 6.00 Build 0)  -->
<svg version="1.2" baseProfile="tiny" id="Layer_1" xmlns="http://www.w3.org/2000/svg" xmlns:xlink="http://www.w3.org/1999/xlink"
	 x="0px" y="0px" viewBox="0 0 211 36" xml:space="preserve">
<g id="XMLID_40_">
	<path id="XMLID_26_" fill="none" stroke="#999999" stroke-miterlimit="10" d="M8.9,9.1c1.6,0,2.9,0.2,4,0.5
		c1.1,0.4,1.9,0.9,2.5,1.5c0.6,0.7,1.1,1.5,1.3,2.4c0.3,1,0.4,2,0.4,3.2V28c-0.8,0.2-1.8,0.4-3.2,0.6c-1.4,0.2-3,0.3-5,0.3
		c-1.2,0-2.3-0.1-3.3-0.3c-1-0.2-1.9-0.6-2.6-1.1c-0.7-0.5-1.3-1.1-1.7-1.9s-0.6-1.8-0.6-2.9c0-1.1,0.2-2,0.7-2.8
		c0.4-0.8,1-1.4,1.8-1.8c0.7-0.5,1.6-0.8,2.6-1s2-0.3,3-0.3c0.7,0,1.3,0,1.9,0.1s1,0.1,1.3,0.2v-0.5c0-0.9-0.3-1.6-0.8-2.2
		c-0.6-0.6-1.5-0.8-2.9-0.8c-0.9,0-1.8,0.1-2.7,0.2c-0.9,0.1-1.7,0.3-2.3,0.6L2.6,10c0.3-0.1,0.7-0.2,1.2-0.3c0.5-0.1,1-0.2,1.5-0.3
		S6.4,9.3,7,9.2C7.6,9.2,8.3,9.1,8.9,9.1z M9.3,24.8c0.5,0,1,0,1.5,0c0.5,0,0.9-0.1,1.2-0.1v-4.1c-0.2,0-0.5-0.1-1-0.1
		c-0.4,0-0.8-0.1-1.2-0.1c-0.5,0-1,0-1.4,0.1c-0.4,0.1-0.8,0.2-1.2,0.3c-0.3,0.2-0.6,0.4-0.8,0.7c-0.2,0.3-0.3,0.6-0.3,1.1
		c0,0.8,0.3,1.4,0.8,1.7C7.6,24.7,8.3,24.8,9.3,24.8z"/>
	<path id="XMLID_23_" fill="none" stroke="#999999" stroke-miterlimit="10" d="M38.7,28c-0.5,0.1-1,0.3-1.7,0.4
		c-0.6,0.1-1.3,0.2-2,0.3c-0.7,0.1-1.4,0.2-2.1,0.2c-0.7,0.1-1.4,0.1-2,0.1c-1.6,0-3-0.2-4.2-0.7c-1.2-0.5-2.3-1.1-3.1-2
		s-1.5-1.9-1.9-3.1c-0.4-1.2-0.7-2.6-0.7-4.1c0-1.5,0.2-2.9,0.6-4.2c0.4-1.2,0.9-2.3,1.7-3.2c0.7-0.9,1.6-1.5,2.6-2
		c1-0.5,2.2-0.7,3.6-0.7c0.7,0,1.4,0.1,2,0.2c0.6,0.1,1.2,0.3,1.8,0.6V1.5l5.4-0.9V28z M26.6,19c0,1.7,0.4,3,1.1,4
		c0.7,1,1.8,1.5,3.3,1.5c0.5,0,0.9,0,1.3-0.1s0.7-0.1,1-0.1v-9.8C33,14.3,32.5,14.1,32,14c-0.5-0.1-1.1-0.2-1.6-0.2
		C27.8,13.8,26.6,15.5,26.6,19z"/>
	<path id="XMLID_21_" fill="none" stroke="#999999" stroke-miterlimit="10" d="M51.5,19.1c0-1.4,0.2-2.7,0.7-3.9
		c0.4-1.2,1.1-2.3,1.9-3.2c0.8-0.9,1.9-1.6,3.1-2.1c1.2-0.5,2.6-0.8,4.1-0.8c1,0,1.9,0.1,2.8,0.3c0.8,0.2,1.7,0.4,2.4,0.8l-1.1,4.3
		c-0.5-0.2-1.1-0.4-1.7-0.5c-0.6-0.1-1.3-0.2-2-0.2c-1.6,0-2.8,0.5-3.5,1.5c-0.8,1-1.2,2.3-1.2,3.9c0,1.7,0.4,3,1.1,4
		c0.7,0.9,2,1.4,3.8,1.4c0.6,0,1.3-0.1,2.1-0.2c0.7-0.1,1.4-0.3,2.1-0.6l0.8,4.4c-0.6,0.3-1.4,0.5-2.3,0.7c-0.9,0.2-2,0.3-3.1,0.3
		c-1.7,0-3.2-0.3-4.5-0.8c-1.2-0.5-2.3-1.2-3.1-2.1c-0.8-0.9-1.4-1.9-1.8-3.2C51.6,21.8,51.5,20.5,51.5,19.1z"/>
	<path id="XMLID_18_" fill="none" stroke="#999999" stroke-miterlimit="10" d="M76.3,9.1c1.6,0,2.9,0.2,4,0.5
		c1.1,0.4,1.9,0.9,2.5,1.5c0.6,0.7,1.1,1.5,1.3,2.4c0.3,1,0.4,2,0.4,3.2V28c-0.8,0.2-1.8,0.4-3.2,0.6c-1.4,0.2-3,0.3-5,0.3
		c-1.2,0-2.3-0.1-3.3-0.3c-1-0.2-1.9-0.6-2.6-1.1c-0.7-0.5-1.3-1.1-1.7-1.9s-0.6-1.8-0.6-2.9c0-1.1,0.2-2,0.7-2.8
		c0.4-0.8,1-1.4,1.8-1.8c0.7-0.5,1.6-0.8,2.6-1s2-0.3,3-0.3c0.7,0,1.3,0,1.9,0.1s1,0.1,1.3,0.2v-0.5c0-0.9-0.3-1.6-0.8-2.2
		c-0.6-0.6-1.5-0.8-2.9-0.8c-0.9,0-1.8,0.1-2.7,0.2c-0.9,0.1-1.7,0.3-2.3,0.6L70,10c0.3-0.1,0.7-0.2,1.2-0.3c0.5-0.1,1-0.2,1.5-0.3
		c0.6-0.1,1.1-0.2,1.7-0.2C75,9.2,75.6,9.1,76.3,9.1z M76.7,24.8c0.5,0,1,0,1.5,0c0.5,0,0.9-0.1,1.2-0.1v-4.1c-0.2,0-0.5-0.1-1-0.1
		c-0.4,0-0.8-0.1-1.2-0.1c-0.5,0-1,0-1.4,0.1c-0.4,0.1-0.8,0.2-1.2,0.3c-0.3,0.2-0.6,0.4-0.8,0.7c-0.2,0.3-0.3,0.6-0.3,1.1
		c0,0.8,0.3,1.4,0.8,1.7C74.9,24.7,75.7,24.8,76.7,24.8z"/>
	<path id="XMLID_16_" fill="none" stroke="#999999" stroke-miterlimit="10" d="M99.8,18.5c0-1.7-0.2-3-0.7-3.7s-1.2-1.1-2.3-1.1
		c-0.3,0-0.7,0-1,0.1c-0.4,0-0.7,0.1-1,0.1v14.6h-5.4V10.3c0.5-0.1,1-0.2,1.6-0.4s1.3-0.3,1.9-0.4c0.7-0.1,1.4-0.2,2.1-0.3
		c0.7-0.1,1.4-0.1,2.1-0.1c1.4,0,2.5,0.2,3.3,0.5c0.9,0.3,1.6,0.8,2.1,1.2c0.8-0.6,1.6-1,2.6-1.3c1-0.3,1.9-0.5,2.8-0.5
		c1.5,0,2.8,0.2,3.7,0.6c1,0.4,1.7,1,2.3,1.8c0.6,0.8,1,1.7,1.2,2.7s0.3,2.2,0.3,3.5v10.7h-5.4v-10c0-1.7-0.2-3-0.7-3.7
		c-0.4-0.7-1.2-1.1-2.3-1.1c-0.3,0-0.7,0.1-1.2,0.2c-0.5,0.1-0.9,0.3-1.3,0.5c0.2,0.6,0.3,1.1,0.3,1.7s0.1,1.3,0.1,2v10.3h-5.4V18.5
		z"/>
	<path id="XMLID_13_" fill="none" stroke="#999999" stroke-miterlimit="10" d="M138,19.1c0,1.5-0.2,2.8-0.5,4s-0.9,2.2-1.6,3.1
		s-1.6,1.5-2.6,2c-1,0.5-2.2,0.7-3.6,0.7c-0.7,0-1.4-0.1-2.1-0.2c-0.6-0.1-1.3-0.3-1.9-0.6v7.1h-5.4V10.3c0.5-0.1,1-0.3,1.7-0.4
		c0.6-0.1,1.3-0.2,2-0.3c0.7-0.1,1.4-0.2,2.1-0.2c0.7-0.1,1.4-0.1,2-0.1c1.6,0,3,0.2,4.2,0.7c1.2,0.5,2.3,1.1,3.1,2
		c0.8,0.9,1.5,1.9,1.9,3.1C137.8,16.2,138,17.6,138,19.1z M132.5,19.3c0-1.7-0.4-3-1.1-4c-0.7-1-1.8-1.5-3.3-1.5
		c-0.5,0-0.9,0-1.3,0.1s-0.7,0.1-1,0.1v9.7c0.3,0.2,0.8,0.4,1.3,0.5c0.5,0.1,1.1,0.2,1.6,0.2C131.3,24.4,132.5,22.7,132.5,19.3z"/>
	<path id="XMLID_10_" fill="none" stroke="#999999" stroke-miterlimit="10" d="M149,9.1c1.6,0,2.9,0.2,4,0.5
		c1.1,0.4,1.9,0.9,2.5,1.5c0.6,0.7,1.1,1.5,1.3,2.4c0.3,1,0.4,2,0.4,3.2V28c-0.8,0.2-1.8,0.4-3.2,0.6c-1.4,0.2-3,0.3-5,0.3
		c-1.2,0-2.3-0.1-3.3-0.3c-1-0.2-1.9-0.6-2.6-1.1c-0.7-0.5-1.3-1.1-1.7-1.9s-0.6-1.8-0.6-2.9c0-1.1,0.2-2,0.7-2.8
		c0.4-0.8,1-1.4,1.8-1.8c0.7-0.5,1.6-0.8,2.6-1s2-0.3,3-0.3c0.7,0,1.3,0,1.9,0.1s1,0.1,1.3,0.2v-0.5c0-0.9-0.3-1.6-0.8-2.2
		c-0.6-0.6-1.5-0.8-2.9-0.8c-0.9,0-1.8,0.1-2.7,0.2c-0.9,0.1-1.7,0.3-2.3,0.6l-0.7-4.3c0.3-0.1,0.7-0.2,1.2-0.3
		c0.5-0.1,1-0.2,1.5-0.3s1.1-0.2,1.7-0.2C147.7,9.2,148.3,9.1,149,9.1z M149.4,24.8c0.5,0,1,0,1.5,0c0.5,0,0.9-0.1,1.2-0.1v-4.1
		c-0.2,0-0.5-0.1-1-0.1c-0.4,0-0.8-0.1-1.2-0.1c-0.5,0-1,0-1.4,0.1c-0.4,0.1-0.8,0.2-1.2,0.3c-0.3,0.2-0.6,0.4-0.8,0.7
		c-0.2,0.3-0.3,0.6-0.3,1.1c0,0.8,0.3,1.4,0.8,1.7C147.6,24.7,148.4,24.8,149.4,24.8z"/>
	<path id="XMLID_7_" fill="none" stroke="#999999" stroke-miterlimit="10" d="M167.9,4.2c0,1-0.3,1.8-1,2.3
		c-0.6,0.6-1.4,0.8-2.3,0.8c-0.9,0-1.6-0.3-2.3-0.8c-0.6-0.6-1-1.3-1-2.3c0-1,0.3-1.8,1-2.3c0.6-0.6,1.4-0.8,2.3-0.8
		c0.9,0,1.6,0.3,2.3,0.8C167.6,2.4,167.9,3.2,167.9,4.2z M167.4,28.6h-5.4V9.6h5.4V28.6z"/>
	<path id="XMLID_4_" fill="none" stroke="#999999" stroke-miterlimit="10" d="M188.8,26.2c0,3.1-0.8,5.4-2.4,6.9
		c-1.6,1.5-4,2.3-7.3,2.3c-1.2,0-2.3-0.1-3.5-0.3c-1.2-0.2-2.2-0.5-3.2-0.8l0.9-4.5c0.8,0.3,1.7,0.6,2.6,0.8c0.9,0.2,2,0.3,3.2,0.3
		c1.5,0,2.6-0.3,3.3-1s1-1.5,1-2.6v-0.7c-0.6,0.3-1.2,0.5-1.8,0.6c-0.6,0.1-1.3,0.2-2,0.2c-2.6,0-4.6-0.8-6-2.3
		c-1.4-1.5-2.1-3.7-2.1-6.5c0-1.4,0.2-2.7,0.6-3.8c0.4-1.1,1.1-2.1,1.9-2.9c0.8-0.8,1.8-1.4,3-1.9c1.2-0.4,2.6-0.7,4.1-0.7
		c0.6,0,1.3,0,2,0.1c0.7,0.1,1.4,0.1,2,0.2s1.3,0.2,1.9,0.3c0.6,0.1,1.2,0.3,1.6,0.4V26.2z M177,18.5c0,3,1.2,4.5,3.6,4.5
		c0.6,0,1.1-0.1,1.5-0.2c0.5-0.1,0.9-0.3,1.2-0.5v-8.6c-0.3,0-0.6-0.1-0.9-0.1c-0.4,0-0.8-0.1-1.3-0.1c-1.4,0-2.5,0.5-3.2,1.4
		C177.4,15.9,177,17.1,177,18.5z"/>
	<path id="XMLID_2_" fill="none" stroke="#999999" stroke-miterlimit="10" d="M193.8,10.3c0.9-0.3,2.1-0.5,3.5-0.7
		c1.4-0.2,3-0.3,4.5-0.3c1.6,0,2.9,0.2,4,0.6c1.1,0.4,1.9,1,2.5,1.8c0.6,0.8,1.1,1.7,1.3,2.7s0.4,2.2,0.4,3.5v10.7h-5.4v-10
		c0-1.7-0.2-3-0.7-3.7c-0.5-0.7-1.3-1.1-2.6-1.1c-0.4,0-0.8,0-1.2,0.1c-0.4,0-0.8,0.1-1.2,0.1v14.6h-5.4V10.3z"/>
</g>
</svg>
