<?xml version="1.0" encoding="utf-8"?>
<!-- Generator: Adobe Illustrator 19.0.0, SVG Export Plug-In . SVG Version: 6.00 Build 0)  -->
<svg version="1.1" baseProfile="basic" id="Layer_1"
	 xmlns="http://www.w3.org/2000/svg" xmlns:xlink="http://www.w3.org/1999/xlink" 
   x="0px" y="0px" viewBox="0 0 212 30" width="212" height="30"
	 xml:space="preserve" >
<g id="XMLID_40_" opacity="0.85">
	<g id="XMLID_416_">
		<linearGradient id="XMLID_2_" gradientUnits="userSpaceOnUse" x1="-20.6613" y1="14.3371" x2="225.3387" y2="54.8371">
			<stop  offset="0" style="stop-color:#FF0042"/>
			<stop  offset="0.1069" style="stop-color:#F2004E"/>
			<stop  offset="0.3031" style="stop-color:#D1006D"/>
			<stop  offset="0.5666" style="stop-color:#9B00A0"/>
			<stop  offset="0.884" style="stop-color:#5100E5"/>
			<stop  offset="0.9944" style="stop-color:#3600FF"/>
			<stop  offset="1" style="stop-color:#3600FF"/>
		</linearGradient>
		<path id="XMLID_417_" fill="url(#XMLID_2_)" d="M16.4,28.8L16,28.9c-0.7,0.3-1.5,0.5-2.4,0.7c-1,0.2-2,0.3-3.2,0.3
			c-1.8,0-3.3-0.3-4.7-0.8c-1.3-0.5-2.4-1.3-3.3-2.2c-0.9-0.9-1.5-2.1-1.9-3.3C0.2,22.3,0,20.9,0,19.4c0-1.4,0.2-2.8,0.7-4
			c0.5-1.3,1.1-2.4,2-3.3c0.9-0.9,2-1.7,3.2-2.3C7.3,9.3,8.7,9,10.3,9c1,0,2,0.1,2.9,0.3c0.9,0.2,1.7,0.4,2.5,0.8l0.4,0.2l-1.4,5.2
			l-0.5-0.2c-0.5-0.2-1-0.3-1.6-0.5c-0.6-0.1-1.2-0.2-1.9-0.2c-1.4,0-2.5,0.4-3.2,1.3c-0.7,0.9-1.1,2.1-1.1,3.6c0,1.6,0.3,2.8,1,3.6
			c0.9,1.1,2.8,1.5,5.4,1c0.7-0.1,1.3-0.3,1.9-0.5l0.6-0.3L16.4,28.8z"/>
	</g>
	<g id="XMLID_396_">
		<linearGradient id="XMLID_3_" gradientUnits="userSpaceOnUse" x1="-20.2232" y1="11.6761" x2="225.7768" y2="52.1761">
			<stop  offset="0" style="stop-color:#FF0042"/>
			<stop  offset="0.1069" style="stop-color:#F2004E"/>
			<stop  offset="0.3031" style="stop-color:#D1006D"/>
			<stop  offset="0.5666" style="stop-color:#9B00A0"/>
			<stop  offset="0.884" style="stop-color:#5100E5"/>
			<stop  offset="0.9944" style="stop-color:#3600FF"/>
			<stop  offset="1" style="stop-color:#3600FF"/>
		</linearGradient>
		<path id="XMLID_401_" fill="url(#XMLID_3_)" d="M30.2,15.2c-0.8-1.1-1.8-1.6-3.2-1.6s-2.5,0.5-3.3,1.6c-0.7,1-1.1,2.4-1.1,4.2
			c0,1.8,0.4,3.2,1.1,4.2c0.8,1.1,1.9,1.7,3.3,1.7s2.5-0.6,3.2-1.7c0.7-1,1.1-2.5,1.1-4.2S30.9,16.2,30.2,15.2z M29.4,23.1
			c-0.6,0.8-1.3,1.2-2.4,1.2s-1.8-0.4-2.4-1.3c-0.6-0.9-0.9-2.1-0.9-3.7c0-1.5,0.3-2.8,0.9-3.6c0.6-0.8,1.4-1.2,2.4-1.2
			s1.8,0.4,2.4,1.2c0.6,0.9,0.9,2.1,0.9,3.6C30.3,20.9,30,22.2,29.4,23.1z M30.2,15.2c-0.8-1.1-1.8-1.6-3.2-1.6s-2.5,0.5-3.3,1.6
			c-0.7,1-1.1,2.4-1.1,4.2c0,1.8,0.4,3.2,1.1,4.2c0.8,1.1,1.9,1.7,3.3,1.7s2.5-0.6,3.2-1.7c0.7-1,1.1-2.5,1.1-4.2
			S30.9,16.2,30.2,15.2z M29.4,23.1c-0.6,0.8-1.3,1.2-2.4,1.2s-1.8-0.4-2.4-1.3c-0.6-0.9-0.9-2.1-0.9-3.7c0-1.5,0.3-2.8,0.9-3.6
			c0.6-0.8,1.4-1.2,2.4-1.2s1.8,0.4,2.4,1.2c0.6,0.9,0.9,2.1,0.9,3.6C30.3,20.9,30,22.2,29.4,23.1z M30.2,15.2
			c-0.8-1.1-1.8-1.6-3.2-1.6s-2.5,0.5-3.3,1.6c-0.7,1-1.1,2.4-1.1,4.2c0,1.8,0.4,3.2,1.1,4.2c0.8,1.1,1.9,1.7,3.3,1.7
			s2.5-0.6,3.2-1.7c0.7-1,1.1-2.5,1.1-4.2S30.9,16.2,30.2,15.2z M29.4,23.1c-0.6,0.8-1.3,1.2-2.4,1.2s-1.8-0.4-2.4-1.3
			c-0.6-0.9-0.9-2.1-0.9-3.7c0-1.5,0.3-2.8,0.9-3.6c0.6-0.8,1.4-1.2,2.4-1.2s1.8,0.4,2.4,1.2c0.6,0.9,0.9,2.1,0.9,3.6
			C30.3,20.9,30,22.2,29.4,23.1z"/>
		<linearGradient id="XMLID_4_" gradientUnits="userSpaceOnUse" x1="-20.2233" y1="11.6767" x2="225.7767" y2="52.1767">
			<stop  offset="0" style="stop-color:#FF0042"/>
			<stop  offset="0.1069" style="stop-color:#F2004E"/>
			<stop  offset="0.3031" style="stop-color:#D1006D"/>
			<stop  offset="0.5666" style="stop-color:#9B00A0"/>
			<stop  offset="0.884" style="stop-color:#5100E5"/>
			<stop  offset="0.9944" style="stop-color:#3600FF"/>
			<stop  offset="1" style="stop-color:#3600FF"/>
		</linearGradient>
		<path id="XMLID_398_" fill="url(#XMLID_4_)" d="M36,15.2c-0.5-1.3-1.2-2.4-2-3.3c-0.9-0.9-1.9-1.6-3.1-2.1c-2.4-1-5.5-1-7.9,0
			c-1.2,0.5-2.3,1.2-3.1,2.1c-0.9,0.9-1.6,2-2.1,3.3c-0.5,1.3-0.7,2.7-0.7,4.2c0,1.6,0.2,3,0.7,4.3c0.5,1.3,1.2,2.4,2,3.3
			s1.9,1.6,3.1,2.1c1.2,0.5,2.5,0.8,4,0.8c1.5,0,2.8-0.3,4-0.8c1.2-0.5,2.2-1.2,3.1-2.1c0.9-0.9,1.5-2.1,2-3.3
			c0.5-1.3,0.7-2.7,0.7-4.3C36.8,17.9,36.5,16.4,36,15.2z M27,25.3c-1.4,0-2.5-0.6-3.3-1.7c-0.7-1-1.1-2.5-1.1-4.2
			c0-1.8,0.4-3.2,1.1-4.2c0.8-1.1,1.9-1.6,3.3-1.6s2.5,0.5,3.2,1.6c0.7,1,1.1,2.4,1.1,4.2s-0.4,3.2-1.1,4.2
			C29.4,24.7,28.3,25.3,27,25.3z"/>
	</g>
	<g id="XMLID_393_">
		<linearGradient id="XMLID_5_" gradientUnits="userSpaceOnUse" x1="-19.5798" y1="7.768" x2="226.4202" y2="48.268">
			<stop  offset="0" style="stop-color:#FF0042"/>
			<stop  offset="0.1069" style="stop-color:#F2004E"/>
			<stop  offset="0.3031" style="stop-color:#D1006D"/>
			<stop  offset="0.5666" style="stop-color:#9B00A0"/>
			<stop  offset="0.884" style="stop-color:#5100E5"/>
			<stop  offset="0.9944" style="stop-color:#3600FF"/>
			<stop  offset="1" style="stop-color:#3600FF"/>
		</linearGradient>
		<path id="XMLID_394_" fill="url(#XMLID_5_)" d="M67.1,18.2v11.2h-6.4V18.9c0-1.6-0.2-2.8-0.6-3.4c-0.3-0.6-1-0.9-1.9-0.9
			c-0.2,0-0.5,0-1.1,0.2c-0.3,0.1-0.6,0.2-0.8,0.3c0.1,0.5,0.2,1,0.2,1.5c0,0.6,0.1,1.3,0.1,2v10.8h-6.4V18.9c0-1.6-0.2-2.8-0.6-3.4
			c-0.3-0.6-1-0.9-1.9-0.9c-0.3,0-0.7,0-1,0.1c-0.2,0-0.4,0.1-0.6,0.1v14.7h-6.4V10.2l0.4-0.1c0.5-0.1,1-0.3,1.6-0.4
			c0.6-0.1,1.3-0.3,2-0.4c0.7-0.1,1.4-0.2,2.1-0.3C46.7,9.1,47.5,9,48.2,9c1.4,0,2.6,0.2,3.5,0.6c0.8,0.3,1.4,0.7,1.9,1.1
			c0.7-0.5,1.6-0.9,2.5-1.1c1-0.3,2-0.5,2.9-0.5c1.6,0,2.9,0.2,3.9,0.7c1.1,0.5,1.9,1.1,2.5,1.9c0.6,0.8,1.1,1.8,1.3,2.9
			C66.9,15.7,67.1,16.9,67.1,18.2z"/>
	</g>
	<g id="XMLID_385_">
		<linearGradient id="XMLID_6_" gradientUnits="userSpaceOnUse" x1="-18.7609" y1="2.7941" x2="227.2391" y2="43.2941">
			<stop  offset="0" style="stop-color:#FF0042"/>
			<stop  offset="0.1069" style="stop-color:#F2004E"/>
			<stop  offset="0.3031" style="stop-color:#D1006D"/>
			<stop  offset="0.5666" style="stop-color:#9B00A0"/>
			<stop  offset="0.884" style="stop-color:#5100E5"/>
			<stop  offset="0.9944" style="stop-color:#3600FF"/>
			<stop  offset="1" style="stop-color:#3600FF"/>
		</linearGradient>
		<path id="XMLID_392_" fill="url(#XMLID_6_)" d="M98.1,18.2v11.2h-6.4V18.9c0-1.6-0.2-2.8-0.6-3.4c-0.3-0.6-1-0.9-1.9-0.9
			c-0.2,0-0.5,0-1.1,0.2c-0.3,0.1-0.6,0.2-0.8,0.3c0.1,0.5,0.2,1,0.2,1.5c0,0.6,0.1,1.3,0.1,2v10.8h-6.4V18.9c0-1.6-0.2-2.8-0.6-3.4
			c-0.4-0.6-1-0.9-1.9-0.9c-0.3,0-0.6,0-1,0.1c-0.2,0-0.4,0.1-0.6,0.1v14.7h-6.4V10.2l0.4-0.1c0.5-0.1,1-0.3,1.6-0.4
			c0.6-0.1,1.3-0.3,2-0.4c0.7-0.1,1.4-0.2,2.1-0.3C77.8,9.1,78.5,9,79.2,9c1.4,0,2.6,0.2,3.5,0.6c0.8,0.3,1.4,0.7,1.9,1.1
			c0.7-0.5,1.6-0.9,2.5-1.1c1-0.3,2-0.5,2.9-0.5c1.6,0,2.9,0.2,3.9,0.7c1.1,0.5,1.9,1.1,2.5,1.9c0.6,0.8,1.1,1.8,1.3,2.9
			C98,15.7,98.1,16.9,98.1,18.2z"/>
	</g>
	<g id="XMLID_379_">
		<linearGradient id="XMLID_7_" gradientUnits="userSpaceOnUse" x1="-18.0061" y1="-1.7906" x2="227.9939" y2="38.7094">
			<stop  offset="0" style="stop-color:#FF0042"/>
			<stop  offset="0.1069" style="stop-color:#F2004E"/>
			<stop  offset="0.3031" style="stop-color:#D1006D"/>
			<stop  offset="0.5666" style="stop-color:#9B00A0"/>
			<stop  offset="0.884" style="stop-color:#5100E5"/>
			<stop  offset="0.9944" style="stop-color:#3600FF"/>
			<stop  offset="1" style="stop-color:#3600FF"/>
		</linearGradient>
		<path id="XMLID_381_" fill="url(#XMLID_7_)" d="M117.4,11.6c-1.7-1.7-3.9-2.6-6.7-2.6c-1.2,0-2.4,0.2-3.5,0.7
			c-1.2,0.5-2.2,1.1-3.1,2c-0.9,0.9-1.6,2-2.2,3.3c-0.5,1.3-0.8,2.9-0.8,4.6c0,1.4,0.2,2.8,0.6,4c0.4,1.3,1.1,2.4,1.9,3.3
			c0.9,0.9,2,1.7,3.3,2.2c1.3,0.5,2.9,0.8,4.6,0.8c0.7,0,1.4,0,2.1-0.1c0.7-0.1,1.3-0.2,1.9-0.3s1.2-0.3,1.7-0.4
			c0.5-0.2,0.9-0.3,1.2-0.5l0.3-0.2l-0.9-5.4l-0.6,0.3c-0.6,0.3-1.3,0.5-2.2,0.6c-0.9,0.2-1.9,0.3-2.8,0.3c-1.4,0-2.6-0.3-3.4-0.9
			c-0.6-0.4-1-1-1.2-1.7h12l0-0.4c0-0.3,0-0.6,0.1-1c0-0.4,0-0.7,0-1.1C119.8,15.9,119,13.3,117.4,11.6z M108.4,15.3
			c0.2-0.3,0.6-0.5,0.9-0.7c0.8-0.3,2-0.3,2.7,0c0.4,0.2,0.7,0.4,0.9,0.7c0.2,0.3,0.4,0.6,0.5,1c0.1,0.2,0.1,0.4,0.2,0.7h-5.9
			c0.1-0.2,0.1-0.5,0.2-0.7C108,16,108.2,15.6,108.4,15.3z"/>
	</g>
	<g id="XMLID_376_">
		<linearGradient id="XMLID_8_" gradientUnits="userSpaceOnUse" x1="-17.5332" y1="-4.6634" x2="228.4668" y2="35.8366">
			<stop  offset="0" style="stop-color:#FF0042"/>
			<stop  offset="0.1069" style="stop-color:#F2004E"/>
			<stop  offset="0.3031" style="stop-color:#D1006D"/>
			<stop  offset="0.5666" style="stop-color:#9B00A0"/>
			<stop  offset="0.884" style="stop-color:#5100E5"/>
			<stop  offset="0.9944" style="stop-color:#3600FF"/>
			<stop  offset="1" style="stop-color:#3600FF"/>
		</linearGradient>
		<path id="XMLID_377_" fill="url(#XMLID_8_)" d="M136.4,10l-1.1,5.3l-0.5-0.1c-0.5-0.1-1-0.2-1.7-0.4c-0.6-0.1-1.3-0.2-2-0.2
			c-0.3,0-0.7,0-1.1,0.1c-0.3,0-0.5,0.1-0.6,0.1v14.6H123V10.6l0.3-0.1c1-0.3,2.1-0.7,3.5-1c1.3-0.3,2.8-0.5,4.5-0.5
			c0.3,0,0.7,0,1.1,0c0.4,0,0.8,0.1,1.3,0.2c0.4,0.1,0.8,0.1,1.3,0.2c0.4,0.1,0.8,0.2,1.1,0.3L136.4,10z"/>
	</g>
	<g id="XMLID_371_">
		<linearGradient id="XMLID_9_" gradientUnits="userSpaceOnUse" x1="-17.0493" y1="-7.6025" x2="228.9507" y2="32.8975">
			<stop  offset="0" style="stop-color:#FF0042"/>
			<stop  offset="0.1069" style="stop-color:#F2004E"/>
			<stop  offset="0.3031" style="stop-color:#D1006D"/>
			<stop  offset="0.5666" style="stop-color:#9B00A0"/>
			<stop  offset="0.884" style="stop-color:#5100E5"/>
			<stop  offset="0.9944" style="stop-color:#3600FF"/>
			<stop  offset="1" style="stop-color:#3600FF"/>
		</linearGradient>
		<path id="XMLID_372_" fill="url(#XMLID_9_)" d="M153.3,28.8l-0.4,0.1c-0.6,0.3-1.5,0.5-2.4,0.7c-1,0.2-2,0.3-3.2,0.3
			c-1.8,0-3.4-0.3-4.7-0.8c-1.3-0.5-2.4-1.3-3.3-2.2c-0.8-0.9-1.5-2.1-1.9-3.3c-0.4-1.3-0.6-2.6-0.6-4.1c0-1.4,0.2-2.8,0.7-4
			c0.5-1.3,1.1-2.4,2-3.3c0.9-0.9,2-1.7,3.2-2.3c1.3-0.6,2.7-0.8,4.3-0.8c1,0,2,0.1,2.9,0.3c0.9,0.2,1.7,0.4,2.5,0.8l0.4,0.2
			l-1.4,5.2l-0.5-0.2c-0.5-0.2-1-0.3-1.6-0.5c-0.6-0.1-1.2-0.2-1.9-0.2c-1.4,0-2.5,0.4-3.2,1.3c-0.7,0.9-1.1,2.1-1.1,3.6
			c0,1.6,0.3,2.8,1,3.6c0.9,1.1,2.8,1.5,5.5,1c0.7-0.1,1.4-0.3,1.9-0.5l0.6-0.3L153.3,28.8z"/>
	</g>
	<g id="XMLID_344_">
		<linearGradient id="XMLID_10_" gradientUnits="userSpaceOnUse" x1="-14.3442" y1="-24.0335" x2="231.6558" y2="16.4665">
			<stop  offset="0" style="stop-color:#FF0042"/>
			<stop  offset="0.1069" style="stop-color:#F2004E"/>
			<stop  offset="0.3031" style="stop-color:#D1006D"/>
			<stop  offset="0.5666" style="stop-color:#9B00A0"/>
			<stop  offset="0.884" style="stop-color:#5100E5"/>
			<stop  offset="0.9944" style="stop-color:#3600FF"/>
			<stop  offset="1" style="stop-color:#3600FF"/>
		</linearGradient>
		<path id="XMLID_348_" fill="url(#XMLID_10_)" d="M162.7,4.5c0,1.1-0.4,2-1.1,2.7c-0.7,0.6-1.6,1-2.6,1s-1.9-0.3-2.6-1
			c-0.7-0.7-1.1-1.6-1.1-2.7s0.4-2,1.1-2.7c0.7-0.6,1.6-1,2.6-1c1,0,1.9,0.3,2.6,1C162.3,2.5,162.7,3.4,162.7,4.5z"/>
		<linearGradient id="XMLID_11_" gradientUnits="userSpaceOnUse" x1="-16.7384" y1="-9.4909" x2="229.2616" y2="31.0091">
			<stop  offset="0" style="stop-color:#FF0042"/>
			<stop  offset="0.1069" style="stop-color:#F2004E"/>
			<stop  offset="0.3031" style="stop-color:#D1006D"/>
			<stop  offset="0.5666" style="stop-color:#9B00A0"/>
			<stop  offset="0.884" style="stop-color:#5100E5"/>
			<stop  offset="0.9944" style="stop-color:#3600FF"/>
			<stop  offset="1" style="stop-color:#3600FF"/>
		</linearGradient>
		<rect id="XMLID_347_" x="155.8" y="9.5" fill="url(#XMLID_11_)" width="6.4" height="19.9"/>
	</g>
	<g id="XMLID_149_">
		<linearGradient id="XMLID_12_" gradientUnits="userSpaceOnUse" x1="-16.3468" y1="-11.8695" x2="229.6532" y2="28.6305">
			<stop  offset="0" style="stop-color:#FF0042"/>
			<stop  offset="0.1069" style="stop-color:#F2004E"/>
			<stop  offset="0.3031" style="stop-color:#D1006D"/>
			<stop  offset="0.5666" style="stop-color:#9B00A0"/>
			<stop  offset="0.884" style="stop-color:#5100E5"/>
			<stop  offset="0.9944" style="stop-color:#3600FF"/>
			<stop  offset="1" style="stop-color:#3600FF"/>
		</linearGradient>
		<path id="XMLID_157_" fill="url(#XMLID_12_)" d="M181.8,13.9c-0.3-1-0.8-1.9-1.5-2.7c-0.7-0.7-1.6-1.3-2.7-1.7
			c-1.1-0.4-2.5-0.6-4.1-0.6c-0.6,0-1.3,0-1.9,0.1c-0.6,0.1-1.2,0.1-1.8,0.2c-0.6,0.1-1.1,0.2-1.6,0.3c-0.5,0.1-0.9,0.2-1.2,0.3
			l-0.4,0.1l0.9,5.4l0.6-0.2c0.6-0.2,1.4-0.4,2.2-0.5c0.9-0.1,1.7-0.2,2.6-0.2c1.2,0,2.1,0.2,2.5,0.7c0.4,0.4,0.7,1,0.7,1.7
			c-0.2,0-0.5-0.1-0.8-0.1c-0.6-0.1-1.2-0.1-1.9-0.1c-1.1,0-2.1,0.1-3.1,0.3c-1,0.2-1.9,0.6-2.7,1.1c-0.8,0.5-1.5,1.2-2,2
			c-0.5,0.8-0.7,1.9-0.7,3.1c0,1.2,0.2,2.3,0.6,3.1c0.4,0.9,1,1.6,1.8,2.1c0.8,0.5,1.7,0.9,2.8,1.1c1,0.2,2.2,0.3,3.4,0.3
			c2,0,3.7-0.1,5-0.4c1.4-0.2,2.5-0.4,3.2-0.6l0.4-0.1V17.2C182.3,16,182.1,14.9,181.8,13.9z M176.1,24.6c-0.2,0-0.4,0-0.7,0
			c-0.5,0-1,0-1.5,0c-0.9,0-1.6-0.1-2.1-0.4c-0.4-0.2-0.6-0.7-0.6-1.3c0-0.3,0.1-0.6,0.2-0.8c0.1-0.2,0.3-0.4,0.6-0.5
			c0.3-0.2,0.6-0.2,1-0.3c0.4-0.1,0.9-0.1,1.3-0.1c0.3,0,0.7,0,1.1,0.1c0.2,0,0.4,0,0.5,0.1V24.6z"/>
	</g>
	<g id="XMLID_146_">
		<linearGradient id="XMLID_13_" gradientUnits="userSpaceOnUse" x1="-15.1507" y1="-19.1347" x2="230.8493" y2="21.3653">
			<stop  offset="0" style="stop-color:#FF0042"/>
			<stop  offset="0.1069" style="stop-color:#F2004E"/>
			<stop  offset="0.3031" style="stop-color:#D1006D"/>
			<stop  offset="0.5666" style="stop-color:#9B00A0"/>
			<stop  offset="0.884" style="stop-color:#5100E5"/>
			<stop  offset="0.9944" style="stop-color:#3600FF"/>
			<stop  offset="1" style="stop-color:#3600FF"/>
		</linearGradient>
		<path id="XMLID_148_" fill="url(#XMLID_13_)" d="M195.5,24.4l-0.9,5.4l-0.4,0c-1.6,0-2.9-0.2-3.9-0.5c-1.1-0.3-1.9-0.8-2.5-1.4
			c-0.6-0.6-1.1-1.4-1.3-2.3c-0.2-0.8-0.3-1.8-0.3-2.8V1.4l6.4-1v21.2c0,0.4,0,0.8,0.1,1.2c0.1,0.3,0.2,0.6,0.3,0.8
			c0.2,0.2,0.4,0.4,0.7,0.5c0.3,0.1,0.8,0.2,1.4,0.3L195.5,24.4z"/>
	</g>
	<g id="XMLID_144_">
		<linearGradient id="XMLID_14_" gradientUnits="userSpaceOnUse" x1="-15.5523" y1="-16.6953" x2="230.4477" y2="23.8047">
			<stop  offset="0" style="stop-color:#FF0042"/>
			<stop  offset="0.1069" style="stop-color:#F2004E"/>
			<stop  offset="0.3031" style="stop-color:#D1006D"/>
			<stop  offset="0.5666" style="stop-color:#9B00A0"/>
			<stop  offset="0.884" style="stop-color:#5100E5"/>
			<stop  offset="0.9944" style="stop-color:#3600FF"/>
			<stop  offset="1" style="stop-color:#3600FF"/>
		</linearGradient>
		<path id="XMLID_145_" fill="url(#XMLID_14_)" d="M212,23.7c0,2-0.8,3.6-2.3,4.7c-1.5,1-3.6,1.5-6.2,1.5c-1.7,0-3.2-0.1-4.3-0.4
			c-1.2-0.3-1.9-0.6-2.4-0.8l-0.4-0.2l1.1-5.3l0.6,0.2c0.9,0.4,1.8,0.6,2.7,0.8c0.9,0.2,1.9,0.3,2.7,0.3c1.1,0,1.6-0.1,1.9-0.2
			c0.2-0.1,0.3-0.2,0.3-0.7c0-0.1,0-0.4-0.5-0.7c-0.5-0.3-1.3-0.7-2.3-1.1c-0.8-0.3-1.6-0.7-2.3-1c-0.7-0.4-1.4-0.8-1.9-1.3
			c-0.5-0.5-0.9-1.1-1.2-1.8c-0.3-0.7-0.4-1.6-0.4-2.5c0-1.9,0.7-3.5,2.2-4.6c1.4-1.1,3.3-1.7,5.7-1.7c1.2,0,2.3,0.1,3.4,0.3
			c1.1,0.2,1.9,0.4,2.6,0.7l0.4,0.2l-1.2,5.1l-0.5-0.2c-0.6-0.2-1.3-0.4-2-0.6c-0.7-0.2-1.5-0.2-2.3-0.2c-2,0-2,0.7-2,0.9
			c0,0.1,0,0.3,0.1,0.4c0,0.1,0.1,0.1,0.3,0.3c0.2,0.1,0.5,0.3,0.8,0.5s0.8,0.4,1.4,0.6c1.2,0.4,2.2,0.9,3,1.3
			c0.8,0.4,1.5,0.9,1.9,1.5c0.5,0.6,0.9,1.2,1.1,1.8C211.9,22.1,212,22.9,212,23.7z"/>
	</g>
</g>
</svg>
