<?xml version="1.0" encoding="utf-8"?>
<!-- Generator: Adobe Illustrator 19.0.0, SVG Export Plug-In . SVG Version: 6.00 Build 0)  -->
<svg version="1.1" baseProfile="basic" id="Layer_1"
	 xmlns="http://www.w3.org/2000/svg" xmlns:xlink="http://www.w3.org/1999/xlink" 
   x="0px" y="0px" viewBox="0 0 261 36" width="261" height="36"
	 xml:space="preserve">
<g id="XMLID_40_" opacity="0.85">
	<g id="XMLID_415_">
		<linearGradient id="XMLID_2_" gradientUnits="userSpaceOnUse" x1="-15.2308" y1="15.2097" x2="270.2692" y2="59.7097">
			<stop  offset="0" style="stop-color:#FF0042"/>
			<stop  offset="0.1069" style="stop-color:#F2004E"/>
			<stop  offset="0.3031" style="stop-color:#D1006D"/>
			<stop  offset="0.5666" style="stop-color:#9B00A0"/>
			<stop  offset="0.884" style="stop-color:#5100E5"/>
			<stop  offset="0.9944" style="stop-color:#3600FF"/>
			<stop  offset="1" style="stop-color:#3600FF"/>
		</linearGradient>
		<path id="XMLID_416_" fill="url(#XMLID_2_)" d="M16.5,28.5l-0.4,0.2c-0.7,0.3-1.5,0.5-2.4,0.7c-1,0.2-2,0.3-3.2,0.3
			c-1.8,0-3.3-0.3-4.7-0.8c-1.3-0.5-2.4-1.3-3.3-2.2c-0.9-0.9-1.5-2.1-1.9-3.3c-0.4-1.3-0.6-2.6-0.6-4.1c0-1.4,0.2-2.8,0.7-4
			c0.5-1.3,1.1-2.4,2-3.3c0.9-0.9,2-1.7,3.2-2.3s2.7-0.8,4.3-0.8c1,0,2,0.1,2.9,0.3c0.9,0.2,1.7,0.4,2.5,0.8l0.4,0.2l-1.4,5.2
			L14.3,15c-0.5-0.2-1-0.4-1.6-0.5c-0.6-0.1-1.2-0.2-1.9-0.2c-1.4,0-2.5,0.4-3.2,1.3c-0.7,0.9-1.1,2.1-1.1,3.6c0,1.6,0.3,2.8,1,3.6
			c0.9,1.1,2.8,1.5,5.4,1c0.7-0.1,1.3-0.3,1.9-0.5l0.6-0.3L16.5,28.5z"/>
	</g>
	<g id="XMLID_406_">
		<linearGradient id="XMLID_3_" gradientUnits="userSpaceOnUse" x1="-14.8367" y1="12.6811" x2="270.6633" y2="57.1811">
			<stop  offset="0" style="stop-color:#FF0042"/>
			<stop  offset="0.1069" style="stop-color:#F2004E"/>
			<stop  offset="0.3031" style="stop-color:#D1006D"/>
			<stop  offset="0.5666" style="stop-color:#9B00A0"/>
			<stop  offset="0.884" style="stop-color:#5100E5"/>
			<stop  offset="0.9944" style="stop-color:#3600FF"/>
			<stop  offset="1" style="stop-color:#3600FF"/>
		</linearGradient>
		<path id="XMLID_407_" fill="url(#XMLID_3_)" d="M36.2,14.9c-0.5-1.3-1.2-2.4-2-3.3c-0.9-0.9-1.9-1.6-3.1-2.1c-2.4-1-5.5-1-7.9,0
			C22,10,20.9,10.7,20,11.6c-0.9,0.9-1.6,2-2.1,3.3c-0.5,1.3-0.7,2.7-0.7,4.3s0.2,3,0.7,4.3c0.5,1.3,1.2,2.4,2,3.3
			c0.9,0.9,1.9,1.6,3.1,2.2c1.2,0.5,2.5,0.8,4,0.8c1.5,0,2.8-0.3,4-0.8c1.2-0.5,2.2-1.2,3.1-2.2c0.9-0.9,1.5-2.1,2-3.3
			c0.5-1.3,0.7-2.7,0.7-4.3S36.6,16.2,36.2,14.9z M29.5,22.8c-0.6,0.8-1.3,1.2-2.4,1.2s-1.8-0.4-2.4-1.2c-0.6-0.9-0.9-2.1-0.9-3.7
			c0-1.5,0.3-2.8,0.9-3.6c0.6-0.8,1.4-1.2,2.4-1.2s1.8,0.4,2.4,1.2c0.6,0.9,0.9,2.1,0.9,3.6C30.4,20.7,30.1,22,29.5,22.8z"/>
	</g>
	<g id="XMLID_404_">
		<linearGradient id="XMLID_4_" gradientUnits="userSpaceOnUse" x1="-14.3894" y1="9.8114" x2="271.1106" y2="54.3114">
			<stop  offset="0" style="stop-color:#FF0042"/>
			<stop  offset="0.1069" style="stop-color:#F2004E"/>
			<stop  offset="0.3031" style="stop-color:#D1006D"/>
			<stop  offset="0.5666" style="stop-color:#9B00A0"/>
			<stop  offset="0.884" style="stop-color:#5100E5"/>
			<stop  offset="0.9944" style="stop-color:#3600FF"/>
			<stop  offset="1" style="stop-color:#3600FF"/>
		</linearGradient>
		<path id="XMLID_405_" fill="url(#XMLID_4_)" d="M53.4,9.8l-1.1,5.3L51.8,15c-0.5-0.1-1-0.3-1.7-0.4c-0.6-0.1-1.3-0.2-2-0.2
			c-0.3,0-0.7,0-1.1,0.1c-0.2,0-0.4,0.1-0.6,0.1v14.6H40V10.4l0.3-0.1c1-0.4,2.1-0.7,3.5-1c1.3-0.3,2.9-0.5,4.5-0.5
			c0.3,0,0.7,0,1.1,0.1c0.4,0,0.8,0.1,1.3,0.1c0.4,0.1,0.8,0.1,1.3,0.2c0.4,0.1,0.8,0.2,1.1,0.3L53.4,9.8z"/>
	</g>
	<g id="XMLID_400_">
		<linearGradient id="XMLID_5_" gradientUnits="userSpaceOnUse" x1="-14.5331" y1="10.7331" x2="270.9669" y2="55.2331">
			<stop  offset="0" style="stop-color:#FF0042"/>
			<stop  offset="0.1069" style="stop-color:#F2004E"/>
			<stop  offset="0.3031" style="stop-color:#D1006D"/>
			<stop  offset="0.5666" style="stop-color:#9B00A0"/>
			<stop  offset="0.884" style="stop-color:#5100E5"/>
			<stop  offset="0.9944" style="stop-color:#3600FF"/>
			<stop  offset="1" style="stop-color:#3600FF"/>
		</linearGradient>
		<path id="XMLID_401_" fill="url(#XMLID_5_)" d="M73.1,14.9c-0.5-1.3-1.2-2.4-2-3.3c-0.9-0.9-2-1.6-3.3-2.1
			c-1.8-0.7-3.9-0.8-6.4-0.6C60.7,9,59.9,9,59.3,9.1c-0.7,0.1-1.4,0.2-2,0.3c-0.6,0.1-1.2,0.3-1.7,0.4L55.2,10v25.8h6.4v-6.9
			c0.4,0.1,0.8,0.3,1.3,0.4c0.7,0.2,1.4,0.2,2.2,0.2c1.4,0,2.7-0.3,3.8-0.8c1.1-0.5,2-1.2,2.8-2.2c0.7-0.9,1.3-2,1.7-3.3
			c0.4-1.2,0.6-2.6,0.6-4.1C73.8,17.7,73.6,16.2,73.1,14.9z M66.3,15.7c0.7,0.9,1,2.1,1,3.7c0,4.2-1.9,4.6-3.3,4.6
			c-0.5,0-1-0.1-1.5-0.2c-0.4-0.1-0.7-0.2-0.9-0.4v-9c0.2,0,0.4,0,0.6-0.1c0.4,0,0.8,0,1.3,0C64.7,14.4,65.7,14.8,66.3,15.7z"/>
	</g>
	<g id="XMLID_394_">
		<linearGradient id="XMLID_6_" gradientUnits="userSpaceOnUse" x1="-13.4424" y1="3.7358" x2="272.0576" y2="48.2358">
			<stop  offset="0" style="stop-color:#FF0042"/>
			<stop  offset="0.1069" style="stop-color:#F2004E"/>
			<stop  offset="0.3031" style="stop-color:#D1006D"/>
			<stop  offset="0.5666" style="stop-color:#9B00A0"/>
			<stop  offset="0.884" style="stop-color:#5100E5"/>
			<stop  offset="0.9944" style="stop-color:#3600FF"/>
			<stop  offset="1" style="stop-color:#3600FF"/>
		</linearGradient>
		<path id="XMLID_396_" fill="url(#XMLID_6_)" d="M94.9,14.9c-0.5-1.3-1.2-2.4-2-3.3c-0.9-0.9-1.9-1.6-3.1-2.1c-2.4-1-5.5-1-7.9,0
			c-1.2,0.5-2.3,1.2-3.1,2.1c-0.9,0.9-1.6,2-2.1,3.3c-0.5,1.3-0.7,2.7-0.7,4.3s0.2,3,0.7,4.3c0.5,1.3,1.2,2.4,2,3.3
			c0.9,0.9,1.9,1.6,3.1,2.2c1.2,0.5,2.5,0.8,4,0.8c1.5,0,2.8-0.3,4-0.8c1.2-0.5,2.2-1.2,3.1-2.2c0.9-0.9,1.5-2.1,2-3.3
			c0.4-1.3,0.7-2.7,0.7-4.3S95.4,16.2,94.9,14.9z M88.3,22.8c-0.6,0.8-1.4,1.2-2.4,1.2c-1.1,0-1.9-0.4-2.4-1.2
			c-0.6-0.9-0.9-2.1-0.9-3.7c0-1.5,0.3-2.8,0.9-3.6c0.6-0.8,1.4-1.2,2.4-1.2c1.1,0,1.8,0.4,2.4,1.2c0.6,0.9,0.9,2.1,0.9,3.6
			C89.2,20.7,88.9,22,88.3,22.8z"/>
	</g>
	<g id="XMLID_392_">
		<linearGradient id="XMLID_7_" gradientUnits="userSpaceOnUse" x1="-12.9951" y1="0.866" x2="272.5049" y2="45.366">
			<stop  offset="0" style="stop-color:#FF0042"/>
			<stop  offset="0.1069" style="stop-color:#F2004E"/>
			<stop  offset="0.3031" style="stop-color:#D1006D"/>
			<stop  offset="0.5666" style="stop-color:#9B00A0"/>
			<stop  offset="0.884" style="stop-color:#5100E5"/>
			<stop  offset="0.9944" style="stop-color:#3600FF"/>
			<stop  offset="1" style="stop-color:#3600FF"/>
		</linearGradient>
		<path id="XMLID_393_" fill="url(#XMLID_7_)" d="M112.2,9.8l-1.1,5.3l-0.5-0.1c-0.5-0.1-1-0.3-1.7-0.4c-0.6-0.1-1.3-0.2-2-0.2
			c-0.3,0-0.7,0-1.2,0.1c-0.2,0-0.4,0.1-0.6,0.1v14.6h-6.4V10.4l0.3-0.1c1-0.4,2.1-0.7,3.5-1c1.3-0.3,2.8-0.5,4.5-0.5
			c0.3,0,0.7,0,1.1,0.1c0.4,0,0.8,0.1,1.3,0.1c0.4,0.1,0.8,0.1,1.3,0.2c0.4,0.1,0.8,0.2,1.1,0.3L112.2,9.8z"/>
	</g>
	<g id="XMLID_381_">
		<linearGradient id="XMLID_8_" gradientUnits="userSpaceOnUse" x1="-12.6023" y1="-1.654" x2="272.8977" y2="42.846">
			<stop  offset="0" style="stop-color:#FF0042"/>
			<stop  offset="0.1069" style="stop-color:#F2004E"/>
			<stop  offset="0.3031" style="stop-color:#D1006D"/>
			<stop  offset="0.5666" style="stop-color:#9B00A0"/>
			<stop  offset="0.884" style="stop-color:#5100E5"/>
			<stop  offset="0.9944" style="stop-color:#3600FF"/>
			<stop  offset="1" style="stop-color:#3600FF"/>
		</linearGradient>
		<path id="XMLID_383_" fill="url(#XMLID_8_)" d="M129.3,13.6c-0.3-1-0.8-1.9-1.5-2.7c-0.7-0.7-1.6-1.3-2.7-1.7
			c-1.1-0.4-2.5-0.6-4.1-0.6c-0.6,0-1.3,0-1.9,0.1c-0.6,0.1-1.2,0.1-1.8,0.2c-0.6,0.1-1.1,0.2-1.6,0.3c-0.5,0.1-0.9,0.2-1.2,0.3
			l-0.4,0.1l0.8,5.4l0.6-0.2c0.6-0.2,1.4-0.4,2.2-0.5c0.9-0.1,1.8-0.2,2.6-0.2c1.2,0,2.1,0.2,2.5,0.7c0.4,0.4,0.6,1,0.7,1.7
			c-0.2,0-0.5-0.1-0.8-0.1c-0.6-0.1-1.2-0.1-1.9-0.1c-1.1,0-2.1,0.1-3.1,0.3c-1,0.2-1.9,0.6-2.7,1.1c-0.8,0.5-1.5,1.2-1.9,2
			c-0.5,0.9-0.7,1.9-0.7,3.1c0,1.2,0.2,2.3,0.6,3.1c0.4,0.9,1,1.6,1.8,2.1c0.8,0.5,1.7,0.9,2.8,1.1c1,0.2,2.2,0.3,3.4,0.3
			c2,0,3.7-0.1,5.1-0.4c1.4-0.2,2.4-0.4,3.2-0.6l0.4-0.1V17C129.7,15.8,129.5,14.6,129.3,13.6z M123.5,24.4c-0.2,0-0.4,0-0.7,0.1
			c-0.5,0-1,0-1.5,0c-0.9,0-1.6-0.1-2.1-0.4c-0.4-0.2-0.6-0.7-0.6-1.3c0-0.3,0.1-0.6,0.2-0.8c0.1-0.2,0.3-0.4,0.6-0.5
			c0.3-0.1,0.6-0.2,1-0.3c0.4-0.1,0.9-0.1,1.4-0.1c0.3,0,0.7,0,1.1,0.1c0.2,0,0.4,0.1,0.5,0.1V24.4z"/>
	</g>
	<g id="XMLID_377_">
		<linearGradient id="XMLID_9_" gradientUnits="userSpaceOnUse" x1="-11.7597" y1="-7.0601" x2="273.7403" y2="37.4399">
			<stop  offset="0" style="stop-color:#FF0042"/>
			<stop  offset="0.1069" style="stop-color:#F2004E"/>
			<stop  offset="0.3031" style="stop-color:#D1006D"/>
			<stop  offset="0.5666" style="stop-color:#9B00A0"/>
			<stop  offset="0.884" style="stop-color:#5100E5"/>
			<stop  offset="0.9944" style="stop-color:#3600FF"/>
			<stop  offset="1" style="stop-color:#3600FF"/>
		</linearGradient>
		<path id="XMLID_379_" fill="url(#XMLID_9_)" d="M147,28.4l-0.4,0.2c-0.7,0.3-1.4,0.5-2.2,0.7c-0.8,0.2-1.9,0.3-3,0.3
			c-1.5,0-2.8-0.2-3.8-0.6c-1-0.4-1.9-1-2.5-1.8c-0.6-0.8-1.1-1.7-1.3-2.8c-0.2-1-0.3-2.2-0.3-3.4V4.6l6.4-1v5.7h6.4v5.5h-6.4v6.2
			c0,1,0.2,1.9,0.5,2.4c0.3,0.5,1,0.8,2,0.8c0.5,0,1.1-0.1,1.7-0.1c0.6-0.1,1.1-0.3,1.6-0.4l0.6-0.2L147,28.4z"/>
	</g>
	<g id="XMLID_348_">
		<linearGradient id="XMLID_10_" gradientUnits="userSpaceOnUse" x1="-11.7357" y1="-7.2142" x2="273.7643" y2="37.2858">
			<stop  offset="0" style="stop-color:#FF0042"/>
			<stop  offset="0.1069" style="stop-color:#F2004E"/>
			<stop  offset="0.3031" style="stop-color:#D1006D"/>
			<stop  offset="0.5666" style="stop-color:#9B00A0"/>
			<stop  offset="0.884" style="stop-color:#5100E5"/>
			<stop  offset="0.9944" style="stop-color:#3600FF"/>
			<stop  offset="1" style="stop-color:#3600FF"/>
		</linearGradient>
		<path id="XMLID_371_" fill="url(#XMLID_10_)" d="M164.2,11.4c-1.7-1.7-3.9-2.6-6.7-2.6c-1.2,0-2.4,0.2-3.6,0.7
			c-1.2,0.4-2.2,1.1-3.1,2c-0.9,0.9-1.6,2-2.1,3.3c-0.5,1.3-0.8,2.9-0.8,4.6c0,1.4,0.2,2.8,0.6,4.1c0.4,1.3,1.1,2.4,2,3.3
			c0.9,0.9,2,1.7,3.3,2.2c1.3,0.5,2.9,0.8,4.6,0.8c0.7,0,1.4,0,2.1-0.1c0.7-0.1,1.3-0.2,1.9-0.3c0.6-0.1,1.2-0.2,1.7-0.4
			c0.5-0.2,0.9-0.3,1.2-0.5l0.3-0.2l-0.9-5.4l-0.6,0.3c-0.6,0.3-1.3,0.5-2.2,0.6s-1.9,0.3-2.8,0.3c-1.4,0-2.6-0.3-3.4-0.9
			c-0.6-0.5-1-1-1.2-1.7h12l0-0.5c0-0.3,0.1-0.6,0.1-1c0-0.4,0-0.7,0-1C166.7,15.7,165.9,13.1,164.2,11.4z M155.3,15.1
			c0.3-0.3,0.6-0.5,0.9-0.7c0.7-0.4,2-0.3,2.7,0c0.4,0.2,0.6,0.4,0.9,0.7c0.2,0.3,0.4,0.6,0.5,1c0.1,0.2,0.1,0.5,0.2,0.7h-5.9
			c0.1-0.2,0.1-0.5,0.2-0.7C154.9,15.7,155.1,15.4,155.3,15.1z"/>
	</g>
	<g id="XMLID_277_">
		<linearGradient id="XMLID_11_" gradientUnits="userSpaceOnUse" x1="-8.5398" y1="-27.7182" x2="276.9602" y2="16.7818">
			<stop  offset="0" style="stop-color:#FF0042"/>
			<stop  offset="0.1069" style="stop-color:#F2004E"/>
			<stop  offset="0.3031" style="stop-color:#D1006D"/>
			<stop  offset="0.5666" style="stop-color:#9B00A0"/>
			<stop  offset="0.884" style="stop-color:#5100E5"/>
			<stop  offset="0.9944" style="stop-color:#3600FF"/>
			<stop  offset="1" style="stop-color:#3600FF"/>
		</linearGradient>
		<path id="XMLID_347_" fill="url(#XMLID_11_)" d="M200.4,4.3c0,1.1-0.4,2-1.1,2.7c-0.7,0.6-1.6,1-2.6,1s-1.9-0.3-2.6-1
			c-0.8-0.7-1.1-1.6-1.1-2.7c0-1.1,0.4-2,1.1-2.7c0.7-0.6,1.6-1,2.6-1s1.8,0.3,2.6,1C200,2.2,200.4,3.1,200.4,4.3z"/>
		<linearGradient id="XMLID_12_" gradientUnits="userSpaceOnUse" x1="-10.8127" y1="-13.1358" x2="274.6873" y2="31.3642">
			<stop  offset="0" style="stop-color:#FF0042"/>
			<stop  offset="0.1069" style="stop-color:#F2004E"/>
			<stop  offset="0.3031" style="stop-color:#D1006D"/>
			<stop  offset="0.5666" style="stop-color:#9B00A0"/>
			<stop  offset="0.884" style="stop-color:#5100E5"/>
			<stop  offset="0.9944" style="stop-color:#3600FF"/>
			<stop  offset="1" style="stop-color:#3600FF"/>
		</linearGradient>
		<rect id="XMLID_344_" x="193.6" y="9.2" fill="url(#XMLID_12_)" width="6.4" height="19.9"/>
		<linearGradient id="XMLID_13_" gradientUnits="userSpaceOnUse" x1="-10.4449" y1="-15.4953" x2="275.0551" y2="29.0047">
			<stop  offset="0" style="stop-color:#FF0042"/>
			<stop  offset="0.1069" style="stop-color:#F2004E"/>
			<stop  offset="0.3031" style="stop-color:#D1006D"/>
			<stop  offset="0.5666" style="stop-color:#9B00A0"/>
			<stop  offset="0.884" style="stop-color:#5100E5"/>
			<stop  offset="0.9944" style="stop-color:#3600FF"/>
			<stop  offset="1" style="stop-color:#3600FF"/>
		</linearGradient>
		<path id="XMLID_339_" fill="url(#XMLID_13_)" d="M184.8,9.2h6.6v5.5h-6.6v14.5h-6.4V8.7c0-2.6,0.8-4.6,2.2-6.2
			c1.5-1.5,3.7-2.3,6.5-2.3c1,0,1.9,0.1,2.6,0.3c0.7,0.2,1.3,0.4,1.7,0.6l0.4,0.2l-1.2,5.2l-0.6-0.3c-0.3-0.1-0.7-0.3-1.2-0.3
			c-1-0.2-2.1-0.2-2.8,0.1c-0.4,0.1-0.6,0.3-0.8,0.6c-0.2,0.3-0.4,0.6-0.4,0.9c-0.1,0.4-0.1,0.8-0.1,1.3V9.2z"/>
	</g>
	<g id="XMLID_149_">
		<linearGradient id="XMLID_14_" gradientUnits="userSpaceOnUse" x1="-9.8207" y1="-19.5002" x2="275.6793" y2="24.9998">
			<stop  offset="0" style="stop-color:#FF0042"/>
			<stop  offset="0.1069" style="stop-color:#F2004E"/>
			<stop  offset="0.3031" style="stop-color:#D1006D"/>
			<stop  offset="0.5666" style="stop-color:#9B00A0"/>
			<stop  offset="0.884" style="stop-color:#5100E5"/>
			<stop  offset="0.9944" style="stop-color:#3600FF"/>
			<stop  offset="1" style="stop-color:#3600FF"/>
		</linearGradient>
		<path id="XMLID_157_" fill="url(#XMLID_14_)" d="M213.4,24.2l-0.9,5.4H212c-1.6,0-2.9-0.2-3.9-0.5c-1-0.3-1.9-0.8-2.5-1.4
			c-0.6-0.6-1.1-1.4-1.3-2.3c-0.2-0.8-0.3-1.8-0.3-2.8V1.2l6.4-1v21.2c0,0.4,0,0.8,0.1,1.2c0.1,0.3,0.2,0.6,0.3,0.8s0.4,0.4,0.7,0.5
			c0.3,0.1,0.8,0.2,1.4,0.3L213.4,24.2z"/>
	</g>
	<g id="XMLID_146_">
		<linearGradient id="XMLID_15_" gradientUnits="userSpaceOnUse" x1="-10.0991" y1="-17.7138" x2="275.4008" y2="26.7862">
			<stop  offset="0" style="stop-color:#FF0042"/>
			<stop  offset="0.1069" style="stop-color:#F2004E"/>
			<stop  offset="0.3031" style="stop-color:#D1006D"/>
			<stop  offset="0.5666" style="stop-color:#9B00A0"/>
			<stop  offset="0.884" style="stop-color:#5100E5"/>
			<stop  offset="0.9944" style="stop-color:#3600FF"/>
			<stop  offset="1" style="stop-color:#3600FF"/>
		</linearGradient>
		<path id="XMLID_148_" fill="url(#XMLID_15_)" d="M242.5,18v11.2h-6.4V18.6c0-1.6-0.2-2.8-0.6-3.4c-0.3-0.6-1-0.8-1.9-0.8
			c-0.2,0-0.5,0-1.1,0.2c-0.3,0.1-0.6,0.2-0.8,0.3c0.1,0.5,0.2,1,0.2,1.5c0.1,0.6,0.1,1.3,0.1,2v10.8h-6.4V18.6
			c0-1.6-0.2-2.8-0.6-3.4c-0.4-0.6-1-0.8-1.9-0.8c-0.3,0-0.6,0-1,0c-0.2,0-0.4,0-0.6,0.1v14.7h-6.4V10l0.4-0.1
			c0.5-0.1,1-0.3,1.6-0.4c0.6-0.1,1.3-0.3,2-0.4c0.7-0.1,1.4-0.2,2.2-0.3s1.5-0.1,2.2-0.1c1.4,0,2.6,0.2,3.5,0.6
			c0.8,0.3,1.4,0.7,1.9,1.1c0.7-0.5,1.6-0.9,2.5-1.1c1.1-0.3,2-0.5,2.9-0.5c1.6,0,2.9,0.2,3.9,0.7c1.1,0.4,1.9,1.1,2.5,1.9
			c0.6,0.8,1,1.8,1.3,2.9C242.4,15.4,242.5,16.7,242.5,18z"/>
	</g>
	<g id="XMLID_144_">
		<linearGradient id="XMLID_16_" gradientUnits="userSpaceOnUse" x1="-9.4826" y1="-21.6691" x2="276.0174" y2="22.8309">
			<stop  offset="0" style="stop-color:#FF0042"/>
			<stop  offset="0.1069" style="stop-color:#F2004E"/>
			<stop  offset="0.3031" style="stop-color:#D1006D"/>
			<stop  offset="0.5666" style="stop-color:#9B00A0"/>
			<stop  offset="0.884" style="stop-color:#5100E5"/>
			<stop  offset="0.9944" style="stop-color:#3600FF"/>
			<stop  offset="1" style="stop-color:#3600FF"/>
		</linearGradient>
		<path id="XMLID_145_" fill="url(#XMLID_16_)" d="M260.8,23.5c0,2-0.8,3.6-2.3,4.7c-1.5,1-3.6,1.5-6.2,1.5c-1.7,0-3.2-0.1-4.3-0.4
			c-1.2-0.3-1.9-0.5-2.4-0.8l-0.4-0.2l1.1-5.3l0.6,0.2c0.9,0.3,1.8,0.6,2.7,0.8c0.9,0.2,1.9,0.3,2.7,0.3c1.1,0,1.7-0.1,1.9-0.2
			c0.2-0.1,0.3-0.2,0.3-0.7c0-0.1,0-0.4-0.5-0.7c-0.5-0.3-1.3-0.7-2.3-1.1c-0.8-0.3-1.6-0.6-2.3-1c-0.7-0.3-1.4-0.8-1.9-1.3
			c-0.5-0.5-0.9-1.1-1.2-1.9c-0.3-0.7-0.4-1.6-0.4-2.5c0-1.9,0.7-3.5,2.2-4.6c1.4-1.1,3.3-1.7,5.7-1.7c1.2,0,2.3,0.1,3.4,0.3
			c1.1,0.2,1.9,0.4,2.6,0.7l0.4,0.2l-1.2,5.1l-0.5-0.2c-0.6-0.2-1.3-0.4-2-0.6c-0.7-0.1-1.5-0.2-2.4-0.2c-2,0-2,0.7-2,0.9
			c0,0.1,0,0.3,0.1,0.4c0,0,0.1,0.1,0.3,0.3c0.2,0.1,0.5,0.3,0.8,0.5c0.3,0.2,0.8,0.4,1.4,0.6c1.2,0.4,2.2,0.9,3,1.3
			c0.8,0.4,1.5,0.9,1.9,1.5c0.5,0.6,0.8,1.2,1,1.8C260.7,21.9,260.8,22.7,260.8,23.5z"/>
	</g>
</g>
</svg>
