<?xml version="1.0" encoding="utf-8"?>
<!-- Generator: Adobe Illustrator 19.0.0, SVG Export Plug-In . SVG Version: 6.00 Build 0)  -->
<svg version="1.2" baseProfile="tiny" id="Layer_1" xmlns="http://www.w3.org/2000/svg" xmlns:xlink="http://www.w3.org/1999/xlink"
	 x="0px" y="0px" viewBox="0 0 261 36" xml:space="preserve">
<g id="XMLID_40_">
	<path id="XMLID_33_" fill="none" stroke="#999999" stroke-miterlimit="10" d="M0.7,19.2c0-1.4,0.2-2.7,0.7-3.9
		c0.4-1.2,1.1-2.3,1.9-3.2c0.8-0.9,1.9-1.6,3.1-2.1c1.2-0.5,2.6-0.8,4.1-0.8c1,0,1.9,0.1,2.8,0.3c0.8,0.2,1.7,0.4,2.4,0.8l-1.1,4.3
		c-0.5-0.2-1.1-0.4-1.7-0.5c-0.6-0.1-1.3-0.2-2-0.2c-1.6,0-2.8,0.5-3.5,1.5c-0.8,1-1.2,2.3-1.2,3.9c0,1.7,0.4,3,1.1,4
		c0.7,0.9,2,1.4,3.8,1.4c0.6,0,1.3-0.1,2.1-0.2c0.7-0.1,1.4-0.3,2.1-0.6l0.8,4.4c-0.6,0.3-1.4,0.5-2.3,0.7c-0.9,0.2-2,0.3-3.1,0.3
		c-1.7,0-3.2-0.3-4.5-0.8c-1.2-0.5-2.3-1.2-3.1-2.1c-0.8-0.9-1.4-1.9-1.8-3.2C0.9,21.9,0.7,20.6,0.7,19.2z"/>
	<path id="XMLID_30_" fill="none" stroke="#999999" stroke-miterlimit="10" d="M36.4,19.1c0,1.5-0.2,2.8-0.6,4.1s-1.1,2.3-1.9,3.2
		c-0.8,0.9-1.8,1.6-2.9,2c-1.1,0.5-2.4,0.7-3.8,0.7c-1.4,0-2.7-0.2-3.8-0.7c-1.1-0.5-2.1-1.2-2.9-2c-0.8-0.9-1.5-1.9-1.9-3.2
		s-0.7-2.6-0.7-4.1s0.2-2.8,0.7-4.1c0.5-1.2,1.1-2.3,1.9-3.1c0.8-0.9,1.8-1.5,3-2s2.4-0.7,3.7-0.7c1.4,0,2.6,0.2,3.8,0.7
		c1.1,0.5,2.1,1.2,2.9,2c0.8,0.9,1.5,1.9,1.9,3.1C36.2,16.3,36.4,17.6,36.4,19.1z M30.9,19.1c0-1.7-0.3-3-1-3.9
		c-0.7-0.9-1.6-1.4-2.8-1.4c-1.2,0-2.2,0.5-2.8,1.4c-0.7,0.9-1,2.3-1,3.9s0.3,3,1,3.9c0.7,1,1.6,1.5,2.8,1.5c1.2,0,2.2-0.5,2.8-1.5
		C30.6,22.1,30.9,20.8,30.9,19.1z"/>
	<path id="XMLID_28_" fill="none" stroke="#999999" stroke-miterlimit="10" d="M51.9,14.5c-0.5-0.1-1-0.2-1.7-0.4
		c-0.6-0.1-1.3-0.2-2.1-0.2c-0.3,0-0.7,0-1.2,0.1c-0.5,0.1-0.8,0.1-1.1,0.2v14.5h-5.4V10.7c1-0.3,2.1-0.7,3.4-1
		c1.3-0.3,2.8-0.5,4.4-0.5c0.3,0,0.6,0,1,0.1s0.8,0.1,1.2,0.1c0.4,0.1,0.8,0.1,1.2,0.2s0.8,0.2,1,0.3L51.9,14.5z"/>
	<path id="XMLID_25_" fill="none" stroke="#999999" stroke-miterlimit="10" d="M73.3,19.2c0,1.5-0.2,2.8-0.5,4s-0.9,2.2-1.6,3.1
		s-1.6,1.5-2.6,2c-1,0.5-2.2,0.7-3.6,0.7c-0.7,0-1.4-0.1-2.1-0.2c-0.6-0.1-1.3-0.3-1.9-0.6v7.1h-5.4V10.3c0.5-0.1,1-0.3,1.7-0.4
		c0.6-0.1,1.3-0.2,2-0.3c0.7-0.1,1.4-0.2,2.1-0.2c0.7-0.1,1.4-0.1,2-0.1c1.6,0,3,0.2,4.2,0.7c1.2,0.5,2.3,1.1,3.1,2
		c0.8,0.9,1.5,1.9,1.9,3.1C73.1,16.3,73.3,17.7,73.3,19.2z M67.8,19.3c0-1.7-0.4-3-1.1-4c-0.7-1-1.8-1.5-3.3-1.5
		c-0.5,0-0.9,0-1.3,0.1s-0.7,0.1-1,0.1v9.7c0.3,0.2,0.8,0.4,1.3,0.5c0.5,0.1,1.1,0.2,1.6,0.2C66.6,24.5,67.8,22.7,67.8,19.3z"/>
	<path id="XMLID_22_" fill="none" stroke="#999999" stroke-miterlimit="10" d="M95.2,19.1c0,1.5-0.2,2.8-0.6,4.1s-1.1,2.3-1.9,3.2
		c-0.8,0.9-1.8,1.6-2.9,2c-1.1,0.5-2.4,0.7-3.8,0.7c-1.4,0-2.7-0.2-3.8-0.7c-1.1-0.5-2.1-1.2-2.9-2c-0.8-0.9-1.5-1.9-1.9-3.2
		s-0.7-2.6-0.7-4.1s0.2-2.8,0.7-4.1c0.5-1.2,1.1-2.3,1.9-3.1c0.8-0.9,1.8-1.5,3-2s2.4-0.7,3.7-0.7c1.4,0,2.6,0.2,3.8,0.7
		c1.1,0.5,2.1,1.2,2.9,2c0.8,0.9,1.5,1.9,1.9,3.1C94.9,16.3,95.2,17.6,95.2,19.1z M89.7,19.1c0-1.7-0.3-3-1-3.9
		c-0.7-0.9-1.6-1.4-2.8-1.4c-1.2,0-2.2,0.5-2.8,1.4c-0.7,0.9-1,2.3-1,3.9s0.3,3,1,3.9c0.7,1,1.6,1.5,2.8,1.5c1.2,0,2.2-0.5,2.8-1.5
		C89.4,22.1,89.7,20.8,89.7,19.1z"/>
	<path id="XMLID_20_" fill="none" stroke="#999999" stroke-miterlimit="10" d="M110.7,14.5c-0.5-0.1-1-0.2-1.7-0.4
		c-0.6-0.1-1.3-0.2-2.1-0.2c-0.3,0-0.7,0-1.2,0.1c-0.5,0.1-0.8,0.1-1.1,0.2v14.5h-5.4V10.7c1-0.3,2.1-0.7,3.4-1
		c1.3-0.3,2.8-0.5,4.4-0.5c0.3,0,0.6,0,1,0.1s0.8,0.1,1.2,0.1c0.4,0.1,0.8,0.1,1.2,0.2s0.8,0.2,1,0.3L110.7,14.5z"/>
	<path id="XMLID_17_" fill="none" stroke="#999999" stroke-miterlimit="10" d="M120.9,9.2c1.6,0,2.9,0.2,4,0.5
		c1.1,0.4,1.9,0.9,2.5,1.5c0.6,0.7,1.1,1.5,1.3,2.4c0.3,1,0.4,2,0.4,3.2v11.2c-0.8,0.2-1.8,0.4-3.2,0.6c-1.4,0.2-3,0.3-5,0.3
		c-1.2,0-2.3-0.1-3.3-0.3c-1-0.2-1.9-0.6-2.6-1.1c-0.7-0.5-1.3-1.1-1.7-1.9s-0.6-1.8-0.6-2.9c0-1.1,0.2-2,0.7-2.8
		c0.4-0.8,1-1.4,1.8-1.8c0.7-0.5,1.6-0.8,2.6-1s2-0.3,3-0.3c0.7,0,1.3,0,1.9,0.1s1,0.1,1.3,0.2v-0.5c0-0.9-0.3-1.6-0.8-2.2
		c-0.6-0.6-1.5-0.8-2.9-0.8c-0.9,0-1.8,0.1-2.7,0.2c-0.9,0.1-1.7,0.3-2.3,0.6l-0.7-4.3c0.3-0.1,0.7-0.2,1.2-0.3
		c0.5-0.1,1-0.2,1.5-0.3s1.1-0.2,1.7-0.2C119.7,9.2,120.3,9.2,120.9,9.2z M121.4,24.9c0.5,0,1,0,1.5,0c0.5,0,0.9-0.1,1.2-0.1v-4.1
		c-0.2,0-0.5-0.1-1-0.1c-0.4,0-0.8-0.1-1.2-0.1c-0.5,0-1,0-1.4,0.1c-0.4,0.1-0.8,0.2-1.2,0.3c-0.3,0.2-0.6,0.4-0.8,0.7
		c-0.2,0.3-0.3,0.6-0.3,1.1c0,0.8,0.3,1.4,0.8,1.7C119.6,24.7,120.4,24.9,121.4,24.9z"/>
	<path id="XMLID_15_" fill="none" stroke="#999999" stroke-miterlimit="10" d="M133.9,5l5.4-0.9v5.6h6.4v4.5h-6.4v6.7
		c0,1.1,0.2,2,0.6,2.7c0.4,0.7,1.2,1,2.4,1c0.6,0,1.2-0.1,1.8-0.2c0.6-0.1,1.2-0.3,1.7-0.5l0.8,4.2c-0.6,0.3-1.4,0.5-2.2,0.7
		c-0.8,0.2-1.8,0.3-2.9,0.3c-1.5,0-2.7-0.2-3.6-0.6c-1-0.4-1.7-0.9-2.3-1.7c-0.6-0.7-1-1.6-1.2-2.6c-0.2-1-0.3-2.1-0.3-3.3V5z"/>
	<path id="XMLID_12_" fill="none" stroke="#999999" stroke-miterlimit="10" d="M148.4,19.3c0-1.7,0.3-3.1,0.8-4.4
		c0.5-1.3,1.2-2.3,2-3.1s1.8-1.5,2.9-1.9c1.1-0.4,2.2-0.6,3.4-0.6c2.7,0,4.8,0.8,6.4,2.5c1.6,1.6,2.3,4.1,2.3,7.3c0,0.3,0,0.7,0,1
		c0,0.4,0,0.7-0.1,1h-12.2c0.1,1.1,0.6,2,1.5,2.6c0.9,0.6,2.1,1,3.7,1c1,0,2-0.1,2.9-0.3c0.9-0.2,1.7-0.4,2.3-0.7l0.7,4.4
		c-0.3,0.1-0.7,0.3-1.2,0.4c-0.5,0.1-1,0.3-1.6,0.4c-0.6,0.1-1.2,0.2-1.9,0.3c-0.7,0.1-1.3,0.1-2,0.1c-1.7,0-3.2-0.3-4.4-0.8
		c-1.3-0.5-2.3-1.2-3.1-2.1c-0.8-0.9-1.4-1.9-1.8-3.1C148.6,22,148.4,20.7,148.4,19.3z M161,17.3c0-0.5-0.1-0.9-0.2-1.3
		c-0.1-0.4-0.3-0.8-0.6-1.2c-0.3-0.3-0.6-0.6-1-0.8c-0.4-0.2-0.9-0.3-1.6-0.3c-0.6,0-1.1,0.1-1.5,0.3c-0.4,0.2-0.8,0.5-1.1,0.8
		c-0.3,0.3-0.5,0.7-0.7,1.2s-0.3,0.9-0.3,1.3H161z"/>
	<path id="XMLID_8_" fill="none" stroke="#999999" stroke-miterlimit="10" d="M187.2,0.7c1,0,1.8,0.1,2.5,0.3
		c0.7,0.2,1.2,0.3,1.7,0.5l-0.9,4.2c-0.4-0.2-0.8-0.3-1.3-0.4c-0.5-0.1-0.9-0.1-1.4-0.1c-0.6,0-1.2,0.1-1.6,0.3s-0.8,0.4-1,0.7
		c-0.3,0.3-0.4,0.7-0.5,1.1c-0.1,0.4-0.2,0.9-0.2,1.4v0.9h6.6v4.5h-6.6v14.5H179V8.7c0-2.4,0.7-4.4,2.1-5.8
		C182.4,1.4,184.5,0.7,187.2,0.7z M199.9,4.2c0,1-0.3,1.8-1,2.3c-0.6,0.6-1.4,0.8-2.3,0.8c-0.9,0-1.6-0.3-2.3-0.8
		c-0.6-0.6-1-1.3-1-2.3c0-1,0.3-1.8,1-2.3c0.6-0.6,1.4-0.8,2.3-0.8c0.9,0,1.6,0.3,2.3,0.8C199.6,2.5,199.9,3.2,199.9,4.2z
		 M199.4,28.6h-5.4V9.7h5.4V28.6z"/>
	<path id="XMLID_6_" fill="none" stroke="#999999" stroke-miterlimit="10" d="M212,29c-1.6,0-2.8-0.2-3.8-0.5
		c-1-0.3-1.7-0.8-2.3-1.3c-0.6-0.6-0.9-1.2-1.2-2.1c-0.2-0.8-0.3-1.7-0.3-2.7V1.6l5.4-0.9v20.6c0,0.5,0,0.9,0.1,1.3s0.2,0.7,0.4,1
		c0.2,0.3,0.5,0.5,0.9,0.6s0.9,0.3,1.5,0.3L212,29z"/>
	<path id="XMLID_4_" fill="none" stroke="#999999" stroke-miterlimit="10" d="M226.2,18.6c0-1.7-0.2-3-0.7-3.7s-1.2-1.1-2.3-1.1
		c-0.3,0-0.7,0-1,0.1c-0.4,0-0.7,0.1-1,0.1v14.6h-5.4V10.3c0.5-0.1,1-0.2,1.6-0.4s1.3-0.3,1.9-0.4c0.7-0.1,1.4-0.2,2.1-0.3
		c0.7-0.1,1.4-0.1,2.1-0.1c1.4,0,2.5,0.2,3.3,0.5c0.9,0.3,1.6,0.8,2.1,1.2c0.8-0.6,1.6-1,2.6-1.3c1-0.3,1.9-0.5,2.8-0.5
		c1.5,0,2.8,0.2,3.7,0.6c1,0.4,1.7,1,2.3,1.8c0.6,0.8,1,1.7,1.2,2.7s0.3,2.2,0.3,3.5v10.7h-5.4v-10c0-1.7-0.2-3-0.7-3.7
		c-0.4-0.7-1.2-1.1-2.3-1.1c-0.3,0-0.7,0.1-1.2,0.2c-0.5,0.1-0.9,0.3-1.3,0.5c0.2,0.6,0.3,1.1,0.3,1.7s0.1,1.3,0.1,2v10.3h-5.4V18.6
		z"/>
	<path id="XMLID_2_" fill="none" stroke="#999999" stroke-miterlimit="10" d="M252.3,24.8c1,0,1.7-0.1,2.1-0.3s0.6-0.6,0.6-1.1
		c0-0.4-0.3-0.8-0.8-1.1c-0.5-0.3-1.3-0.7-2.4-1.1c-0.8-0.3-1.6-0.6-2.3-1s-1.3-0.7-1.7-1.2c-0.5-0.5-0.9-1-1.1-1.7
		c-0.3-0.6-0.4-1.4-0.4-2.3c0-1.8,0.7-3.2,2-4.2s3.1-1.5,5.4-1.5c1.2,0,2.3,0.1,3.3,0.3s1.9,0.4,2.5,0.7l-0.9,4.2
		c-0.6-0.2-1.3-0.4-2-0.6c-0.7-0.2-1.6-0.3-2.5-0.3c-1.7,0-2.5,0.5-2.5,1.4c0,0.2,0,0.4,0.1,0.6c0.1,0.2,0.2,0.3,0.4,0.5
		c0.2,0.2,0.5,0.3,0.9,0.5s0.8,0.4,1.4,0.6c1.2,0.4,2.1,0.9,2.9,1.3c0.8,0.4,1.4,0.9,1.8,1.4c0.4,0.5,0.8,1,0.9,1.6s0.3,1.3,0.3,2.1
		c0,1.9-0.7,3.3-2.1,4.2c-1.4,1-3.4,1.4-6,1.4c-1.7,0-3.1-0.1-4.2-0.4c-1.1-0.3-1.9-0.5-2.3-0.7l0.9-4.4c0.9,0.4,1.8,0.6,2.8,0.8
		C250.4,24.7,251.4,24.8,252.3,24.8z"/>
</g>
</svg>
