<?xml version="1.0" encoding="utf-8"?>
<!-- Generator: Adobe Illustrator 19.0.0, SVG Export Plug-In . SVG Version: 6.00 Build 0)  -->
<svg version="1.1" baseProfile="basic" id="Layer_1"
	 xmlns="http://www.w3.org/2000/svg" xmlns:xlink="http://www.w3.org/1999/xlink" x="0px" y="0px" viewBox="0 0 67 30"
	 xml:space="preserve">
<g id="XMLID_457_">
	<path id="XMLID_7_" fill="none" stroke="#9B9B9B" stroke-miterlimit="10" d="M12.5,28c-3.8,0-6.7-1.1-8.6-3.4s-3-5.5-3-9.6
		c0-2.1,0.3-3.9,0.9-5.5c0.6-1.6,1.4-3,2.5-4.1s2.3-2,3.8-2.5c1.5-0.6,3-0.9,4.7-0.9c1,0,1.9,0.1,2.7,0.2c0.8,0.2,1.5,0.3,2.1,0.5
		c0.6,0.2,1.1,0.4,1.5,0.6c0.4,0.2,0.7,0.4,0.9,0.5l-1.5,4.5c-0.7-0.4-1.5-0.8-2.5-1c-1-0.3-2-0.4-3.2-0.4c-0.8,0-1.6,0.1-2.4,0.4
		c-0.8,0.3-1.5,0.8-2,1.4c-0.6,0.6-1.1,1.5-1.4,2.5c-0.4,1-0.5,2.2-0.5,3.7c0,1.2,0.1,2.2,0.4,3.2c0.2,1,0.6,1.9,1.1,2.6
		C8.4,21.4,9,22,9.9,22.4c0.8,0.4,1.9,0.6,3.1,0.6c0.8,0,1.4,0,2-0.1c0.6-0.1,1.1-0.2,1.6-0.3c0.5-0.1,0.9-0.3,1.2-0.5
		c0.4-0.2,0.7-0.3,1-0.5l1.4,4.5c-0.7,0.5-1.8,0.9-3.1,1.3C15.8,27.8,14.3,28,12.5,28z"/>
	<path id="XMLID_5_" fill="none" stroke="#9B9B9B" stroke-miterlimit="10" d="M32.2,23.2c0.7,0,1.3-0.1,1.8-0.2
		c0.5-0.1,0.9-0.3,1.2-0.5c0.3-0.2,0.5-0.5,0.6-0.8c0.1-0.3,0.2-0.7,0.2-1c0-0.8-0.4-1.5-1.1-2c-0.7-0.5-1.9-1.1-3.7-1.7
		c-0.8-0.3-1.5-0.6-2.3-1c-0.8-0.4-1.4-0.8-2-1.4c-0.6-0.6-1.1-1.2-1.5-2.1c-0.4-0.8-0.6-1.8-0.6-2.9s0.2-2.2,0.6-3.1
		c0.4-0.9,1-1.7,1.7-2.4c0.7-0.6,1.6-1.1,2.7-1.5S32.1,2,33.4,2c1.6,0,2.9,0.2,4.1,0.5c1.1,0.4,2.1,0.8,2.8,1.2l-1.5,4.4
		c-0.6-0.4-1.4-0.7-2.2-1c-0.8-0.3-1.7-0.4-2.9-0.4c-1.3,0-2.2,0.2-2.7,0.6c-0.5,0.4-0.8,0.9-0.8,1.7c0,0.5,0.1,0.8,0.3,1.2
		c0.2,0.3,0.5,0.6,0.9,0.8c0.4,0.3,0.8,0.5,1.3,0.7c0.5,0.2,1,0.4,1.6,0.6c1.2,0.5,2.3,1,3.2,1.4c0.9,0.5,1.6,1,2.2,1.6
		c0.6,0.6,1,1.4,1.3,2.2c0.3,0.8,0.4,1.9,0.4,3.1c0,2.3-0.8,4.1-2.3,5.4c-1.5,1.3-3.8,1.9-6.9,1.9c-1,0-2-0.1-2.8-0.2
		c-0.8-0.1-1.6-0.3-2.2-0.5c-0.6-0.2-1.2-0.4-1.6-0.6c-0.5-0.2-0.8-0.4-1.2-0.6l1.5-4.5c0.7,0.4,1.5,0.8,2.6,1.1
		C29.5,23.1,30.8,23.2,32.2,23.2z"/>
	<path id="XMLID_2_" fill="none" stroke="#9B9B9B" stroke-miterlimit="10" d="M53.9,2.3c3.5,0,6.2,0.7,8,2s2.8,3.4,2.8,6.2
		c0,1.8-0.4,3.2-1.1,4.3c-0.7,1.1-1.8,2-3.2,2.6c0.5,0.6,1,1.3,1.5,2.1c0.5,0.8,1,1.6,1.5,2.5c0.5,0.9,1,1.8,1.5,2.7
		s0.9,1.9,1.3,2.8h-5.9c-0.4-0.8-0.9-1.6-1.3-2.5c-0.4-0.8-0.9-1.7-1.3-2.4c-0.5-0.8-0.9-1.5-1.4-2.3c-0.4-0.7-0.9-1.4-1.3-1.9h-2.6
		v9.1h-5.2V2.9c1.1-0.2,2.3-0.4,3.5-0.5C51.9,2.3,52.9,2.3,53.9,2.3z M54.2,7.1c-0.4,0-0.7,0-1,0c-0.3,0-0.6,0-0.9,0.1v6.8h1.5
		c2,0,3.4-0.3,4.2-0.8c0.8-0.5,1.3-1.4,1.3-2.7c0-1.2-0.4-2.1-1.3-2.6C57.2,7.3,55.9,7.1,54.2,7.1z"/>
</g>
</svg>
