<?xml version="1.0" encoding="utf-8"?>
<!-- Generator: Adobe Illustrator 19.0.0, SVG Export Plug-In . SVG Version: 6.00 Build 0)  -->
<svg version="1.2" baseProfile="tiny" id="Layer_1" xmlns="http://www.w3.org/2000/svg" xmlns:xlink="http://www.w3.org/1999/xlink"
	 x="0px" y="0px" viewBox="0 0 67 27" xml:space="preserve">
<g id="XMLID_2_">
	<path id="XMLID_8_" fill="#FFFFFF" stroke="#999999" stroke-miterlimit="10" d="M12.8,26.5c-4.1,0-7.1-1.1-9.3-3.4
		s-3.2-5.5-3.2-9.6c0-2.1,0.3-3.9,1-5.5c0.6-1.6,1.5-3,2.7-4.1s2.5-2,4-2.5c1.6-0.6,3.3-0.9,5.1-0.9c1.1,0,2,0.1,2.9,0.2
		s1.6,0.3,2.3,0.5c0.6,0.2,1.2,0.4,1.6,0.6c0.4,0.2,0.7,0.4,0.9,0.5l-1.6,4.5c-0.8-0.4-1.7-0.8-2.7-1c-1-0.3-2.2-0.4-3.5-0.4
		c-0.9,0-1.7,0.1-2.5,0.4C9.6,6.2,8.9,6.6,8.2,7.3C7.6,7.9,7.1,8.7,6.7,9.7c-0.4,1-0.6,2.2-0.6,3.7c0,1.2,0.1,2.2,0.4,3.2
		s0.7,1.9,1.2,2.6c0.6,0.7,1.3,1.3,2.2,1.7c0.9,0.4,2,0.6,3.3,0.6c0.8,0,1.5,0,2.2-0.1c0.6-0.1,1.2-0.2,1.7-0.3
		c0.5-0.1,0.9-0.3,1.3-0.5c0.4-0.2,0.7-0.3,1-0.5l1.5,4.5c-0.8,0.5-1.9,0.9-3.3,1.3C16.3,26.3,14.7,26.5,12.8,26.5z"/>
	<path id="XMLID_6_" fill="#FFFFFF" stroke="#999999" stroke-miterlimit="10" d="M32.1,21.7c0.8,0,1.4-0.1,2-0.2
		c0.5-0.1,0.9-0.3,1.2-0.5c0.3-0.2,0.5-0.5,0.6-0.8c0.1-0.3,0.2-0.7,0.2-1c0-0.8-0.4-1.5-1.2-2c-0.8-0.5-2.1-1.1-4-1.7
		c-0.8-0.3-1.6-0.6-2.4-1c-0.8-0.4-1.5-0.8-2.2-1.4c-0.6-0.6-1.2-1.2-1.6-2.1c-0.4-0.8-0.6-1.8-0.6-2.9s0.2-2.2,0.6-3.1
		c0.4-0.9,1-1.7,1.8-2.4c0.8-0.6,1.8-1.1,2.9-1.5s2.4-0.5,3.8-0.5c1.7,0,3.1,0.2,4.4,0.5c1.2,0.4,2.2,0.8,3,1.2l-1.6,4.4
		c-0.7-0.4-1.5-0.7-2.3-1C36,5.4,35,5.3,33.8,5.3c-1.3,0-2.3,0.2-2.9,0.6C30.3,6.2,30,6.8,30,7.5c0,0.5,0.1,0.8,0.3,1.2
		c0.2,0.3,0.5,0.6,0.9,0.8c0.4,0.3,0.9,0.5,1.4,0.7c0.5,0.2,1.1,0.4,1.7,0.6c1.3,0.5,2.4,1,3.4,1.4c1,0.5,1.8,1,2.4,1.6
		c0.6,0.6,1.1,1.4,1.4,2.2C41.8,17,42,18,42,19.2c0,2.3-0.8,4.1-2.4,5.4c-1.6,1.3-4.1,1.9-7.4,1.9c-1.1,0-2.1-0.1-3-0.2
		c-0.9-0.1-1.7-0.3-2.4-0.5c-0.7-0.2-1.3-0.4-1.8-0.6c-0.5-0.2-0.9-0.4-1.2-0.6l1.6-4.5c0.7,0.4,1.7,0.8,2.8,1.1
		C29.2,21.6,30.5,21.7,32.1,21.7z"/>
	<path id="XMLID_3_" fill="#FFFFFF" stroke="#999999" stroke-miterlimit="10" d="M53.6,0.8c3.7,0,6.6,0.7,8.6,2c2,1.3,3,3.4,3,6.2
		c0,1.8-0.4,3.2-1.2,4.3c-0.8,1.1-2,2-3.5,2.6c0.5,0.6,1,1.3,1.6,2.1c0.6,0.8,1.1,1.6,1.6,2.5c0.5,0.9,1.1,1.8,1.6,2.7
		s1,1.9,1.4,2.8h-6.3c-0.5-0.8-0.9-1.6-1.4-2.5c-0.5-0.8-1-1.7-1.4-2.4c-0.5-0.8-1-1.5-1.5-2.3c-0.5-0.7-1-1.4-1.4-1.9h-2.8V26h-5.6
		V1.4c1.2-0.2,2.5-0.4,3.8-0.5C51.4,0.8,52.6,0.8,53.6,0.8z M53.9,5.6c-0.4,0-0.8,0-1.1,0c-0.3,0-0.6,0-0.9,0.1v6.8h1.6
		c2.1,0,3.6-0.3,4.5-0.8c0.9-0.5,1.4-1.4,1.4-2.7c0-1.2-0.5-2.1-1.4-2.6C57.1,5.8,55.7,5.6,53.9,5.6z"/>
</g>
</svg>
