<?xml version="1.0" encoding="utf-8"?>
<!-- Generator: Adobe Illustrator 19.0.0, SVG Export Plug-In . SVG Version: 6.00 Build 0)  -->
<svg version="1.2" baseProfile="tiny" id="Layer_1" xmlns="http://www.w3.org/2000/svg" xmlns:xlink="http://www.w3.org/1999/xlink"
	 x="0px" y="0px" viewBox="0 0 67 30" width="67" height="30" xml:space="preserve">
<g>
	<linearGradient id="SVGID_1_" gradientUnits="userSpaceOnUse" x1="-10.7954" y1="14.4674" x2="78.2046" y2="16.4674">
		<stop  offset="0" style="stop-color:#FF0042"/>
		<stop  offset="0.1069" style="stop-color:#F2004E"/>
		<stop  offset="0.3031" style="stop-color:#D1006D"/>
		<stop  offset="0.5666" style="stop-color:#9B00A0"/>
		<stop  offset="0.884" style="stop-color:#5100E5"/>
		<stop  offset="0.9944" style="stop-color:#3600FF"/>
		<stop  offset="1" style="stop-color:#3600FF"/>
	</linearGradient>
	<path fill="url(#SVGID_1_)" d="M12.8,28c-4.1,0-7.1-1.1-9.3-3.4S0.3,19.2,0.3,15c0-2.1,0.3-3.9,1-5.5c0.6-1.6,1.5-3,2.7-4.1
		s2.5-2,4-2.5C9.5,2.3,11.2,2,13.1,2c1.1,0,2,0.1,2.9,0.2s1.6,0.3,2.3,0.5c0.6,0.2,1.2,0.4,1.6,0.6c0.4,0.2,0.7,0.4,0.9,0.5
		l-1.6,4.5c-0.8-0.4-1.7-0.8-2.7-1C15.4,7.1,14.3,7,13,7c-0.9,0-1.7,0.1-2.5,0.4C9.6,7.7,8.9,8.1,8.2,8.8c-0.6,0.6-1.1,1.5-1.5,2.5
		c-0.4,1-0.6,2.2-0.6,3.7c0,1.2,0.1,2.2,0.4,3.2s0.7,1.9,1.2,2.6C8.3,21.4,9,22,10,22.4c0.9,0.4,2,0.6,3.3,0.6c0.8,0,1.5,0,2.2-0.1
		c0.6-0.1,1.2-0.2,1.7-0.3c0.5-0.1,0.9-0.3,1.3-0.5c0.4-0.2,0.7-0.3,1-0.5l1.5,4.5c-0.8,0.5-1.9,0.9-3.3,1.3
		C16.3,27.8,14.7,28,12.8,28z"/>
	<linearGradient id="SVGID_2_" gradientUnits="userSpaceOnUse" x1="-10.7854" y1="14.0219" x2="78.2146" y2="16.0219">
		<stop  offset="0" style="stop-color:#FF0042"/>
		<stop  offset="0.1069" style="stop-color:#F2004E"/>
		<stop  offset="0.3031" style="stop-color:#D1006D"/>
		<stop  offset="0.5666" style="stop-color:#9B00A0"/>
		<stop  offset="0.884" style="stop-color:#5100E5"/>
		<stop  offset="0.9944" style="stop-color:#3600FF"/>
		<stop  offset="1" style="stop-color:#3600FF"/>
	</linearGradient>
	<path fill="url(#SVGID_2_)" d="M32.1,23.2c0.8,0,1.4-0.1,2-0.2c0.5-0.1,0.9-0.3,1.2-0.5c0.3-0.2,0.5-0.5,0.6-0.8
		c0.1-0.3,0.2-0.7,0.2-1c0-0.8-0.4-1.5-1.2-2c-0.8-0.5-2.1-1.1-4-1.7c-0.8-0.3-1.6-0.6-2.4-1c-0.8-0.4-1.5-0.8-2.2-1.4
		c-0.6-0.6-1.2-1.2-1.6-2.1c-0.4-0.8-0.6-1.8-0.6-2.9s0.2-2.2,0.6-3.1c0.4-0.9,1-1.7,1.8-2.4c0.8-0.6,1.8-1.1,2.9-1.5S32,2,33.4,2
		c1.7,0,3.1,0.2,4.4,0.5c1.2,0.4,2.2,0.8,3,1.2l-1.6,4.4c-0.7-0.4-1.5-0.7-2.3-1C36,6.9,35,6.8,33.8,6.8c-1.3,0-2.3,0.2-2.9,0.6
		C30.3,7.7,30,8.3,30,9c0,0.5,0.1,0.8,0.3,1.2c0.2,0.3,0.5,0.6,0.9,0.8c0.4,0.3,0.9,0.5,1.4,0.7c0.5,0.2,1.1,0.4,1.7,0.6
		c1.3,0.5,2.4,1,3.4,1.4c1,0.5,1.8,1,2.4,1.6c0.6,0.6,1.1,1.4,1.4,2.2c0.3,0.8,0.5,1.9,0.5,3.1c0,2.3-0.8,4.1-2.4,5.4
		c-1.6,1.3-4.1,1.9-7.4,1.9c-1.1,0-2.1-0.1-3-0.2c-0.9-0.1-1.7-0.3-2.4-0.5c-0.7-0.2-1.3-0.4-1.8-0.6c-0.5-0.2-0.9-0.4-1.2-0.6
		l1.6-4.5c0.7,0.4,1.7,0.8,2.8,1.1C29.2,23.1,30.5,23.2,32.1,23.2z"/>
	<linearGradient id="SVGID_3_" gradientUnits="userSpaceOnUse" x1="-10.7742" y1="13.524" x2="78.2258" y2="15.524">
		<stop  offset="0" style="stop-color:#FF0042"/>
		<stop  offset="0.1069" style="stop-color:#F2004E"/>
		<stop  offset="0.3031" style="stop-color:#D1006D"/>
		<stop  offset="0.5666" style="stop-color:#9B00A0"/>
		<stop  offset="0.884" style="stop-color:#5100E5"/>
		<stop  offset="0.9944" style="stop-color:#3600FF"/>
		<stop  offset="1" style="stop-color:#3600FF"/>
	</linearGradient>
	<path fill="url(#SVGID_3_)" d="M53.6,2.3c3.7,0,6.6,0.7,8.6,2c2,1.3,3,3.4,3,6.2c0,1.8-0.4,3.2-1.2,4.3c-0.8,1.1-2,2-3.5,2.6
		c0.5,0.6,1,1.3,1.6,2.1c0.6,0.8,1.1,1.6,1.6,2.5c0.5,0.9,1.1,1.8,1.6,2.7s1,1.9,1.4,2.8h-6.3C60,26.7,59.5,25.9,59,25
		c-0.5-0.8-1-1.7-1.4-2.4c-0.5-0.8-1-1.5-1.5-2.3c-0.5-0.7-1-1.4-1.4-1.9h-2.8v9.1h-5.6V2.9c1.2-0.2,2.5-0.4,3.8-0.5
		C51.4,2.3,52.6,2.3,53.6,2.3z M53.9,7.1c-0.4,0-0.8,0-1.1,0c-0.3,0-0.6,0-0.9,0.1v6.8h1.6c2.1,0,3.6-0.3,4.5-0.8
		c0.9-0.5,1.4-1.4,1.4-2.7c0-1.2-0.5-2.1-1.4-2.6C57.1,7.3,55.7,7.1,53.9,7.1z"/>
</g>
</svg>
