<svg xmlns="http://www.w3.org/2000/svg" viewBox="0 0 18.62 14.17"><defs><style>.cls-1{fill:#d60f1e;}</style></defs><title>email-icon</title><g id="Layer_2" data-name="Layer 2"><g id="Layer_1-2" data-name="Layer 1"><path class="cls-1" d="M16.35,0H2.28A2.28,2.28,0,0,0,0,2.28V11.9a2.28,2.28,0,0,0,2.28,2.27H16.35a2.27,2.27,0,0,0,2.27-2.27V2.28A2.27,2.27,0,0,0,16.35,0Zm1.24,11.9a1.24,1.24,0,0,1-1.24,1.23H2.28A1.24,1.24,0,0,1,1,11.9V2.28A1.25,1.25,0,0,1,2.28,1H16.35a1.24,1.24,0,0,1,1.23,1.24V11.9Z"/><path class="cls-1" d="M11.75,7,16.3,2.88a.52.52,0,1,0-.7-.77L9.32,7.75,8.1,6.65h0L8,6.57,3,2.1a.52.52,0,0,0-.7.78L6.93,7,2.34,11.3a.51.51,0,0,0,0,.73.52.52,0,0,0,.38.17.54.54,0,0,0,.36-.14L7.71,7.7,9,8.83A.51.51,0,0,0,9.33,9a.48.48,0,0,0,.34-.13L11,7.66l4.63,4.41a.54.54,0,0,0,.36.14.57.57,0,0,0,.38-.16.52.52,0,0,0,0-.74Z"/></g></g></svg>