<?xml version="1.0" encoding="utf-8"?>
<!-- Generator: Adobe Illustrator 19.0.0, SVG Export Plug-In . SVG Version: 6.00 Build 0)  -->
<svg version="1.1" baseProfile="basic" id="Layer_1"
	 xmlns="http://www.w3.org/2000/svg" xmlns:xlink="http://www.w3.org/1999/xlink" 
   x="0px" y="0px" viewBox="0 0 379 30" width="379" height="30"
	 xml:space="preserve">
<g id="XMLID_40_">
	<g id="XMLID_458_">
		<linearGradient id="XMLID_2_" gradientUnits="userSpaceOnUse" x1="-12.049" y1="17.6922" x2="384.951" y2="57.1922">
			<stop  offset="0" style="stop-color:#FF0042"/>
			<stop  offset="0.1069" style="stop-color:#F2004E"/>
			<stop  offset="0.3031" style="stop-color:#D1006D"/>
			<stop  offset="0.5666" style="stop-color:#9B00A0"/>
			<stop  offset="0.884" style="stop-color:#5100E5"/>
			<stop  offset="0.9944" style="stop-color:#3600FF"/>
			<stop  offset="1" style="stop-color:#3600FF"/>
		</linearGradient>
		<rect id="XMLID_461_" x="0.8" y="9.3" fill="url(#XMLID_2_)" width="6.4" height="19.9"/>
		<linearGradient id="XMLID_3_" gradientUnits="userSpaceOnUse" x1="-10.5773" y1="2.9007" x2="386.4227" y2="42.4007">
			<stop  offset="0" style="stop-color:#FF0042"/>
			<stop  offset="0.1069" style="stop-color:#F2004E"/>
			<stop  offset="0.3031" style="stop-color:#D1006D"/>
			<stop  offset="0.5666" style="stop-color:#9B00A0"/>
			<stop  offset="0.884" style="stop-color:#5100E5"/>
			<stop  offset="0.9944" style="stop-color:#3600FF"/>
			<stop  offset="1" style="stop-color:#3600FF"/>
		</linearGradient>
		<path id="XMLID_459_" fill="url(#XMLID_3_)" d="M7.7,4.4c0,1.1-0.4,2-1.1,2.7C5.9,7.7,5,8,4,8C3,8,2.1,7.7,1.4,7
			C0.7,6.4,0.3,5.5,0.3,4.4c0-1.1,0.4-2,1.1-2.7C2.1,1,3,0.7,4,0.7c1,0,1.9,0.3,2.6,1C7.3,2.3,7.7,3.2,7.7,4.4z"/>
	</g>
	<g id="XMLID_456_">
		<linearGradient id="XMLID_4_" gradientUnits="userSpaceOnUse" x1="-11.911" y1="16.3045" x2="385.0891" y2="55.8045">
			<stop  offset="0" style="stop-color:#FF0042"/>
			<stop  offset="0.1069" style="stop-color:#F2004E"/>
			<stop  offset="0.3031" style="stop-color:#D1006D"/>
			<stop  offset="0.5666" style="stop-color:#9B00A0"/>
			<stop  offset="0.884" style="stop-color:#5100E5"/>
			<stop  offset="0.9944" style="stop-color:#3600FF"/>
			<stop  offset="1" style="stop-color:#3600FF"/>
		</linearGradient>
		<path id="XMLID_457_" fill="url(#XMLID_4_)" d="M28.6,18.1v11.2h-6.4V18.7c0-1.6-0.2-2.8-0.6-3.4c-0.4-0.6-1.1-0.8-2.1-0.8
			c-0.4,0-0.8,0-1.2,0.1c-0.3,0-0.5,0-0.7,0.1v14.7h-6.4V10.1l0.4-0.1c0.9-0.3,2.1-0.5,3.6-0.8c1.5-0.2,3-0.3,4.6-0.3
			c1.7,0,3.1,0.2,4.2,0.7c1.1,0.4,2.1,1.1,2.8,1.9c0.7,0.8,1.1,1.8,1.4,2.9C28.4,15.5,28.6,16.7,28.6,18.1z"/>
	</g>
	<g id="XMLID_454_">
		<linearGradient id="XMLID_5_" gradientUnits="userSpaceOnUse" x1="-11.6609" y1="13.7908" x2="385.3391" y2="53.2908">
			<stop  offset="0" style="stop-color:#FF0042"/>
			<stop  offset="0.1069" style="stop-color:#F2004E"/>
			<stop  offset="0.3031" style="stop-color:#D1006D"/>
			<stop  offset="0.5666" style="stop-color:#9B00A0"/>
			<stop  offset="0.884" style="stop-color:#5100E5"/>
			<stop  offset="0.9944" style="stop-color:#3600FF"/>
			<stop  offset="1" style="stop-color:#3600FF"/>
		</linearGradient>
		<path id="XMLID_455_" fill="url(#XMLID_5_)" d="M50,9.3L49.8,10c-1.1,3.8-2.3,7.3-3.6,10.6c-1.3,3.2-2.5,6.1-3.8,8.5l-0.1,0.3
			h-5.1L37.1,29c-1.2-2.4-2.5-5.3-3.8-8.5c-1.3-3.2-2.5-6.8-3.6-10.6l-0.2-0.6h6.7l0.1,0.4c0.2,0.9,0.5,1.9,0.8,3
			c0.3,1.1,0.7,2.2,1,3.3c0.3,1.1,0.7,2.2,1,3.3c0.2,0.6,0.4,1.1,0.5,1.6c0.2-0.5,0.4-1,0.6-1.6c0.4-1.1,0.7-2.1,1.1-3.3
			c0.3-1.1,0.7-2.2,1-3.3c0.3-1.1,0.6-2.1,0.8-3l0.1-0.4H50z"/>
	</g>
	<g id="XMLID_440_">
		<linearGradient id="XMLID_6_" gradientUnits="userSpaceOnUse" x1="-11.4981" y1="12.1554" x2="385.5019" y2="51.6554">
			<stop  offset="0" style="stop-color:#FF0042"/>
			<stop  offset="0.1069" style="stop-color:#F2004E"/>
			<stop  offset="0.3031" style="stop-color:#D1006D"/>
			<stop  offset="0.5666" style="stop-color:#9B00A0"/>
			<stop  offset="0.884" style="stop-color:#5100E5"/>
			<stop  offset="0.9944" style="stop-color:#3600FF"/>
			<stop  offset="1" style="stop-color:#3600FF"/>
		</linearGradient>
		<path id="XMLID_441_" fill="url(#XMLID_6_)" d="M66.6,11.4c-1.7-1.7-3.9-2.6-6.7-2.6c-1.2,0-2.4,0.2-3.5,0.7
			c-1.1,0.4-2.2,1.1-3.1,2c-0.9,0.9-1.6,2-2.1,3.3c-0.5,1.3-0.8,2.9-0.8,4.6c0,1.4,0.2,2.8,0.6,4.1c0.4,1.3,1.1,2.4,1.9,3.3
			c0.9,0.9,2,1.7,3.3,2.2c1.3,0.5,2.9,0.8,4.6,0.8c0.7,0,1.4,0,2.1-0.1c0.7-0.1,1.3-0.2,1.9-0.3c0.6-0.1,1.2-0.2,1.7-0.4
			c0.5-0.2,0.9-0.3,1.2-0.5l0.3-0.2L67.1,23l-0.6,0.3c-0.6,0.2-1.3,0.5-2.2,0.6c-0.9,0.2-1.9,0.3-2.8,0.3c-1.4,0-2.6-0.3-3.4-0.9
			c-0.6-0.4-1-1-1.2-1.7h12l0-0.5c0-0.3,0-0.6,0.1-1c0-0.4,0-0.7,0-1.1C69,15.7,68.2,13.2,66.6,11.4z M57.6,15.2
			c0.2-0.3,0.5-0.5,0.9-0.7c0.8-0.4,2-0.3,2.7,0c0.4,0.2,0.6,0.4,0.9,0.7c0.2,0.3,0.4,0.6,0.5,1c0.1,0.2,0.1,0.5,0.2,0.7h-5.9
			c0.1-0.2,0.1-0.5,0.2-0.7C57.2,15.8,57.4,15.5,57.6,15.2z"/>
	</g>
	<g id="XMLID_438_">
		<linearGradient id="XMLID_7_" gradientUnits="userSpaceOnUse" x1="-11.3176" y1="10.3413" x2="385.6823" y2="49.8413">
			<stop  offset="0" style="stop-color:#FF0042"/>
			<stop  offset="0.1069" style="stop-color:#F2004E"/>
			<stop  offset="0.3031" style="stop-color:#D1006D"/>
			<stop  offset="0.5666" style="stop-color:#9B00A0"/>
			<stop  offset="0.884" style="stop-color:#5100E5"/>
			<stop  offset="0.9944" style="stop-color:#3600FF"/>
			<stop  offset="1" style="stop-color:#3600FF"/>
		</linearGradient>
		<path id="XMLID_439_" fill="url(#XMLID_7_)" d="M86.6,23.6c0,2-0.8,3.6-2.3,4.7c-1.5,1-3.6,1.5-6.2,1.5c-1.7,0-3.2-0.1-4.3-0.5
			c-1.1-0.3-1.9-0.5-2.4-0.8L71,28.4l1.1-5.3l0.6,0.2c0.9,0.3,1.8,0.6,2.7,0.8c0.9,0.2,1.8,0.3,2.7,0.3c1.1,0,1.6-0.1,1.9-0.2
			c0.2-0.1,0.3-0.2,0.3-0.7c0-0.1,0-0.4-0.6-0.7c-0.5-0.3-1.3-0.7-2.3-1.1c-0.9-0.3-1.6-0.6-2.3-1c-0.7-0.4-1.4-0.8-1.9-1.3
			c-0.5-0.5-0.9-1.1-1.2-1.9c-0.3-0.7-0.4-1.5-0.4-2.5c0-1.9,0.7-3.5,2.2-4.6c1.4-1.1,3.3-1.7,5.7-1.7c1.2,0,2.3,0.1,3.4,0.3
			c1.1,0.2,2,0.4,2.6,0.7l0.4,0.1l-1.1,5.1l-0.5-0.2c-0.6-0.2-1.3-0.4-2-0.6c-0.7-0.1-1.5-0.2-2.3-0.2c-2,0-2,0.7-2,0.9
			c0,0.1,0,0.3,0.1,0.4c0,0,0.1,0.1,0.3,0.3c0.2,0.1,0.5,0.3,0.8,0.5c0.4,0.2,0.8,0.4,1.4,0.6c1.2,0.4,2.2,0.9,3,1.3
			c0.8,0.5,1.5,0.9,2,1.5c0.5,0.5,0.8,1.2,1,1.8C86.6,22,86.6,22.8,86.6,23.6z"/>
	</g>
	<g id="XMLID_436_">
		<linearGradient id="XMLID_8_" gradientUnits="userSpaceOnUse" x1="-10.887" y1="6.0128" x2="386.113" y2="45.5128">
			<stop  offset="0" style="stop-color:#FF0042"/>
			<stop  offset="0.1069" style="stop-color:#F2004E"/>
			<stop  offset="0.3031" style="stop-color:#D1006D"/>
			<stop  offset="0.5666" style="stop-color:#9B00A0"/>
			<stop  offset="0.884" style="stop-color:#5100E5"/>
			<stop  offset="0.9944" style="stop-color:#3600FF"/>
			<stop  offset="1" style="stop-color:#3600FF"/>
		</linearGradient>
		<path id="XMLID_437_" fill="url(#XMLID_8_)" d="M103.1,28.5l-0.4,0.2c-0.7,0.3-1.4,0.5-2.2,0.7c-0.8,0.2-1.8,0.3-3,0.3
			c-1.5,0-2.8-0.2-3.8-0.6c-1-0.4-1.9-1-2.5-1.8c-0.6-0.8-1.1-1.7-1.3-2.8c-0.2-1-0.4-2.2-0.4-3.5V4.7l6.4-1v5.7h6.5v5.5h-6.5v6.2
			c0,1,0.2,1.9,0.5,2.4c0.3,0.5,0.9,0.8,2,0.8c0.5,0,1.1-0.1,1.7-0.1c0.6-0.1,1.1-0.3,1.6-0.4l0.6-0.2L103.1,28.5z"/>
	</g>
	<g id="XMLID_425_">
		<linearGradient id="XMLID_9_" gradientUnits="userSpaceOnUse" x1="-10.9729" y1="6.8764" x2="386.0271" y2="46.3764">
			<stop  offset="0" style="stop-color:#FF0042"/>
			<stop  offset="0.1069" style="stop-color:#F2004E"/>
			<stop  offset="0.3031" style="stop-color:#D1006D"/>
			<stop  offset="0.5666" style="stop-color:#9B00A0"/>
			<stop  offset="0.884" style="stop-color:#5100E5"/>
			<stop  offset="0.9944" style="stop-color:#3600FF"/>
			<stop  offset="1" style="stop-color:#3600FF"/>
		</linearGradient>
		<path id="XMLID_426_" fill="url(#XMLID_9_)" d="M122.9,15c-0.5-1.3-1.2-2.4-2-3.3c-0.9-0.9-1.9-1.6-3.1-2.1c-2.4-1-5.5-1-7.9,0
			c-1.2,0.5-2.3,1.2-3.1,2.1c-0.9,0.9-1.6,2-2,3.3s-0.7,2.7-0.7,4.3s0.2,3,0.7,4.3c0.5,1.3,1.2,2.4,2,3.3c0.9,0.9,1.9,1.6,3.1,2.2
			c1.2,0.5,2.5,0.8,4,0.8c1.5,0,2.8-0.3,4-0.8c1.2-0.5,2.2-1.2,3.1-2.2c0.9-0.9,1.5-2,2-3.3c0.4-1.3,0.7-2.7,0.7-4.3
			S123.4,16.3,122.9,15z M113.8,24.2c-1.1,0-1.9-0.4-2.4-1.2c-0.6-0.9-0.9-2.1-0.9-3.7c0-1.5,0.3-2.8,0.9-3.6
			c0.6-0.8,1.4-1.2,2.4-1.2s1.9,0.4,2.4,1.2c0.6,0.9,0.9,2.1,0.9,3.6c0,1.6-0.3,2.8-0.9,3.7C115.7,23.8,114.9,24.2,113.8,24.2z"/>
	</g>
	<g id="XMLID_423_">
		<linearGradient id="XMLID_10_" gradientUnits="userSpaceOnUse" x1="-10.7832" y1="4.9697" x2="386.2168" y2="44.4697">
			<stop  offset="0" style="stop-color:#FF0042"/>
			<stop  offset="0.1069" style="stop-color:#F2004E"/>
			<stop  offset="0.3031" style="stop-color:#D1006D"/>
			<stop  offset="0.5666" style="stop-color:#9B00A0"/>
			<stop  offset="0.884" style="stop-color:#5100E5"/>
			<stop  offset="0.9944" style="stop-color:#3600FF"/>
			<stop  offset="1" style="stop-color:#3600FF"/>
		</linearGradient>
		<path id="XMLID_424_" fill="url(#XMLID_10_)" d="M140.1,9.8l-1.1,5.3l-0.5-0.1c-0.5-0.1-1-0.3-1.7-0.4c-0.6-0.1-1.3-0.2-2-0.2
			c-0.3,0-0.7,0-1.1,0.1c-0.2,0-0.5,0.1-0.6,0.1v14.6h-6.4V10.5l0.3-0.1c1-0.3,2.1-0.7,3.5-1c1.3-0.3,2.8-0.5,4.5-0.5
			c0.3,0,0.7,0,1.1,0.1c0.4,0,0.8,0.1,1.3,0.1c0.4,0.1,0.8,0.1,1.3,0.2c0.4,0.1,0.8,0.2,1.1,0.3L140.1,9.8z"/>
	</g>
	<g id="XMLID_421_">
		<linearGradient id="XMLID_11_" gradientUnits="userSpaceOnUse" x1="-10.5495" y1="2.6215" x2="386.4504" y2="42.1215">
			<stop  offset="0" style="stop-color:#FF0042"/>
			<stop  offset="0.1069" style="stop-color:#F2004E"/>
			<stop  offset="0.3031" style="stop-color:#D1006D"/>
			<stop  offset="0.5666" style="stop-color:#9B00A0"/>
			<stop  offset="0.884" style="stop-color:#5100E5"/>
			<stop  offset="0.9944" style="stop-color:#3600FF"/>
			<stop  offset="1" style="stop-color:#3600FF"/>
		</linearGradient>
		<path id="XMLID_422_" fill="url(#XMLID_11_)" d="M164,9.8l-1.1,5.3l-0.5-0.1c-0.5-0.1-1-0.3-1.7-0.4c-0.6-0.1-1.3-0.2-2-0.2
			c-0.3,0-0.7,0-1.1,0.1c-0.3,0-0.5,0.1-0.6,0.1v14.6h-6.4V10.5l0.3-0.1c1-0.3,2.1-0.7,3.5-1c1.3-0.3,2.8-0.5,4.5-0.5
			c0.3,0,0.7,0,1.1,0.1c0.4,0,0.8,0.1,1.3,0.1c0.4,0.1,0.8,0.1,1.3,0.2c0.4,0.1,0.8,0.2,1.1,0.3L164,9.8z"/>
	</g>
	<g id="XMLID_401_">
		<linearGradient id="XMLID_12_" gradientUnits="userSpaceOnUse" x1="-10.0337" y1="-2.5632" x2="386.9663" y2="36.9368">
			<stop  offset="0" style="stop-color:#FF0042"/>
			<stop  offset="0.1069" style="stop-color:#F2004E"/>
			<stop  offset="0.3031" style="stop-color:#D1006D"/>
			<stop  offset="0.5666" style="stop-color:#9B00A0"/>
			<stop  offset="0.884" style="stop-color:#5100E5"/>
			<stop  offset="0.9944" style="stop-color:#3600FF"/>
			<stop  offset="1" style="stop-color:#3600FF"/>
		</linearGradient>
		<path id="XMLID_405_" fill="url(#XMLID_12_)" d="M178.1,17.4c0-0.5-0.1-1-0.3-1.4c-0.2-0.5-0.4-0.9-0.7-1.3
			c-0.3-0.4-0.7-0.7-1.2-1c-1-0.5-2.5-0.5-3.6,0c-0.5,0.2-0.9,0.5-1.3,0.9c-0.3,0.4-0.6,0.8-0.8,1.3c-0.2,0.5-0.3,0.9-0.4,1.4
			l-0.1,0.6h8.2L178.1,17.4z M171.1,16.9c0.1-0.2,0.1-0.5,0.2-0.7c0.1-0.4,0.3-0.7,0.6-1c0.2-0.3,0.5-0.5,0.9-0.7
			c0.7-0.4,2-0.3,2.7,0c0.4,0.2,0.6,0.4,0.9,0.7c0.2,0.3,0.4,0.6,0.5,1c0.1,0.2,0.1,0.5,0.2,0.7H171.1z M178.1,17.4
			c0-0.5-0.1-1-0.3-1.4c-0.2-0.5-0.4-0.9-0.7-1.3c-0.3-0.4-0.7-0.7-1.2-1c-1-0.5-2.5-0.5-3.6,0c-0.5,0.2-0.9,0.5-1.3,0.9
			c-0.3,0.4-0.6,0.8-0.8,1.3c-0.2,0.5-0.3,0.9-0.4,1.4l-0.1,0.6h8.2L178.1,17.4z M171.1,16.9c0.1-0.2,0.1-0.5,0.2-0.7
			c0.1-0.4,0.3-0.7,0.6-1c0.2-0.3,0.5-0.5,0.9-0.7c0.7-0.4,2-0.3,2.7,0c0.4,0.2,0.6,0.4,0.9,0.7c0.2,0.3,0.4,0.6,0.5,1
			c0.1,0.2,0.1,0.5,0.2,0.7H171.1z M178.1,17.4c0-0.5-0.1-1-0.3-1.4c-0.2-0.5-0.4-0.9-0.7-1.3c-0.3-0.4-0.7-0.7-1.2-1
			c-1-0.5-2.5-0.5-3.6,0c-0.5,0.2-0.9,0.5-1.3,0.9c-0.3,0.4-0.6,0.8-0.8,1.3c-0.2,0.5-0.3,0.9-0.4,1.4l-0.1,0.6h8.2L178.1,17.4z
			 M171.1,16.9c0.1-0.2,0.1-0.5,0.2-0.7c0.1-0.4,0.3-0.7,0.6-1c0.2-0.3,0.5-0.5,0.9-0.7c0.7-0.4,2-0.3,2.7,0
			c0.4,0.2,0.6,0.4,0.9,0.7c0.2,0.3,0.4,0.6,0.5,1c0.1,0.2,0.1,0.5,0.2,0.7H171.1z"/>
		<linearGradient id="XMLID_13_" gradientUnits="userSpaceOnUse" x1="-10.3781" y1="0.8979" x2="386.6219" y2="40.3979">
			<stop  offset="0" style="stop-color:#FF0042"/>
			<stop  offset="0.1069" style="stop-color:#F2004E"/>
			<stop  offset="0.3031" style="stop-color:#D1006D"/>
			<stop  offset="0.5666" style="stop-color:#9B00A0"/>
			<stop  offset="0.884" style="stop-color:#5100E5"/>
			<stop  offset="0.9944" style="stop-color:#3600FF"/>
			<stop  offset="1" style="stop-color:#3600FF"/>
		</linearGradient>
		<path id="XMLID_402_" fill="url(#XMLID_13_)" d="M180.8,11.4c-1.7-1.7-3.9-2.6-6.7-2.6c-1.2,0-2.4,0.2-3.5,0.7
			c-1.2,0.4-2.2,1.1-3.1,2c-0.9,0.9-1.6,2-2.1,3.3c-0.5,1.3-0.8,2.9-0.8,4.6c0,1.4,0.2,2.8,0.6,4.1c0.4,1.3,1.1,2.4,1.9,3.3
			c0.9,0.9,2,1.7,3.3,2.2c1.3,0.5,2.9,0.8,4.6,0.8c0.7,0,1.4,0,2.1-0.1c0.7-0.1,1.3-0.2,1.9-0.3c0.6-0.1,1.2-0.2,1.7-0.4
			c0.5-0.2,0.9-0.3,1.2-0.5l0.3-0.2l-0.9-5.3l-0.6,0.3c-0.6,0.2-1.3,0.5-2.2,0.6c-0.9,0.2-1.9,0.3-2.8,0.3c-1.4,0-2.6-0.3-3.4-0.9
			c-0.6-0.4-1-1-1.2-1.7h12l0-0.5c0-0.3,0-0.6,0.1-1c0-0.4,0-0.7,0-1.1C183.3,15.7,182.5,13.2,180.8,11.4z M170,17.3
			c0.1-0.5,0.2-1,0.4-1.4c0.2-0.5,0.4-0.9,0.8-1.3c0.3-0.4,0.8-0.7,1.3-0.9c1-0.5,2.6-0.5,3.6,0c0.5,0.3,0.9,0.6,1.2,1
			c0.3,0.4,0.5,0.8,0.7,1.3c0.1,0.5,0.2,1,0.3,1.4l0,0.5h-8.2L170,17.3z"/>
	</g>
	<g id="XMLID_399_">
		<linearGradient id="XMLID_14_" gradientUnits="userSpaceOnUse" x1="-9.764" y1="-5.2737" x2="387.236" y2="34.2263">
			<stop  offset="0" style="stop-color:#FF0042"/>
			<stop  offset="0.1069" style="stop-color:#F2004E"/>
			<stop  offset="0.3031" style="stop-color:#D1006D"/>
			<stop  offset="0.5666" style="stop-color:#9B00A0"/>
			<stop  offset="0.884" style="stop-color:#5100E5"/>
			<stop  offset="0.9944" style="stop-color:#3600FF"/>
			<stop  offset="1" style="stop-color:#3600FF"/>
		</linearGradient>
		<path id="XMLID_400_" fill="url(#XMLID_14_)" d="M195.8,24.2l-0.9,5.4h-0.4c-1.6,0-2.9-0.2-4-0.5c-1-0.3-1.9-0.8-2.5-1.4
			c-0.6-0.6-1.1-1.4-1.3-2.3c-0.2-0.8-0.3-1.8-0.3-2.8V1.3l6.4-1v21.2c0,0.4,0,0.9,0.1,1.2c0,0.3,0.2,0.6,0.3,0.8
			c0.2,0.2,0.4,0.4,0.7,0.5c0.3,0.1,0.8,0.2,1.4,0.3L195.8,24.2z"/>
	</g>
	<g id="XMLID_393_">
		<linearGradient id="XMLID_15_" gradientUnits="userSpaceOnUse" x1="-10.0668" y1="-2.2303" x2="386.9332" y2="37.2697">
			<stop  offset="0" style="stop-color:#FF0042"/>
			<stop  offset="0.1069" style="stop-color:#F2004E"/>
			<stop  offset="0.3031" style="stop-color:#D1006D"/>
			<stop  offset="0.5666" style="stop-color:#9B00A0"/>
			<stop  offset="0.884" style="stop-color:#5100E5"/>
			<stop  offset="0.9944" style="stop-color:#3600FF"/>
			<stop  offset="1" style="stop-color:#3600FF"/>
		</linearGradient>
		<path id="XMLID_394_" fill="url(#XMLID_15_)" d="M214,13.7c-0.3-1-0.8-1.9-1.5-2.7c-0.7-0.7-1.6-1.3-2.7-1.7
			c-1.1-0.4-2.5-0.6-4.1-0.6c-0.6,0-1.3,0-1.9,0.1C203.1,9,202.6,9,202,9.1c-0.6,0.1-1.1,0.2-1.6,0.3s-0.9,0.2-1.2,0.3l-0.4,0.1
			l0.8,5.4l0.6-0.2c0.6-0.2,1.3-0.4,2.2-0.5c0.9-0.1,1.8-0.2,2.6-0.2c1.2,0,2.1,0.2,2.5,0.7c0.4,0.4,0.7,1,0.7,1.7
			c-0.2,0-0.5-0.1-0.8-0.1c-0.6-0.1-1.2-0.1-1.9-0.1c-1.1,0-2.1,0.1-3.1,0.3c-1,0.2-1.9,0.6-2.7,1c-0.8,0.5-1.5,1.2-2,2
			c-0.5,0.8-0.7,1.9-0.7,3.1c0,1.2,0.2,2.3,0.6,3.1c0.4,0.9,1,1.6,1.8,2.1c0.8,0.5,1.7,0.9,2.8,1.1c1,0.2,2.2,0.3,3.4,0.3
			c2,0,3.7-0.1,5-0.3c1.4-0.2,2.5-0.4,3.2-0.6l0.4-0.1V17.1C214.4,15.8,214.3,14.7,214,13.7z M208.3,24.4c-0.2,0-0.4,0-0.7,0
			c-0.5,0-1,0-1.5,0c-0.9,0-1.6-0.1-2.1-0.4c-0.4-0.2-0.6-0.7-0.6-1.3c0-0.3,0.1-0.6,0.2-0.8c0.1-0.2,0.3-0.4,0.6-0.5
			c0.3-0.1,0.6-0.2,1-0.3c0.4-0.1,0.9-0.1,1.4-0.1c0.3,0,0.7,0,1.1,0.1c0.2,0,0.4,0.1,0.5,0.1V24.4z"/>
	</g>
	<g id="XMLID_385_">
		<linearGradient id="XMLID_16_" gradientUnits="userSpaceOnUse" x1="-9.6261" y1="-6.6598" x2="387.3739" y2="32.8402">
			<stop  offset="0" style="stop-color:#FF0042"/>
			<stop  offset="0.1069" style="stop-color:#F2004E"/>
			<stop  offset="0.3031" style="stop-color:#D1006D"/>
			<stop  offset="0.5666" style="stop-color:#9B00A0"/>
			<stop  offset="0.884" style="stop-color:#5100E5"/>
			<stop  offset="0.9944" style="stop-color:#3600FF"/>
			<stop  offset="1" style="stop-color:#3600FF"/>
		</linearGradient>
		<path id="XMLID_392_" fill="url(#XMLID_16_)" d="M231.7,28.5l-0.4,0.2c-0.7,0.3-1.4,0.5-2.2,0.7c-0.8,0.2-1.9,0.3-3,0.3
			c-1.5,0-2.8-0.2-3.8-0.6c-1-0.4-1.9-1-2.5-1.8c-0.6-0.8-1.1-1.7-1.3-2.8c-0.2-1-0.4-2.2-0.4-3.5V4.7l6.4-1v5.7h6.4v5.5h-6.4v6.2
			c0,1,0.2,1.9,0.5,2.4c0.3,0.5,1,0.8,2,0.8c0.5,0,1.1-0.1,1.7-0.1c0.6-0.1,1.1-0.3,1.6-0.4l0.6-0.2L231.7,28.5z"/>
	</g>
	<g id="XMLID_381_">
		<linearGradient id="XMLID_17_" gradientUnits="userSpaceOnUse" x1="-8.2892" y1="-20.0961" x2="388.7108" y2="19.4039">
			<stop  offset="0" style="stop-color:#FF0042"/>
			<stop  offset="0.1069" style="stop-color:#F2004E"/>
			<stop  offset="0.3031" style="stop-color:#D1006D"/>
			<stop  offset="0.5666" style="stop-color:#9B00A0"/>
			<stop  offset="0.884" style="stop-color:#5100E5"/>
			<stop  offset="0.9944" style="stop-color:#3600FF"/>
			<stop  offset="1" style="stop-color:#3600FF"/>
		</linearGradient>
		<path id="XMLID_384_" fill="url(#XMLID_17_)" d="M241.1,4.4c0,1.1-0.4,2-1.1,2.7c-0.7,0.6-1.6,1-2.6,1c-1,0-1.8-0.3-2.6-1
			c-0.7-0.7-1.1-1.6-1.1-2.7c0-1.1,0.4-2,1.1-2.7c0.7-0.6,1.6-1,2.6-1c1,0,1.9,0.3,2.6,1C240.7,2.3,241.1,3.2,241.1,4.4z"/>
		<linearGradient id="XMLID_18_" gradientUnits="userSpaceOnUse" x1="-9.7609" y1="-5.3045" x2="387.2391" y2="34.1955">
			<stop  offset="0" style="stop-color:#FF0042"/>
			<stop  offset="0.1069" style="stop-color:#F2004E"/>
			<stop  offset="0.3031" style="stop-color:#D1006D"/>
			<stop  offset="0.5666" style="stop-color:#9B00A0"/>
			<stop  offset="0.884" style="stop-color:#5100E5"/>
			<stop  offset="0.9944" style="stop-color:#3600FF"/>
			<stop  offset="1" style="stop-color:#3600FF"/>
		</linearGradient>
		<rect id="XMLID_383_" x="234.3" y="9.3" fill="url(#XMLID_18_)" width="6.4" height="19.9"/>
	</g>
	<g id="XMLID_372_">
		<linearGradient id="XMLID_19_" gradientUnits="userSpaceOnUse" x1="-9.603" y1="-6.8918" x2="387.397" y2="32.6082">
			<stop  offset="0" style="stop-color:#FF0042"/>
			<stop  offset="0.1069" style="stop-color:#F2004E"/>
			<stop  offset="0.3031" style="stop-color:#D1006D"/>
			<stop  offset="0.5666" style="stop-color:#9B00A0"/>
			<stop  offset="0.884" style="stop-color:#5100E5"/>
			<stop  offset="0.9944" style="stop-color:#3600FF"/>
			<stop  offset="1" style="stop-color:#3600FF"/>
		</linearGradient>
		<path id="XMLID_376_" fill="url(#XMLID_19_)" d="M262.6,15c-0.5-1.3-1.2-2.4-2-3.3c-0.9-0.9-1.9-1.6-3.1-2.1c-2.4-1-5.5-1-7.9,0
			c-1.2,0.5-2.3,1.2-3.1,2.1c-0.9,0.9-1.6,2-2,3.3s-0.7,2.7-0.7,4.3s0.2,3,0.7,4.3c0.5,1.3,1.2,2.4,2,3.3c0.9,0.9,1.9,1.6,3.1,2.2
			c1.2,0.5,2.5,0.8,4,0.8c1.5,0,2.8-0.3,4-0.8c1.2-0.5,2.2-1.2,3.1-2.2c0.9-0.9,1.5-2,2-3.3c0.4-1.3,0.7-2.7,0.7-4.3
			S263.1,16.3,262.6,15z M256,22.9c-0.6,0.8-1.4,1.2-2.4,1.2c-1.1,0-1.9-0.4-2.4-1.2c-0.6-0.9-0.9-2.1-0.9-3.7
			c0-1.5,0.3-2.8,0.9-3.6c0.6-0.8,1.4-1.2,2.4-1.2s1.9,0.4,2.4,1.2c0.6,0.9,0.9,2.1,0.9,3.6C256.9,20.8,256.6,22,256,22.9z"/>
	</g>
	<g id="XMLID_348_">
		<linearGradient id="XMLID_20_" gradientUnits="userSpaceOnUse" x1="-9.4087" y1="-8.845" x2="387.5913" y2="30.655">
			<stop  offset="0" style="stop-color:#FF0042"/>
			<stop  offset="0.1069" style="stop-color:#F2004E"/>
			<stop  offset="0.3031" style="stop-color:#D1006D"/>
			<stop  offset="0.5666" style="stop-color:#9B00A0"/>
			<stop  offset="0.884" style="stop-color:#5100E5"/>
			<stop  offset="0.9944" style="stop-color:#3600FF"/>
			<stop  offset="1" style="stop-color:#3600FF"/>
		</linearGradient>
		<path id="XMLID_371_" fill="url(#XMLID_20_)" d="M283.9,18.1v11.2h-6.4V18.7c0-1.6-0.2-2.8-0.6-3.4c-0.4-0.6-1.1-0.8-2.1-0.8
			c-0.4,0-0.8,0-1.2,0.1c-0.2,0-0.5,0-0.7,0.1v14.7h-6.4V10.1l0.4-0.1c0.9-0.3,2.1-0.5,3.6-0.8c1.5-0.2,3-0.3,4.6-0.3
			c1.7,0,3.1,0.2,4.2,0.7c1.1,0.4,2.1,1.1,2.7,1.9c0.7,0.8,1.2,1.8,1.4,2.9C283.7,15.5,283.9,16.7,283.9,18.1z"/>
	</g>
	<g id="XMLID_277_">
		<linearGradient id="XMLID_21_" gradientUnits="userSpaceOnUse" x1="-7.5326" y1="-27.7005" x2="389.4674" y2="11.7995">
			<stop  offset="0" style="stop-color:#FF0042"/>
			<stop  offset="0.1069" style="stop-color:#F2004E"/>
			<stop  offset="0.3031" style="stop-color:#D1006D"/>
			<stop  offset="0.5666" style="stop-color:#9B00A0"/>
			<stop  offset="0.884" style="stop-color:#5100E5"/>
			<stop  offset="0.9944" style="stop-color:#3600FF"/>
			<stop  offset="1" style="stop-color:#3600FF"/>
		</linearGradient>
		<path id="XMLID_347_" fill="url(#XMLID_21_)" d="M318.3,4.4c0,1.1-0.4,2-1.1,2.7c-0.7,0.6-1.6,1-2.6,1c-1,0-1.9-0.3-2.6-1
			c-0.7-0.7-1.1-1.6-1.1-2.7c0-1.1,0.4-2,1.1-2.7c0.7-0.6,1.6-1,2.6-1c1,0,1.8,0.3,2.6,1C317.9,2.3,318.3,3.2,318.3,4.4z"/>
		<linearGradient id="XMLID_22_" gradientUnits="userSpaceOnUse" x1="-9.0043" y1="-12.9089" x2="387.9957" y2="26.5911">
			<stop  offset="0" style="stop-color:#FF0042"/>
			<stop  offset="0.1069" style="stop-color:#F2004E"/>
			<stop  offset="0.3031" style="stop-color:#D1006D"/>
			<stop  offset="0.5666" style="stop-color:#9B00A0"/>
			<stop  offset="0.884" style="stop-color:#5100E5"/>
			<stop  offset="0.9944" style="stop-color:#3600FF"/>
			<stop  offset="1" style="stop-color:#3600FF"/>
		</linearGradient>
		<rect id="XMLID_344_" x="311.4" y="9.3" fill="url(#XMLID_22_)" width="6.4" height="19.9"/>
		<linearGradient id="XMLID_23_" gradientUnits="userSpaceOnUse" x1="-8.6936" y1="-16.0318" x2="388.3064" y2="23.4682">
			<stop  offset="0" style="stop-color:#FF0042"/>
			<stop  offset="0.1069" style="stop-color:#F2004E"/>
			<stop  offset="0.3031" style="stop-color:#D1006D"/>
			<stop  offset="0.5666" style="stop-color:#9B00A0"/>
			<stop  offset="0.884" style="stop-color:#5100E5"/>
			<stop  offset="0.9944" style="stop-color:#3600FF"/>
			<stop  offset="1" style="stop-color:#3600FF"/>
		</linearGradient>
		<path id="XMLID_339_" fill="url(#XMLID_23_)" d="M302.7,9.3h6.6v5.5h-6.6v14.5h-6.4V8.8c0-2.6,0.7-4.6,2.2-6.2
			c1.5-1.5,3.6-2.3,6.5-2.3c1,0,1.9,0.1,2.6,0.3c0.7,0.2,1.3,0.4,1.8,0.6l0.4,0.2l-1.2,5.2l-0.5-0.2c-0.3-0.2-0.7-0.3-1.2-0.3
			c-1-0.2-2.1-0.2-2.8,0.1c-0.4,0.1-0.6,0.3-0.8,0.6s-0.4,0.6-0.4,0.9c-0.1,0.4-0.2,0.8-0.2,1.3V9.3z"/>
	</g>
	<g id="XMLID_149_">
		<linearGradient id="XMLID_24_" gradientUnits="userSpaceOnUse" x1="-8.4368" y1="-18.6127" x2="388.5632" y2="20.8873">
			<stop  offset="0" style="stop-color:#FF0042"/>
			<stop  offset="0.1069" style="stop-color:#F2004E"/>
			<stop  offset="0.3031" style="stop-color:#D1006D"/>
			<stop  offset="0.5666" style="stop-color:#9B00A0"/>
			<stop  offset="0.884" style="stop-color:#5100E5"/>
			<stop  offset="0.9944" style="stop-color:#3600FF"/>
			<stop  offset="1" style="stop-color:#3600FF"/>
		</linearGradient>
		<path id="XMLID_157_" fill="url(#XMLID_24_)" d="M331.2,24.2l-0.9,5.4h-0.4c-1.6,0-2.9-0.2-3.9-0.5c-1-0.3-1.9-0.8-2.5-1.4
			c-0.6-0.6-1.1-1.4-1.3-2.3c-0.2-0.8-0.3-1.8-0.3-2.8V1.3l6.4-1v21.2c0,0.4,0,0.9,0.1,1.2c0.1,0.3,0.2,0.6,0.3,0.8
			c0.1,0.2,0.4,0.4,0.7,0.5c0.3,0.1,0.8,0.2,1.4,0.3L331.2,24.2z"/>
	</g>
	<g id="XMLID_146_">
		<linearGradient id="XMLID_25_" gradientUnits="userSpaceOnUse" x1="-8.7035" y1="-15.932" x2="388.2964" y2="23.568">
			<stop  offset="0" style="stop-color:#FF0042"/>
			<stop  offset="0.1069" style="stop-color:#F2004E"/>
			<stop  offset="0.3031" style="stop-color:#D1006D"/>
			<stop  offset="0.5666" style="stop-color:#9B00A0"/>
			<stop  offset="0.884" style="stop-color:#5100E5"/>
			<stop  offset="0.9944" style="stop-color:#3600FF"/>
			<stop  offset="1" style="stop-color:#3600FF"/>
		</linearGradient>
		<path id="XMLID_148_" fill="url(#XMLID_25_)" d="M360.4,18.1v11.2H354V18.7c0-1.6-0.2-2.8-0.6-3.4c-0.4-0.6-1-0.8-1.9-0.8
			c-0.2,0-0.5,0-1.1,0.2c-0.3,0.1-0.6,0.2-0.8,0.3c0.1,0.5,0.2,1,0.2,1.5c0,0.6,0.1,1.3,0.1,2v10.8h-6.4V18.7c0-1.6-0.2-2.8-0.6-3.4
			c-0.3-0.6-1-0.8-1.9-0.8c-0.3,0-0.7,0-1,0.1c-0.2,0-0.4,0-0.6,0.1v14.7h-6.4V10.1l0.4-0.1c0.5-0.1,1-0.3,1.6-0.4
			c0.6-0.1,1.3-0.3,2-0.4c0.7-0.1,1.4-0.2,2.1-0.3c0.7-0.1,1.5-0.1,2.2-0.1c1.4,0,2.6,0.2,3.5,0.6c0.8,0.3,1.4,0.7,1.9,1.1
			c0.7-0.5,1.6-0.9,2.5-1.2c1-0.3,2-0.5,2.9-0.5c1.6,0,2.9,0.2,3.9,0.7c1,0.5,1.9,1.1,2.5,1.9c0.6,0.8,1,1.8,1.3,2.9
			C360.3,15.5,360.4,16.7,360.4,18.1z"/>
	</g>
	<g id="XMLID_144_">
		<linearGradient id="XMLID_26_" gradientUnits="userSpaceOnUse" x1="-8.4547" y1="-18.4329" x2="388.5453" y2="21.0671">
			<stop  offset="0" style="stop-color:#FF0042"/>
			<stop  offset="0.1069" style="stop-color:#F2004E"/>
			<stop  offset="0.3031" style="stop-color:#D1006D"/>
			<stop  offset="0.5666" style="stop-color:#9B00A0"/>
			<stop  offset="0.884" style="stop-color:#5100E5"/>
			<stop  offset="0.9944" style="stop-color:#3600FF"/>
			<stop  offset="1" style="stop-color:#3600FF"/>
		</linearGradient>
		<path id="XMLID_145_" fill="url(#XMLID_26_)" d="M378.7,23.6c0,2-0.8,3.6-2.3,4.7c-1.5,1-3.6,1.5-6.2,1.5c-1.7,0-3.2-0.1-4.3-0.5
			c-1.1-0.3-1.9-0.5-2.4-0.8l-0.4-0.2l1.1-5.3l0.5,0.2c0.9,0.3,1.8,0.6,2.7,0.8c0.9,0.2,1.8,0.3,2.7,0.3c1.1,0,1.6-0.1,1.9-0.2
			c0.2-0.1,0.3-0.2,0.3-0.7c0-0.1,0-0.4-0.6-0.7c-0.5-0.3-1.3-0.7-2.3-1.1c-0.9-0.3-1.6-0.6-2.3-1c-0.7-0.4-1.4-0.8-1.9-1.3
			c-0.5-0.5-0.9-1.1-1.2-1.9c-0.3-0.7-0.4-1.5-0.4-2.5c0-1.9,0.7-3.5,2.2-4.6c1.4-1.1,3.3-1.7,5.8-1.7c1.2,0,2.3,0.1,3.4,0.3
			c1.1,0.2,2,0.4,2.6,0.7L378,10l-1.1,5.1l-0.5-0.2c-0.6-0.2-1.3-0.4-2-0.6c-0.7-0.1-1.5-0.2-2.4-0.2c-2,0-2,0.7-2,0.9
			c0,0.1,0,0.3,0.1,0.4c0,0,0.1,0.1,0.3,0.3c0.2,0.1,0.5,0.3,0.8,0.5c0.4,0.2,0.8,0.4,1.4,0.6c1.2,0.4,2.2,0.9,3,1.3
			c0.8,0.5,1.5,0.9,2,1.5c0.5,0.5,0.8,1.2,1,1.8C378.6,22,378.7,22.8,378.7,23.6z"/>
	</g>
</g>
</svg>
