<?xml version="1.0" encoding="utf-8"?>
<!-- Generator: Adobe Illustrator 19.0.0, SVG Export Plug-In . SVG Version: 6.00 Build 0)  -->
<svg version="1.2" baseProfile="tiny" id="Layer_1" xmlns="http://www.w3.org/2000/svg" xmlns:xlink="http://www.w3.org/1999/xlink"
	 x="0px" y="0px" viewBox="0 0 379 30" xml:space="preserve">
<g id="XMLID_40_">
	<path id="XMLID_49_" fill="none" stroke="#999999" stroke-miterlimit="10" d="M7.2,4.3c0,1-0.3,1.8-1,2.3C5.6,7.2,4.9,7.5,4,7.5
		c-0.9,0-1.6-0.3-2.3-0.8c-0.6-0.6-1-1.3-1-2.3c0-1,0.3-1.8,1-2.3C2.4,1.4,3.1,1.1,4,1.1c0.9,0,1.6,0.3,2.3,0.8
		C6.9,2.5,7.2,3.3,7.2,4.3z M6.7,28.7H1.3V9.8h5.4V28.7z"/>
	<path id="XMLID_47_" fill="none" stroke="#999999" stroke-miterlimit="10" d="M11.7,10.4c0.9-0.3,2.1-0.5,3.5-0.7
		c1.4-0.2,3-0.3,4.5-0.3c1.6,0,2.9,0.2,4,0.6c1.1,0.4,1.9,1,2.5,1.8c0.6,0.8,1.1,1.7,1.3,2.7s0.4,2.2,0.4,3.5v10.7h-5.4v-10
		c0-1.7-0.2-3-0.7-3.7c-0.5-0.7-1.3-1.1-2.6-1.1c-0.4,0-0.8,0-1.2,0.1c-0.4,0-0.8,0.1-1.2,0.1v14.6h-5.4V10.4z"/>
	<path id="XMLID_45_" fill="none" stroke="#999999" stroke-miterlimit="10" d="M37.5,28.7c-1.2-2.4-2.5-5.2-3.7-8.4
		s-2.5-6.7-3.6-10.5h5.7c0.2,0.9,0.5,2,0.8,3s0.7,2.2,1,3.3c0.3,1.1,0.7,2.2,1,3.3c0.3,1.1,0.7,2,1,2.9c0.3-0.9,0.7-1.8,1-2.9
		c0.4-1.1,0.7-2.1,1.1-3.3s0.7-2.2,1-3.3s0.6-2.1,0.8-3h5.5c-1.1,3.8-2.3,7.3-3.6,10.5c-1.3,3.2-2.5,6-3.7,8.4H37.5z"/>
	<path id="XMLID_42_" fill="none" stroke="#999999" stroke-miterlimit="10" d="M50.8,19.4c0-1.7,0.3-3.1,0.8-4.4
		c0.5-1.3,1.2-2.3,2-3.1s1.8-1.5,2.9-1.9c1.1-0.4,2.2-0.6,3.4-0.6c2.7,0,4.8,0.8,6.4,2.5c1.6,1.6,2.3,4.1,2.3,7.3c0,0.3,0,0.7,0,1
		c0,0.4,0,0.7-0.1,1H56.3c0.1,1.1,0.6,2,1.5,2.6c0.9,0.6,2.1,1,3.7,1c1,0,2-0.1,2.9-0.3c0.9-0.2,1.7-0.4,2.3-0.7l0.7,4.4
		c-0.3,0.1-0.7,0.3-1.2,0.4c-0.5,0.1-1,0.3-1.6,0.4c-0.6,0.1-1.2,0.2-1.9,0.3c-0.7,0.1-1.3,0.1-2,0.1c-1.7,0-3.2-0.3-4.4-0.8
		c-1.3-0.5-2.3-1.2-3.1-2.1c-0.8-0.9-1.4-1.9-1.8-3.1C51,22.1,50.8,20.8,50.8,19.4z M63.4,17.3c0-0.5-0.1-0.9-0.2-1.3
		c-0.1-0.4-0.3-0.8-0.6-1.2c-0.3-0.3-0.6-0.6-1-0.8c-0.4-0.2-0.9-0.3-1.6-0.3c-0.6,0-1.1,0.1-1.5,0.3c-0.4,0.2-0.8,0.5-1.1,0.8
		c-0.3,0.3-0.5,0.7-0.7,1.2s-0.3,0.9-0.3,1.3H63.4z"/>
	<path id="XMLID_39_" fill="none" stroke="#999999" stroke-miterlimit="10" d="M78.1,24.9c1,0,1.7-0.1,2.1-0.3s0.6-0.6,0.6-1.1
		c0-0.4-0.3-0.8-0.8-1.1c-0.5-0.3-1.3-0.7-2.4-1.1c-0.8-0.3-1.6-0.6-2.3-1s-1.3-0.7-1.7-1.2c-0.5-0.5-0.9-1-1.1-1.7
		c-0.3-0.6-0.4-1.4-0.4-2.3c0-1.8,0.7-3.2,2-4.2s3.1-1.5,5.4-1.5c1.2,0,2.3,0.1,3.3,0.3s1.9,0.4,2.5,0.7l-0.9,4.2
		c-0.6-0.2-1.3-0.4-2-0.6c-0.7-0.2-1.6-0.3-2.5-0.3c-1.7,0-2.5,0.5-2.5,1.4c0,0.2,0,0.4,0.1,0.6c0.1,0.2,0.2,0.3,0.4,0.5
		c0.2,0.2,0.5,0.3,0.9,0.5s0.8,0.4,1.4,0.6c1.2,0.4,2.1,0.9,2.9,1.3c0.8,0.4,1.4,0.9,1.8,1.4c0.4,0.5,0.8,1,0.9,1.6s0.3,1.3,0.3,2.1
		c0,1.9-0.7,3.3-2.1,4.2c-1.4,1-3.4,1.4-6,1.4c-1.7,0-3.1-0.1-4.2-0.4c-1.1-0.3-1.9-0.5-2.3-0.7l0.9-4.4c0.9,0.4,1.8,0.6,2.8,0.8
		C76.2,24.8,77.2,24.9,78.1,24.9z"/>
	<path id="XMLID_37_" fill="none" stroke="#999999" stroke-miterlimit="10" d="M90,5.1l5.4-0.9v5.6h6.4v4.5h-6.4v6.7
		c0,1.1,0.2,2,0.6,2.7c0.4,0.7,1.2,1,2.4,1c0.6,0,1.2-0.1,1.8-0.2c0.6-0.1,1.2-0.3,1.7-0.5l0.8,4.2c-0.6,0.3-1.4,0.5-2.2,0.7
		c-0.8,0.2-1.8,0.3-2.9,0.3c-1.5,0-2.7-0.2-3.6-0.6c-1-0.4-1.7-0.9-2.3-1.7c-0.6-0.7-1-1.6-1.2-2.6c-0.2-1-0.3-2.1-0.3-3.3V5.1z"/>
	<path id="XMLID_34_" fill="none" stroke="#999999" stroke-miterlimit="10" d="M123.1,19.2c0,1.5-0.2,2.8-0.6,4.1s-1.1,2.3-1.9,3.2
		c-0.8,0.9-1.8,1.6-2.9,2c-1.1,0.5-2.4,0.7-3.8,0.7c-1.4,0-2.7-0.2-3.8-0.7c-1.1-0.5-2.1-1.2-2.9-2c-0.8-0.9-1.5-1.9-1.9-3.2
		s-0.7-2.6-0.7-4.1s0.2-2.8,0.7-4.1c0.5-1.2,1.1-2.3,1.9-3.1c0.8-0.9,1.8-1.5,3-2s2.4-0.7,3.7-0.7c1.4,0,2.6,0.2,3.8,0.7
		c1.1,0.5,2.1,1.2,2.9,2c0.8,0.9,1.5,1.9,1.9,3.1C122.9,16.4,123.1,17.7,123.1,19.2z M117.6,19.2c0-1.7-0.3-3-1-3.9
		c-0.7-0.9-1.6-1.4-2.8-1.4c-1.2,0-2.2,0.5-2.8,1.4c-0.7,0.9-1,2.3-1,3.9s0.3,3,1,3.9c0.7,1,1.6,1.5,2.8,1.5c1.2,0,2.2-0.5,2.8-1.5
		C117.3,22.2,117.6,20.9,117.6,19.2z"/>
	<path id="XMLID_32_" fill="none" stroke="#999999" stroke-miterlimit="10" d="M138.7,14.5c-0.5-0.1-1-0.2-1.7-0.4
		c-0.6-0.1-1.3-0.2-2.1-0.2c-0.3,0-0.7,0-1.2,0.1c-0.5,0.1-0.8,0.1-1.1,0.2v14.5h-5.4V10.8c1-0.3,2.1-0.7,3.4-1
		c1.3-0.3,2.8-0.5,4.4-0.5c0.3,0,0.6,0,1,0.1s0.8,0.1,1.2,0.1c0.4,0.1,0.8,0.1,1.2,0.2s0.8,0.2,1,0.3L138.7,14.5z"/>
	<path id="XMLID_30_" fill="none" stroke="#999999" stroke-miterlimit="10" d="M162.5,14.5c-0.5-0.1-1-0.2-1.7-0.4
		c-0.6-0.1-1.3-0.2-2.1-0.2c-0.3,0-0.7,0-1.2,0.1c-0.5,0.1-0.8,0.1-1.1,0.2v14.5h-5.4V10.8c1-0.3,2.1-0.7,3.4-1
		c1.3-0.3,2.8-0.5,4.4-0.5c0.3,0,0.6,0,1,0.1s0.8,0.1,1.2,0.1c0.4,0.1,0.8,0.1,1.2,0.2s0.8,0.2,1,0.3L162.5,14.5z"/>
	<path id="XMLID_27_" fill="none" stroke="#999999" stroke-miterlimit="10" d="M165,19.4c0-1.7,0.3-3.1,0.8-4.4
		c0.5-1.3,1.2-2.3,2-3.1s1.8-1.5,2.9-1.9c1.1-0.4,2.2-0.6,3.4-0.6c2.7,0,4.8,0.8,6.4,2.5c1.6,1.6,2.3,4.1,2.3,7.3c0,0.3,0,0.7,0,1
		c0,0.4,0,0.7-0.1,1h-12.2c0.1,1.1,0.6,2,1.5,2.6c0.9,0.6,2.1,1,3.7,1c1,0,2-0.1,2.9-0.3c0.9-0.2,1.7-0.4,2.3-0.7l0.7,4.4
		c-0.3,0.1-0.7,0.3-1.2,0.4c-0.5,0.1-1,0.3-1.6,0.4c-0.6,0.1-1.2,0.2-1.9,0.3c-0.7,0.1-1.3,0.1-2,0.1c-1.7,0-3.2-0.3-4.4-0.8
		c-1.3-0.5-2.3-1.2-3.1-2.1c-0.8-0.9-1.4-1.9-1.8-3.1C165.2,22.1,165,20.8,165,19.4z M177.6,17.3c0-0.5-0.1-0.9-0.2-1.3
		c-0.1-0.4-0.3-0.8-0.6-1.2c-0.3-0.3-0.6-0.6-1-0.8c-0.4-0.2-0.9-0.3-1.6-0.3c-0.6,0-1.1,0.1-1.5,0.3c-0.4,0.2-0.8,0.5-1.1,0.8
		c-0.3,0.3-0.5,0.7-0.7,1.2s-0.3,0.9-0.3,1.3H177.6z"/>
	<path id="XMLID_25_" fill="none" stroke="#999999" stroke-miterlimit="10" d="M194.5,29.1c-1.6,0-2.8-0.2-3.8-0.5
		c-1-0.3-1.7-0.8-2.3-1.3c-0.6-0.6-0.9-1.2-1.2-2.1c-0.2-0.8-0.3-1.7-0.3-2.7V1.6l5.4-0.9v20.6c0,0.5,0,0.9,0.1,1.3s0.2,0.7,0.4,1
		c0.2,0.3,0.5,0.5,0.9,0.6s0.9,0.3,1.5,0.3L194.5,29.1z"/>
	<path id="XMLID_22_" fill="none" stroke="#999999" stroke-miterlimit="10" d="M205.7,9.3c1.6,0,2.9,0.2,4,0.5
		c1.1,0.4,1.9,0.9,2.5,1.5c0.6,0.7,1.1,1.5,1.3,2.4c0.3,1,0.4,2,0.4,3.2v11.2c-0.8,0.2-1.8,0.4-3.2,0.6c-1.4,0.2-3,0.3-5,0.3
		c-1.2,0-2.3-0.1-3.3-0.3c-1-0.2-1.9-0.6-2.6-1.1c-0.7-0.5-1.3-1.1-1.7-1.9s-0.6-1.8-0.6-2.9c0-1.1,0.2-2,0.7-2.8
		c0.4-0.8,1-1.4,1.8-1.8c0.7-0.5,1.6-0.8,2.6-1s2-0.3,3-0.3c0.7,0,1.3,0,1.9,0.1s1,0.1,1.3,0.2v-0.5c0-0.9-0.3-1.6-0.8-2.2
		c-0.6-0.6-1.5-0.8-2.9-0.8c-0.9,0-1.8,0.1-2.7,0.2c-0.9,0.1-1.7,0.3-2.3,0.6l-0.7-4.3c0.3-0.1,0.7-0.2,1.2-0.3
		c0.5-0.1,1-0.2,1.5-0.3s1.1-0.2,1.7-0.2C204.4,9.3,205,9.3,205.7,9.3z M206.1,25c0.5,0,1,0,1.5,0c0.5,0,0.9-0.1,1.2-0.1v-4.1
		c-0.2,0-0.5-0.1-1-0.1c-0.4,0-0.8-0.1-1.2-0.1c-0.5,0-1,0-1.4,0.1c-0.4,0.1-0.8,0.2-1.2,0.3c-0.3,0.2-0.6,0.4-0.8,0.7
		c-0.2,0.3-0.3,0.6-0.3,1.1c0,0.8,0.3,1.4,0.8,1.7C204.3,24.8,205.1,25,206.1,25z"/>
	<path id="XMLID_20_" fill="none" stroke="#999999" stroke-miterlimit="10" d="M218.6,5.1l5.4-0.9v5.6h6.4v4.5H224v6.7
		c0,1.1,0.2,2,0.6,2.7c0.4,0.7,1.2,1,2.4,1c0.6,0,1.2-0.1,1.8-0.2c0.6-0.1,1.2-0.3,1.7-0.5l0.8,4.2c-0.6,0.3-1.4,0.5-2.2,0.7
		c-0.8,0.2-1.8,0.3-2.9,0.3c-1.5,0-2.7-0.2-3.6-0.6c-1-0.4-1.7-0.9-2.3-1.7c-0.6-0.7-1-1.6-1.2-2.6c-0.2-1-0.3-2.1-0.3-3.3V5.1z"/>
	<path id="XMLID_17_" fill="none" stroke="#999999" stroke-miterlimit="10" d="M240.6,4.3c0,1-0.3,1.8-1,2.3
		c-0.6,0.6-1.4,0.8-2.3,0.8c-0.9,0-1.6-0.3-2.3-0.8c-0.6-0.6-1-1.3-1-2.3c0-1,0.3-1.8,1-2.3c0.6-0.6,1.4-0.8,2.3-0.8
		c0.9,0,1.6,0.3,2.3,0.8C240.3,2.5,240.6,3.3,240.6,4.3z M240.1,28.7h-5.4V9.8h5.4V28.7z"/>
	<path id="XMLID_14_" fill="none" stroke="#999999" stroke-miterlimit="10" d="M262.9,19.2c0,1.5-0.2,2.8-0.6,4.1s-1.1,2.3-1.9,3.2
		c-0.8,0.9-1.8,1.6-2.9,2c-1.1,0.5-2.4,0.7-3.8,0.7c-1.4,0-2.7-0.2-3.8-0.7c-1.1-0.5-2.1-1.2-2.9-2c-0.8-0.9-1.5-1.9-1.9-3.2
		s-0.7-2.6-0.7-4.1s0.2-2.8,0.7-4.1c0.5-1.2,1.1-2.3,1.9-3.1c0.8-0.9,1.8-1.5,3-2s2.4-0.7,3.7-0.7c1.4,0,2.6,0.2,3.8,0.7
		c1.1,0.5,2.1,1.2,2.9,2c0.8,0.9,1.5,1.9,1.9,3.1C262.6,16.4,262.9,17.7,262.9,19.2z M257.4,19.2c0-1.7-0.3-3-1-3.9
		c-0.7-0.9-1.6-1.4-2.8-1.4c-1.2,0-2.2,0.5-2.8,1.4c-0.7,0.9-1,2.3-1,3.9s0.3,3,1,3.9c0.7,1,1.6,1.5,2.8,1.5c1.2,0,2.2-0.5,2.8-1.5
		C257.1,22.2,257.4,20.9,257.4,19.2z"/>
	<path id="XMLID_12_" fill="none" stroke="#999999" stroke-miterlimit="10" d="M267,10.4c0.9-0.3,2.1-0.5,3.5-0.7
		c1.4-0.2,3-0.3,4.5-0.3c1.6,0,2.9,0.2,4,0.6c1.1,0.4,1.9,1,2.5,1.8c0.6,0.8,1.1,1.7,1.3,2.7s0.4,2.2,0.4,3.5v10.7H278v-10
		c0-1.7-0.2-3-0.7-3.7c-0.5-0.7-1.3-1.1-2.6-1.1c-0.4,0-0.8,0-1.2,0.1c-0.4,0-0.8,0.1-1.2,0.1v14.6H267V10.4z"/>
	<path id="XMLID_8_" fill="none" stroke="#999999" stroke-miterlimit="10" d="M305.1,0.8c1,0,1.8,0.1,2.5,0.3
		c0.7,0.2,1.2,0.3,1.7,0.5l-0.9,4.2c-0.4-0.2-0.8-0.3-1.3-0.4c-0.5-0.1-0.9-0.1-1.4-0.1c-0.6,0-1.2,0.1-1.6,0.3s-0.8,0.4-1,0.7
		c-0.3,0.3-0.4,0.7-0.5,1.1c-0.1,0.4-0.2,0.9-0.2,1.4v0.9h6.6v4.5h-6.6v14.5h-5.4V8.8c0-2.4,0.7-4.4,2.1-5.8
		C300.3,1.5,302.3,0.8,305.1,0.8z M317.8,4.3c0,1-0.3,1.8-1,2.3c-0.6,0.6-1.4,0.8-2.3,0.8c-0.9,0-1.6-0.3-2.3-0.8
		c-0.6-0.6-1-1.3-1-2.3c0-1,0.3-1.8,1-2.3c0.6-0.6,1.4-0.8,2.3-0.8c0.9,0,1.6,0.3,2.3,0.8C317.5,2.5,317.8,3.3,317.8,4.3z
		 M317.3,28.7h-5.4V9.8h5.4V28.7z"/>
	<path id="XMLID_6_" fill="none" stroke="#999999" stroke-miterlimit="10" d="M329.9,29.1c-1.6,0-2.8-0.2-3.8-0.5
		c-1-0.3-1.7-0.8-2.3-1.3c-0.6-0.6-0.9-1.2-1.2-2.1c-0.2-0.8-0.3-1.7-0.3-2.7V1.6l5.4-0.9v20.6c0,0.5,0,0.9,0.1,1.3s0.2,0.7,0.4,1
		c0.2,0.3,0.5,0.5,0.9,0.6s0.9,0.3,1.5,0.3L329.9,29.1z"/>
	<path id="XMLID_4_" fill="none" stroke="#999999" stroke-miterlimit="10" d="M344.1,18.7c0-1.7-0.2-3-0.7-3.7s-1.2-1.1-2.3-1.1
		c-0.3,0-0.7,0-1,0.1c-0.4,0-0.7,0.1-1,0.1v14.6h-5.4V10.4c0.5-0.1,1-0.2,1.6-0.4s1.3-0.3,1.9-0.4c0.7-0.1,1.4-0.2,2.1-0.3
		c0.7-0.1,1.4-0.1,2.1-0.1c1.4,0,2.5,0.2,3.3,0.5c0.9,0.3,1.6,0.8,2.1,1.2c0.8-0.6,1.6-1,2.6-1.3c1-0.3,1.9-0.5,2.8-0.5
		c1.5,0,2.8,0.2,3.7,0.6c1,0.4,1.7,1,2.3,1.8c0.6,0.8,1,1.7,1.2,2.7s0.3,2.2,0.3,3.5v10.7h-5.4v-10c0-1.7-0.2-3-0.7-3.7
		c-0.4-0.7-1.2-1.1-2.3-1.1c-0.3,0-0.7,0.1-1.2,0.2c-0.5,0.1-0.9,0.3-1.3,0.5c0.2,0.6,0.3,1.1,0.3,1.7s0.1,1.3,0.1,2v10.3h-5.4V18.7
		z"/>
	<path id="XMLID_2_" fill="none" stroke="#999999" stroke-miterlimit="10" d="M370.2,24.9c1,0,1.7-0.1,2.1-0.3s0.6-0.6,0.6-1.1
		c0-0.4-0.3-0.8-0.8-1.1c-0.5-0.3-1.3-0.7-2.4-1.1c-0.8-0.3-1.6-0.6-2.3-1s-1.3-0.7-1.7-1.2c-0.5-0.5-0.9-1-1.1-1.7
		c-0.3-0.6-0.4-1.4-0.4-2.3c0-1.8,0.7-3.2,2-4.2s3.1-1.5,5.4-1.5c1.2,0,2.3,0.1,3.3,0.3s1.9,0.4,2.5,0.7l-0.9,4.2
		c-0.6-0.2-1.3-0.4-2-0.6c-0.7-0.2-1.6-0.3-2.5-0.3c-1.7,0-2.5,0.5-2.5,1.4c0,0.2,0,0.4,0.1,0.6c0.1,0.2,0.2,0.3,0.4,0.5
		c0.2,0.2,0.5,0.3,0.9,0.5s0.8,0.4,1.4,0.6c1.2,0.4,2.1,0.9,2.9,1.3c0.8,0.4,1.4,0.9,1.8,1.4c0.4,0.5,0.8,1,0.9,1.6s0.3,1.3,0.3,2.1
		c0,1.9-0.7,3.3-2.1,4.2c-1.4,1-3.4,1.4-6,1.4c-1.7,0-3.1-0.1-4.2-0.4c-1.1-0.3-1.9-0.5-2.3-0.7l0.9-4.4c0.9,0.4,1.8,0.6,2.8,0.8
		C368.3,24.8,369.2,24.9,370.2,24.9z"/>
</g>
</svg>
