<svg xmlns="http://www.w3.org/2000/svg" xmlns:xlink="http://www.w3.org/1999/xlink" viewBox="0 0 193.87 28.96"><defs><style>.cls-1{fill:none;}.cls-2{clip-path:url(#clip-path);}.cls-3{fill:url(#linear-gradient);}</style><clipPath id="clip-path"><path class="cls-1" d="M3.07,2.07a17.5,17.5,0,1,0,31.79,0Z"/></clipPath><linearGradient id="linear-gradient" x1="-541.68" y1="2382.81" x2="-541.51" y2="2382.81" gradientTransform="matrix(202.36, 0, 0, -202.36, 109614.45, 482191.57)" gradientUnits="userSpaceOnUse"><stop offset="0" stop-color="#ff0042"/><stop offset="0.11" stop-color="#f2004e"/><stop offset="0.3" stop-color="#d1006d"/><stop offset="0.57" stop-color="#9b00a0"/><stop offset="0.88" stop-color="#5100e5"/><stop offset="0.99" stop-color="#3600ff"/><stop offset="1" stop-color="#3600ff"/></linearGradient></defs><title>Asset 1</title><g id="Layer_2" data-name="Layer 2"><g id="Layer_1-2" data-name="Layer 1"><path d="M50.82,7.06a9.48,9.48,0,0,1,5.4,1.3,4.56,4.56,0,0,1,1.88,4,4.63,4.63,0,0,1-.76,2.77,5,5,0,0,1-2.18,1.67c.32.4.65.86,1,1.39s.69,1.06,1,1.63.67,1.16,1,1.78.61,1.21.88,1.81H55.11l-.88-1.62c-.29-.54-.59-1.07-.9-1.58s-.62-1-.92-1.46a15,15,0,0,0-.91-1.25H49.76v5.91H46.24V7.49a18.19,18.19,0,0,1,2.38-.33c.82-.06,1.56-.1,2.2-.1M51,10.17l-.69,0-.58.05v4.39h1a5.85,5.85,0,0,0,2.84-.51,1.86,1.86,0,0,0,.86-1.75,1.81,1.81,0,0,0-.87-1.7,5.27,5.27,0,0,0-2.56-.5"/><path d="M58.82,17.39a7.58,7.58,0,0,1,.49-2.86,6.26,6.26,0,0,1,1.27-2,5.57,5.57,0,0,1,3.93-1.66,5.18,5.18,0,0,1,4,1.6A6.75,6.75,0,0,1,70,17.13c0,.2,0,.42,0,.67s0,.45,0,.64H62.28a2.32,2.32,0,0,0,1,1.7,3.8,3.8,0,0,0,2.3.63,9.13,9.13,0,0,0,1.82-.17,7,7,0,0,0,1.46-.43L69.28,23a3.74,3.74,0,0,1-.72.28,7.85,7.85,0,0,1-1,.25c-.37.07-.76.13-1.18.17a10.81,10.81,0,0,1-1.27.07,7.21,7.21,0,0,1-2.79-.49,5.3,5.3,0,0,1-2-1.34,5.4,5.4,0,0,1-1.16-2,8.53,8.53,0,0,1-.37-2.52m7.91-1.33a4.17,4.17,0,0,0-.15-.87,2.21,2.21,0,0,0-.38-.75,2.17,2.17,0,0,0-.66-.53,2.42,2.42,0,0,0-2,0,2,2,0,0,0-.68.52,2.44,2.44,0,0,0-.42.76,4.51,4.51,0,0,0-.21.88Z"/><path d="M81.93,23c-.3.09-.65.18-1,.27s-.8.16-1.23.22-.86.11-1.31.15-.87.06-1.27.06a7.44,7.44,0,0,1-2.63-.44A5.3,5.3,0,0,1,72.51,22a5.49,5.49,0,0,1-1.21-2,7.84,7.84,0,0,1-.41-2.65,9.36,9.36,0,0,1,.36-2.69,5.74,5.74,0,0,1,1-2.05A4.35,4.35,0,0,1,74,11.34a5.78,5.78,0,0,1,3.5-.31,7.54,7.54,0,0,1,1.12.4V5.87l3.36-.56ZM74.32,17.2a4.34,4.34,0,0,0,.7,2.59,2.38,2.38,0,0,0,2.08,1c.3,0,.58,0,.83,0l.64-.08V14.33a2.92,2.92,0,0,0-.83-.35,3.6,3.6,0,0,0-1-.14c-1.59,0-2.39,1.12-2.39,3.36"/><path d="M95.37,20.66a5.29,5.29,0,0,0,1.24-.13,2.35,2.35,0,0,0,.78-.35,1.19,1.19,0,0,0,.4-.53A1.81,1.81,0,0,0,97.9,19a1.58,1.58,0,0,0-.72-1.32,10.33,10.33,0,0,0-2.48-1.14,15.66,15.66,0,0,1-1.54-.64A5.6,5.6,0,0,1,91.78,15a4.4,4.4,0,0,1-1-1.33,4.23,4.23,0,0,1-.39-1.9,4.86,4.86,0,0,1,.41-2A4.35,4.35,0,0,1,92,8.19a5.15,5.15,0,0,1,1.81-1,7.77,7.77,0,0,1,2.4-.34,9.24,9.24,0,0,1,2.73.35,9.44,9.44,0,0,1,1.9.77l-1,2.87a9.86,9.86,0,0,0-1.46-.62A6.07,6.07,0,0,0,96.39,10a3.37,3.37,0,0,0-1.82.37A1.23,1.23,0,0,0,94,11.46a1.34,1.34,0,0,0,.2.74,1.92,1.92,0,0,0,.58.55,5.73,5.73,0,0,0,.86.45c.32.13.68.26,1.07.4.81.32,1.52.62,2.12.93a5.41,5.41,0,0,1,1.51,1.06,4,4,0,0,1,.89,1.42,6.1,6.1,0,0,1,.29,2A4.27,4.27,0,0,1,100,22.51a7.22,7.22,0,0,1-4.64,1.25,11.84,11.84,0,0,1-1.87-.13A11.55,11.55,0,0,1,92,23.32a9.23,9.23,0,0,1-1.11-.4q-.47-.21-.78-.39l1-2.9a8.7,8.7,0,0,0,1.73.71,8.61,8.61,0,0,0,2.51.32"/><path d="M113,23a17.19,17.19,0,0,1-2.21.47,17.5,17.5,0,0,1-2.85.23,6.57,6.57,0,0,1-2.52-.42,3.86,3.86,0,0,1-1.59-1.18,4.8,4.8,0,0,1-.84-1.81,10.38,10.38,0,0,1-.25-2.32V11.15h3.37v6.42a5.06,5.06,0,0,0,.43,2.43,1.69,1.69,0,0,0,1.6.75l.77,0,.72-.09V11.15H113Z"/><path d="M126.12,17.29A8,8,0,0,1,125.7,20a5.66,5.66,0,0,1-1.21,2,5.16,5.16,0,0,1-1.94,1.29,7,7,0,0,1-2.62.46c-.41,0-.83,0-1.28-.06s-.88-.09-1.31-.15-.84-.14-1.23-.22-.74-.18-1-.27V5.87l3.37-.56v6.12a6.18,6.18,0,0,1,1.17-.39,5.53,5.53,0,0,1,1.31-.15,5.27,5.27,0,0,1,2.24.46,4.4,4.4,0,0,1,1.63,1.3,5.87,5.87,0,0,1,1,2,9.29,9.29,0,0,1,.34,2.62m-3.43-.09q0-3.36-2.4-3.36a3.65,3.65,0,0,0-1,.14,2.73,2.73,0,0,0-.82.35v6.33a6.26,6.26,0,0,0,.63.08q.39,0,.84,0a2.38,2.38,0,0,0,2.08-1,4.41,4.41,0,0,0,.7-2.59"/><path d="M134.12,16.92a4.92,4.92,0,0,0-.42-2.38,1.54,1.54,0,0,0-1.44-.7l-.65,0L131,14v9.49h-3.36V11.57c.28-.08.62-.16,1-.24s.79-.17,1.22-.24.87-.12,1.33-.16.89-.06,1.33-.06a5.37,5.37,0,0,1,2.09.34,4.7,4.7,0,0,1,1.32.81,5.52,5.52,0,0,1,1.66-.84,5.42,5.42,0,0,1,1.73-.31,5.81,5.81,0,0,1,2.34.41,3.48,3.48,0,0,1,1.45,1.16,4.5,4.5,0,0,1,.75,1.77,12.36,12.36,0,0,1,.2,2.29v6.94h-3.36V16.92a4.92,4.92,0,0,0-.42-2.38,1.54,1.54,0,0,0-1.44-.7A2.62,2.62,0,0,0,138,14a2.9,2.9,0,0,0-.81.35,5.14,5.14,0,0,1,.21,1.13c0,.4,0,.82,0,1.27v6.71h-3.36Z"/><path d="M150.2,10.82a7.41,7.41,0,0,1,2.49.36,3.59,3.59,0,0,1,2.44,2.59,8.29,8.29,0,0,1,.25,2.08v7.24c-.49.1-1.16.23-2,.38a18.33,18.33,0,0,1-3.11.22,9.54,9.54,0,0,1-2.09-.21,4.41,4.41,0,0,1-1.62-.69,3.1,3.1,0,0,1-1-1.25,4.43,4.43,0,0,1-.36-1.89,3.68,3.68,0,0,1,.42-1.82,3.28,3.28,0,0,1,1.12-1.19,4.75,4.75,0,0,1,1.6-.64,8.88,8.88,0,0,1,1.88-.2,10.06,10.06,0,0,1,1.16.06,5.32,5.32,0,0,1,.82.15v-.33a2,2,0,0,0-.51-1.42,2.46,2.46,0,0,0-1.81-.54,10.72,10.72,0,0,0-1.7.13,7,7,0,0,0-1.44.36l-.43-2.8.73-.2c.3-.07.62-.13,1-.19l1.1-.14a11.12,11.12,0,0,1,1.16-.06M150.47,21c.33,0,.65,0,.95,0a4.15,4.15,0,0,0,.72-.07V18.27a5.6,5.6,0,0,0-.61-.09,6.73,6.73,0,0,0-.74-.05,6.23,6.23,0,0,0-.89.06,2.57,2.57,0,0,0-.74.22,1.25,1.25,0,0,0-.49.45,1.43,1.43,0,0,0,.35,1.83,2.83,2.83,0,0,0,1.45.32"/><path d="M164.46,14.23c-.31-.07-.66-.16-1.07-.24a6,6,0,0,0-1.31-.13,5.6,5.6,0,0,0-.75.06,4,4,0,0,0-.67.13v9.39H157.3V11.81a18.1,18.1,0,0,1,2.13-.62,11.62,11.62,0,0,1,2.74-.3c.19,0,.4,0,.66,0s.51.05.77.09l.77.14a3.87,3.87,0,0,1,.65.2Z"/><path d="M169.38,7.6a2,2,0,0,1-.6,1.51,2.08,2.08,0,0,1-2.82,0,2,2,0,0,1-.6-1.51,1.91,1.91,0,0,1,.6-1.5,2.08,2.08,0,0,1,2.82,0,1.91,1.91,0,0,1,.6,1.5m-.32,15.84H165.7V11.15h3.36Z"/><path d="M171.1,11.57a18.84,18.84,0,0,1,2.21-.48,18.61,18.61,0,0,1,2.85-.22,6.78,6.78,0,0,1,2.52.41,3.74,3.74,0,0,1,1.59,1.16,4.61,4.61,0,0,1,.84,1.77,10.13,10.13,0,0,1,.24,2.29v6.94H178V16.92a4.9,4.9,0,0,0-.43-2.38,1.73,1.73,0,0,0-1.61-.7l-.76,0-.73.08v9.49H171.1Z"/><path d="M182.71,17.39a7.79,7.79,0,0,1,.48-2.86,6.28,6.28,0,0,1,1.28-2,5.33,5.33,0,0,1,1.82-1.23,5.53,5.53,0,0,1,2.11-.43,5.18,5.18,0,0,1,4,1.6,6.75,6.75,0,0,1,1.47,4.71c0,.2,0,.42,0,.67s0,.45,0,.64h-7.63a2.29,2.29,0,0,0,1,1.7,3.8,3.8,0,0,0,2.3.63,9.2,9.2,0,0,0,1.82-.17,7.16,7.16,0,0,0,1.46-.43l.45,2.82a3.74,3.74,0,0,1-.72.28,8.29,8.29,0,0,1-1,.25c-.37.07-.76.13-1.19.17a10.64,10.64,0,0,1-1.26.07,7.21,7.21,0,0,1-2.79-.49,5.21,5.21,0,0,1-3.12-3.36,8.21,8.21,0,0,1-.37-2.52m7.91-1.33a4.17,4.17,0,0,0-.15-.87,2.07,2.07,0,0,0-.39-.75,2.13,2.13,0,0,0-.65-.53,2.42,2.42,0,0,0-2,0,1.87,1.87,0,0,0-.68.52,2.44,2.44,0,0,0-.42.76,4.51,4.51,0,0,0-.21.88Z"/><g class="cls-2"><rect class="cls-3" x="5.54" y="-3.72" width="26.85" height="36.4" transform="translate(3.39 32.55) rotate(-86.6)"/></g></g></g></svg>