<svg xmlns="http://www.w3.org/2000/svg" viewBox="0 0 18.54 15.05"><defs><style>.cls-1{fill:#d60f1e;}</style></defs><title>phone-icon</title><g id="Layer_2" data-name="Layer 2"><g id="Layer_1-2" data-name="Layer 1"><path class="cls-1" d="M17.87,9.63,15.37,8a1.5,1.5,0,0,0-2.07.43l-.75,1.14A1.13,1.13,0,0,1,11,9.89L6.06,6.65a1.14,1.14,0,0,1-.33-1.57L6.48,4a1.5,1.5,0,0,0-.43-2.07L3.55.24A1.51,1.51,0,0,0,1.48.67l-.6.91A5.4,5.4,0,0,0,2.43,9l7.81,5.12a5.38,5.38,0,0,0,7.46-1.55l.6-.91A1.5,1.5,0,0,0,17.87,9.63ZM2.31,1.22A.5.5,0,0,1,3,1.08L5.5,2.71a.49.49,0,0,1,.14.69l-.27.42L2,1.63Zm8.48,12.11L3,8.21A4.38,4.38,0,0,1,1.51,2.48L4.83,4.65a2.14,2.14,0,0,0,.68,2.84l4.93,3.23h0a2.13,2.13,0,0,0,2.87-.5l3.32,2.18A4.37,4.37,0,0,1,10.79,13.33Zm6.68-2.17-.28.41L13.86,9.39,14.13,9a.5.5,0,0,1,.69-.14l2.5,1.64A.5.5,0,0,1,17.47,11.16Z"/></g></g></svg>