<?xml version="1.0" encoding="utf-8"?>
<!-- Generator: Adobe Illustrator 19.0.0, SVG Export Plug-In . SVG Version: 6.00 Build 0)  -->
<svg version="1.2" baseProfile="tiny" id="Layer_1" xmlns="http://www.w3.org/2000/svg" xmlns:xlink="http://www.w3.org/1999/xlink"
	 x="0px" y="0px" viewBox="0 0 126 30" xml:space="preserve">
<g id="XMLID_40_">
	<path id="XMLID_14_" fill="none" stroke="#999999" stroke-miterlimit="10" d="M18.2,11.9c0,1.5-0.2,2.8-0.5,4s-0.9,2.2-1.6,3.1
		s-1.6,1.5-2.6,2c-1,0.5-2.2,0.7-3.6,0.7c-0.7,0-1.4-0.1-2.1-0.2c-0.6-0.1-1.3-0.3-1.9-0.6v7.1H0.6V3.1c0.5-0.1,1-0.3,1.7-0.4
		c0.6-0.1,1.3-0.2,2-0.3c0.7-0.1,1.4-0.2,2.1-0.2C7,2.1,7.7,2,8.4,2c1.6,0,3,0.2,4.2,0.7c1.2,0.5,2.3,1.1,3.1,2
		c0.8,0.9,1.5,1.9,1.9,3.1C18,9,18.2,10.4,18.2,11.9z M12.7,12.1c0-1.7-0.4-3-1.1-4c-0.7-1-1.8-1.5-3.3-1.5c-0.5,0-0.9,0-1.3,0.1
		S6.2,6.7,6,6.8v9.7c0.3,0.2,0.8,0.4,1.3,0.5c0.5,0.1,1.1,0.2,1.6,0.2C11.5,17.2,12.7,15.5,12.7,12.1z"/>
	<path id="XMLID_12_" fill="none" stroke="#999999" stroke-miterlimit="10" d="M33.8,7.2c-0.5-0.1-1-0.2-1.7-0.4
		c-0.6-0.1-1.3-0.2-2.1-0.2c-0.3,0-0.7,0-1.2,0.1c-0.5,0.1-0.8,0.1-1.1,0.2v14.5h-5.4V3.5c1-0.3,2.1-0.7,3.4-1
		c1.3-0.3,2.8-0.5,4.4-0.5c0.3,0,0.6,0,1,0.1s0.8,0.1,1.2,0.1c0.4,0.1,0.8,0.1,1.2,0.2s0.8,0.2,1,0.3L33.8,7.2z"/>
	<path id="XMLID_9_" fill="none" stroke="#999999" stroke-miterlimit="10" d="M54.9,11.9c0,1.5-0.2,2.8-0.6,4.1s-1.1,2.3-1.9,3.2
		c-0.8,0.9-1.8,1.6-2.9,2c-1.1,0.5-2.4,0.7-3.8,0.7c-1.4,0-2.7-0.2-3.8-0.7c-1.1-0.5-2.1-1.2-2.9-2c-0.8-0.9-1.5-1.9-1.9-3.2
		s-0.7-2.6-0.7-4.1S36.5,9,37,7.8c0.5-1.2,1.1-2.3,1.9-3.1c0.8-0.9,1.8-1.5,3-2c1.1-0.5,2.4-0.7,3.7-0.7c1.4,0,2.6,0.2,3.8,0.7
		c1.1,0.5,2.1,1.2,2.9,2c0.8,0.9,1.5,1.9,1.9,3.1C54.7,9,54.9,10.4,54.9,11.9z M49.4,11.9c0-1.7-0.3-3-1-3.9
		c-0.7-0.9-1.6-1.4-2.8-1.4c-1.2,0-2.2,0.5-2.8,1.4c-0.7,0.9-1,2.3-1,3.9s0.3,3,1,3.9c0.7,1,1.6,1.5,2.8,1.5c1.2,0,2.2-0.5,2.8-1.5
		C49.1,14.9,49.4,13.5,49.4,11.9z"/>
	<path id="XMLID_7_" fill="none" stroke="#999999" stroke-miterlimit="10" d="M69.4,11.3c0-1.7-0.2-3-0.7-3.7s-1.2-1.1-2.3-1.1
		c-0.3,0-0.7,0-1,0.1c-0.4,0-0.7,0.1-1,0.1v14.6H59V3.1c0.5-0.1,1-0.2,1.6-0.4s1.3-0.3,1.9-0.4c0.7-0.1,1.4-0.2,2.1-0.3
		C65.4,2.1,66.1,2,66.8,2c1.4,0,2.5,0.2,3.3,0.5c0.9,0.3,1.6,0.8,2.1,1.2c0.8-0.6,1.6-1,2.6-1.3c1-0.3,1.9-0.5,2.8-0.5
		c1.5,0,2.8,0.2,3.7,0.6c1,0.4,1.7,1,2.3,1.8c0.6,0.8,1,1.7,1.2,2.7s0.3,2.2,0.3,3.5v10.7h-5.4v-10c0-1.7-0.2-3-0.7-3.7
		C78.7,7,78,6.6,76.9,6.6c-0.3,0-0.7,0.1-1.2,0.2c-0.5,0.1-0.9,0.3-1.3,0.5c0.2,0.6,0.3,1.1,0.3,1.7c0,0.6,0.1,1.3,0.1,2v10.3h-5.4
		V11.3z"/>
	<path id="XMLID_4_" fill="none" stroke="#999999" stroke-miterlimit="10" d="M107.8,11.9c0,1.5-0.2,2.8-0.6,4.1s-1.1,2.3-1.9,3.2
		c-0.8,0.9-1.8,1.6-2.9,2c-1.1,0.5-2.4,0.7-3.8,0.7c-1.4,0-2.7-0.2-3.8-0.7c-1.1-0.5-2.1-1.2-2.9-2c-0.8-0.9-1.5-1.9-1.9-3.2
		s-0.7-2.6-0.7-4.1s0.2-2.8,0.7-4.1c0.5-1.2,1.1-2.3,1.9-3.1c0.8-0.9,1.8-1.5,3-2c1.1-0.5,2.4-0.7,3.7-0.7c1.4,0,2.6,0.2,3.8,0.7
		c1.1,0.5,2.1,1.2,2.9,2c0.8,0.9,1.5,1.9,1.9,3.1C107.6,9,107.8,10.4,107.8,11.9z M102.3,11.9c0-1.7-0.3-3-1-3.9
		c-0.7-0.9-1.6-1.4-2.8-1.4c-1.2,0-2.2,0.5-2.8,1.4c-0.7,0.9-1,2.3-1,3.9s0.3,3,1,3.9c0.7,1,1.6,1.5,2.8,1.5c1.2,0,2.2-0.5,2.8-1.5
		C102,14.9,102.3,13.5,102.3,11.9z"/>
	<path id="XMLID_2_" fill="none" stroke="#999999" stroke-miterlimit="10" d="M117.4,17.5c1,0,1.7-0.1,2.1-0.3s0.6-0.6,0.6-1.1
		c0-0.4-0.3-0.8-0.8-1.1c-0.5-0.3-1.3-0.7-2.4-1.1c-0.8-0.3-1.6-0.6-2.3-1s-1.3-0.7-1.7-1.2c-0.5-0.5-0.9-1-1.1-1.7
		c-0.3-0.6-0.4-1.4-0.4-2.3c0-1.8,0.7-3.2,2-4.2s3.1-1.5,5.4-1.5c1.2,0,2.3,0.1,3.3,0.3s1.9,0.4,2.5,0.7l-0.9,4.2
		c-0.6-0.2-1.3-0.4-2-0.6c-0.7-0.2-1.6-0.3-2.5-0.3c-1.7,0-2.5,0.5-2.5,1.4c0,0.2,0,0.4,0.1,0.6c0.1,0.2,0.2,0.3,0.4,0.5
		c0.2,0.2,0.5,0.3,0.9,0.5s0.8,0.4,1.4,0.6c1.2,0.4,2.1,0.9,2.9,1.3c0.8,0.4,1.4,0.9,1.8,1.4c0.4,0.5,0.8,1,0.9,1.6s0.3,1.3,0.3,2.1
		c0,1.9-0.7,3.3-2.1,4.2c-1.4,1-3.4,1.4-6,1.4c-1.7,0-3.1-0.1-4.2-0.4c-1.1-0.3-1.9-0.5-2.3-0.7l0.9-4.4c0.9,0.4,1.8,0.6,2.8,0.8
		C115.5,17.4,116.4,17.5,117.4,17.5z"/>
</g>
</svg>
