<?xml version="1.0" encoding="utf-8"?>
<!-- Generator: Adobe Illustrator 19.0.0, SVG Export Plug-In . SVG Version: 6.00 Build 0)  -->
<svg version="1.1" id="Layer_1" xmlns="http://www.w3.org/2000/svg" xmlns:xlink="http://www.w3.org/1999/xlink" x="0px" y="0px"
	 viewBox="0 0 126 30" width="126" height="30" enable-background="new 0 0 126 30" xml:space="preserve">
<g id="XMLID_40_" opacity="0.85">
	<g id="XMLID_377_">
		<linearGradient id="XMLID_2_" gradientUnits="userSpaceOnUse" x1="-5.4605" y1="12.2211" x2="126.2062" y2="47.2211">
			<stop  offset="0" style="stop-color:#FF0042"/>
			<stop  offset="0.1069" style="stop-color:#F2004E"/>
			<stop  offset="0.3031" style="stop-color:#D1006D"/>
			<stop  offset="0.5666" style="stop-color:#9B00A0"/>
			<stop  offset="0.884" style="stop-color:#5100E5"/>
			<stop  offset="0.9944" style="stop-color:#3600FF"/>
			<stop  offset="1" style="stop-color:#3600FF"/>
		</linearGradient>
		<path id="XMLID_379_" fill="url(#XMLID_2_)" d="M18,7.6c-0.5-1.3-1.2-2.4-2-3.3c-0.9-0.9-2-1.6-3.3-2.1c-1.8-0.7-3.9-0.9-6.4-0.7
			C5.6,1.7,4.9,1.8,4.2,1.9c-0.7,0.1-1.4,0.2-2,0.3C1.5,2.3,1,2.5,0.5,2.6L0.1,2.7v25.8h6.4v-6.9c0.4,0.1,0.8,0.3,1.3,0.4
			c0.7,0.1,1.4,0.2,2.2,0.2c1.4,0,2.7-0.3,3.8-0.8c1.1-0.5,2-1.2,2.8-2.1c0.7-0.9,1.3-2,1.7-3.3c0.4-1.2,0.6-2.6,0.6-4.1
			C18.7,10.4,18.5,8.9,18,7.6z M11.2,8.4c0.7,0.9,1,2.1,1,3.7c0,4.2-1.9,4.6-3.3,4.6c-0.5,0-1-0.1-1.5-0.2c-0.4-0.1-0.7-0.2-0.9-0.3
			v-9c0.2,0,0.3,0,0.5-0.1c0.4,0,0.8-0.1,1.3-0.1C9.6,7.1,10.6,7.5,11.2,8.4z"/>
	</g>
	<g id="XMLID_372_">
		<linearGradient id="XMLID_3_" gradientUnits="userSpaceOnUse" x1="-3.1933" y1="3.6922" x2="128.4734" y2="38.6922">
			<stop  offset="0" style="stop-color:#FF0042"/>
			<stop  offset="0.1069" style="stop-color:#F2004E"/>
			<stop  offset="0.3031" style="stop-color:#D1006D"/>
			<stop  offset="0.5666" style="stop-color:#9B00A0"/>
			<stop  offset="0.884" style="stop-color:#5100E5"/>
			<stop  offset="0.9944" style="stop-color:#3600FF"/>
			<stop  offset="1" style="stop-color:#3600FF"/>
		</linearGradient>
		<path id="XMLID_376_" fill="url(#XMLID_3_)" d="M35.2,2.5l-1.1,5.3l-0.5-0.1c-0.5-0.1-1-0.2-1.7-0.4c-0.6-0.1-1.3-0.2-2-0.2
			c-0.3,0-0.7,0-1.1,0.1c-0.2,0-0.5,0.1-0.6,0.1v14.6h-6.4V3.1L22.2,3c1-0.3,2.1-0.7,3.5-1c1.3-0.3,2.8-0.5,4.5-0.5
			c0.3,0,0.7,0,1.1,0c0.4,0,0.8,0.1,1.3,0.2c0.4,0.1,0.8,0.1,1.3,0.2c0.4,0.1,0.8,0.2,1.1,0.3L35.2,2.5z"/>
	</g>
	<g id="XMLID_344_">
		<linearGradient id="XMLID_4_" gradientUnits="userSpaceOnUse" x1="-2.0165" y1="-0.7346" x2="129.6501" y2="34.2654">
			<stop  offset="0" style="stop-color:#FF0042"/>
			<stop  offset="0.1069" style="stop-color:#F2004E"/>
			<stop  offset="0.3031" style="stop-color:#D1006D"/>
			<stop  offset="0.5666" style="stop-color:#9B00A0"/>
			<stop  offset="0.884" style="stop-color:#5100E5"/>
			<stop  offset="0.9944" style="stop-color:#3600FF"/>
			<stop  offset="1" style="stop-color:#3600FF"/>
		</linearGradient>
		<path id="XMLID_347_" fill="url(#XMLID_4_)" d="M54.7,7.6c-0.5-1.3-1.1-2.4-2-3.3c-0.9-0.9-1.9-1.6-3.1-2.1c-2.4-1-5.5-1-7.9,0
			c-1.2,0.5-2.3,1.2-3.1,2.1c-0.9,0.9-1.6,2-2,3.3c-0.5,1.3-0.7,2.7-0.7,4.2c0,1.6,0.2,3,0.7,4.3c0.5,1.3,1.2,2.4,2,3.3
			s1.9,1.6,3.1,2.1c1.2,0.5,2.5,0.8,4,0.8c1.5,0,2.8-0.3,4-0.8c1.2-0.5,2.2-1.2,3.1-2.1c0.9-0.9,1.5-2.1,2-3.3
			c0.4-1.3,0.7-2.7,0.7-4.3C55.4,10.4,55.2,8.9,54.7,7.6z M45.6,16.8c-1.1,0-1.9-0.4-2.4-1.3c-0.6-0.9-0.9-2.1-0.9-3.7
			c0-1.5,0.3-2.8,0.9-3.6c0.6-0.8,1.4-1.2,2.4-1.2s1.9,0.4,2.4,1.2c0.6,0.9,0.9,2.1,0.9,3.6c0,1.6-0.3,2.8-0.9,3.7
			C47.5,16.4,46.7,16.8,45.6,16.8z"/>
	</g>
	<g id="XMLID_277_">
		<linearGradient id="XMLID_5_" gradientUnits="userSpaceOnUse" x1="-0.4223" y1="-6.7318" x2="131.2443" y2="28.2682">
			<stop  offset="0" style="stop-color:#FF0042"/>
			<stop  offset="0.1069" style="stop-color:#F2004E"/>
			<stop  offset="0.3031" style="stop-color:#D1006D"/>
			<stop  offset="0.5666" style="stop-color:#9B00A0"/>
			<stop  offset="0.884" style="stop-color:#5100E5"/>
			<stop  offset="0.9944" style="stop-color:#3600FF"/>
			<stop  offset="1" style="stop-color:#3600FF"/>
		</linearGradient>
		<path id="XMLID_339_" fill="url(#XMLID_5_)" d="M85.7,10.7v11.2h-6.4V11.3c0-1.6-0.2-2.8-0.6-3.4c-0.3-0.6-1-0.9-1.9-0.9
			c-0.2,0-0.5,0-1.1,0.2c-0.3,0.1-0.6,0.2-0.8,0.3c0.1,0.5,0.2,1,0.2,1.5c0.1,0.6,0.1,1.3,0.1,2v10.8h-6.4V11.3
			c0-1.6-0.2-2.8-0.6-3.4c-0.3-0.6-1-0.9-1.9-0.9c-0.3,0-0.6,0-1,0.1c-0.2,0-0.4,0.1-0.6,0.1v14.7h-6.4V2.7l0.4-0.1
			c0.5-0.1,1-0.3,1.6-0.4c0.6-0.1,1.3-0.3,2-0.4c0.7-0.1,1.4-0.2,2.2-0.3c0.7-0.1,1.5-0.1,2.2-0.1c1.4,0,2.6,0.2,3.5,0.6
			c0.8,0.3,1.4,0.7,1.9,1.1C73,2.7,73.8,2.3,74.7,2c1-0.3,2-0.5,2.9-0.5c1.6,0,2.9,0.2,3.9,0.7c1,0.5,1.9,1.1,2.5,1.9
			c0.6,0.8,1,1.8,1.3,2.9C85.6,8.1,85.7,9.4,85.7,10.7z"/>
	</g>
	<g id="XMLID_146_">
		<linearGradient id="XMLID_6_" gradientUnits="userSpaceOnUse" x1="1.4736" y1="-13.8642" x2="133.1403" y2="21.1358">
			<stop  offset="0" style="stop-color:#FF0042"/>
			<stop  offset="0.1069" style="stop-color:#F2004E"/>
			<stop  offset="0.3031" style="stop-color:#D1006D"/>
			<stop  offset="0.5666" style="stop-color:#9B00A0"/>
			<stop  offset="0.884" style="stop-color:#5100E5"/>
			<stop  offset="0.9944" style="stop-color:#3600FF"/>
			<stop  offset="1" style="stop-color:#3600FF"/>
		</linearGradient>
		<path id="XMLID_148_" fill="url(#XMLID_6_)" d="M107.6,7.6c-0.5-1.3-1.1-2.4-2-3.3c-0.9-0.9-1.9-1.6-3.1-2.1c-2.4-1-5.5-1-7.9,0
			c-1.2,0.5-2.3,1.2-3.1,2.1c-0.9,0.9-1.6,2-2,3.3c-0.5,1.3-0.7,2.7-0.7,4.2c0,1.6,0.2,3,0.7,4.3c0.5,1.3,1.2,2.4,2,3.3
			c0.9,0.9,1.9,1.6,3.1,2.1c1.2,0.5,2.5,0.8,4,0.8c1.5,0,2.8-0.3,4-0.8c1.2-0.5,2.2-1.2,3.1-2.1c0.9-0.9,1.5-2.1,2-3.3
			c0.5-1.3,0.7-2.7,0.7-4.3C108.3,10.4,108,8.9,107.6,7.6z M98.5,16.8c-1.1,0-1.8-0.4-2.4-1.3c-0.6-0.9-0.9-2.1-0.9-3.7
			c0-1.5,0.3-2.8,0.9-3.6c0.6-0.8,1.4-1.2,2.4-1.2s1.9,0.4,2.4,1.2c0.6,0.9,0.9,2.1,0.9,3.6c0,1.6-0.3,2.8-0.9,3.7
			C100.3,16.4,99.6,16.8,98.5,16.8z"/>
	</g>
	<g id="XMLID_144_">
		<linearGradient id="XMLID_7_" gradientUnits="userSpaceOnUse" x1="2.7573" y1="-18.6932" x2="134.4239" y2="16.3068">
			<stop  offset="0" style="stop-color:#FF0042"/>
			<stop  offset="0.1069" style="stop-color:#F2004E"/>
			<stop  offset="0.3031" style="stop-color:#D1006D"/>
			<stop  offset="0.5666" style="stop-color:#9B00A0"/>
			<stop  offset="0.884" style="stop-color:#5100E5"/>
			<stop  offset="0.9944" style="stop-color:#3600FF"/>
			<stop  offset="1" style="stop-color:#3600FF"/>
		</linearGradient>
		<path id="XMLID_145_" fill="url(#XMLID_7_)" d="M125.9,16.2c0,2-0.8,3.6-2.3,4.7c-1.5,1-3.6,1.5-6.2,1.5c-1.7,0-3.2-0.1-4.3-0.4
			c-1.2-0.3-1.9-0.6-2.4-0.8l-0.4-0.2l1.1-5.3l0.6,0.2c0.9,0.4,1.8,0.6,2.7,0.8c0.9,0.2,1.8,0.3,2.7,0.3c1.1,0,1.6-0.1,1.9-0.2
			c0.2-0.1,0.3-0.2,0.3-0.7c0-0.1,0-0.4-0.6-0.7c-0.5-0.3-1.3-0.7-2.3-1.1c-0.8-0.3-1.6-0.7-2.3-1c-0.7-0.4-1.4-0.8-1.9-1.3
			c-0.5-0.5-0.9-1.1-1.2-1.8c-0.3-0.7-0.4-1.6-0.4-2.5c0-1.9,0.7-3.5,2.2-4.6c1.4-1.1,3.3-1.7,5.7-1.7c1.2,0,2.3,0.1,3.4,0.3
			c1.1,0.2,2,0.4,2.6,0.7l0.4,0.2L124,7.8l-0.5-0.2c-0.6-0.2-1.3-0.4-2-0.6c-0.7-0.2-1.5-0.2-2.4-0.2c-2,0-2,0.7-2,0.9
			c0,0.1,0,0.3,0.1,0.4c0,0.1,0.1,0.1,0.3,0.3c0.2,0.1,0.5,0.3,0.8,0.5c0.4,0.2,0.8,0.4,1.4,0.6c1.2,0.4,2.2,0.9,3,1.3
			c0.8,0.4,1.5,0.9,2,1.5c0.5,0.6,0.8,1.2,1,1.8C125.8,14.6,125.9,15.4,125.9,16.2z"/>
	</g>
</g>
</svg>
