<?xml version="1.0" encoding="utf-8"?>
<!-- Generator: Adobe Illustrator 19.0.0, SVG Export Plug-In . SVG Version: 6.00 Build 0)  -->
<svg version="1.2" baseProfile="tiny" id="Layer_1" xmlns="http://www.w3.org/2000/svg" xmlns:xlink="http://www.w3.org/1999/xlink"
	 x="0px" y="0px" viewBox="0 0 112 30" xml:space="preserve">
<g id="XMLID_40_">
	<path id="XMLID_17_" fill="none" stroke="#999999" stroke-miterlimit="10" d="M7.6,24.9c1,0,1.7-0.1,2.1-0.3s0.6-0.6,0.6-1.1
		c0-0.4-0.3-0.8-0.8-1.1C9,22,8.2,21.6,7.1,21.2c-0.8-0.3-1.6-0.6-2.3-1S3.5,19.5,3,19c-0.5-0.5-0.9-1-1.1-1.7
		c-0.3-0.6-0.4-1.4-0.4-2.3c0-1.8,0.7-3.2,2-4.2s3.1-1.5,5.4-1.5c1.2,0,2.3,0.1,3.3,0.3s1.9,0.4,2.5,0.7l-0.9,4.2
		c-0.6-0.2-1.3-0.4-2-0.6c-0.7-0.2-1.6-0.3-2.5-0.3c-1.7,0-2.5,0.5-2.5,1.4c0,0.2,0,0.4,0.1,0.6c0.1,0.2,0.2,0.3,0.4,0.5
		c0.2,0.2,0.5,0.3,0.9,0.5s0.8,0.4,1.4,0.6c1.2,0.4,2.1,0.9,2.9,1.3c0.8,0.4,1.4,0.9,1.8,1.4c0.4,0.5,0.8,1,0.9,1.6s0.3,1.3,0.3,2.1
		c0,1.9-0.7,3.3-2.1,4.2c-1.4,1-3.4,1.4-6,1.4c-1.7,0-3.1-0.1-4.2-0.4c-1.1-0.3-1.9-0.5-2.3-0.7l0.9-4.4c0.9,0.4,1.8,0.6,2.8,0.8
		C5.7,24.8,6.6,24.9,7.6,24.9z"/>
	<path id="XMLID_14_" fill="none" stroke="#999999" stroke-miterlimit="10" d="M18.7,19.4c0-1.7,0.3-3.1,0.8-4.4
		c0.5-1.3,1.2-2.3,2-3.1s1.8-1.5,2.9-1.9c1.1-0.4,2.2-0.6,3.4-0.6c2.7,0,4.8,0.8,6.4,2.5c1.6,1.6,2.3,4.1,2.3,7.3c0,0.3,0,0.7,0,1
		c0,0.4,0,0.7-0.1,1H24.2c0.1,1.1,0.6,2,1.5,2.6c0.9,0.6,2.1,1,3.7,1c1,0,2-0.1,2.9-0.3c0.9-0.2,1.7-0.4,2.3-0.7l0.7,4.4
		c-0.3,0.1-0.7,0.3-1.2,0.4c-0.5,0.1-1,0.3-1.6,0.4C32,29,31.4,29,30.7,29.1c-0.7,0.1-1.3,0.1-2,0.1c-1.7,0-3.2-0.3-4.4-0.8
		C23,28,22,27.3,21.1,26.4c-0.8-0.9-1.4-1.9-1.8-3.1C18.9,22.1,18.7,20.8,18.7,19.4z M31.3,17.3c0-0.5-0.1-0.9-0.2-1.3
		c-0.1-0.4-0.3-0.8-0.6-1.2c-0.3-0.3-0.6-0.6-1-0.8c-0.4-0.2-0.9-0.3-1.6-0.3c-0.6,0-1.1,0.1-1.5,0.3c-0.4,0.2-0.8,0.5-1.1,0.8
		c-0.3,0.3-0.5,0.7-0.7,1.2s-0.3,0.9-0.3,1.3H31.3z"/>
	<path id="XMLID_12_" fill="none" stroke="#999999" stroke-miterlimit="10" d="M52,14.5c-0.5-0.1-1-0.2-1.7-0.4
		C49.7,14,49,14,48.3,14c-0.3,0-0.7,0-1.2,0.1c-0.5,0.1-0.8,0.1-1.1,0.2v14.5h-5.4V10.8c1-0.3,2.1-0.7,3.4-1
		c1.3-0.3,2.8-0.5,4.4-0.5c0.3,0,0.6,0,1,0.1s0.8,0.1,1.2,0.1c0.4,0.1,0.8,0.1,1.2,0.2s0.8,0.2,1,0.3L52,14.5z"/>
	<path id="XMLID_9_" fill="none" stroke="#999999" stroke-miterlimit="10" d="M61.7,4.3c0,1-0.3,1.8-1,2.3c-0.6,0.6-1.4,0.8-2.3,0.8
		c-0.9,0-1.6-0.3-2.3-0.8c-0.6-0.6-1-1.3-1-2.3c0-1,0.3-1.8,1-2.3c0.6-0.6,1.4-0.8,2.3-0.8c0.9,0,1.6,0.3,2.3,0.8
		C61.4,2.5,61.7,3.3,61.7,4.3z M61.2,28.7h-5.4V9.8h5.4V28.7z"/>
	<path id="XMLID_6_" fill="none" stroke="#999999" stroke-miterlimit="10" d="M73,9.3c1.6,0,2.9,0.2,4,0.5c1.1,0.4,1.9,0.9,2.5,1.5
		c0.6,0.7,1.1,1.5,1.3,2.4c0.3,1,0.4,2,0.4,3.2v11.2c-0.8,0.2-1.8,0.4-3.2,0.6c-1.4,0.2-3,0.3-5,0.3c-1.2,0-2.3-0.1-3.3-0.3
		c-1-0.2-1.9-0.6-2.6-1.1c-0.7-0.5-1.3-1.1-1.7-1.9S65,24,65,22.9c0-1.1,0.2-2,0.7-2.8c0.4-0.8,1-1.4,1.8-1.8c0.7-0.5,1.6-0.8,2.6-1
		s2-0.3,3-0.3c0.7,0,1.3,0,1.9,0.1s1,0.1,1.3,0.2v-0.5c0-0.9-0.3-1.6-0.8-2.2c-0.6-0.6-1.5-0.8-2.9-0.8c-0.9,0-1.8,0.1-2.7,0.2
		c-0.9,0.1-1.7,0.3-2.3,0.6l-0.7-4.3c0.3-0.1,0.7-0.2,1.2-0.3c0.5-0.1,1-0.2,1.5-0.3s1.1-0.2,1.7-0.2C71.8,9.3,72.4,9.3,73,9.3z
		 M73.5,25c0.5,0,1,0,1.5,0c0.5,0,0.9-0.1,1.2-0.1v-4.1c-0.2,0-0.5-0.1-1-0.1c-0.4,0-0.8-0.1-1.2-0.1c-0.5,0-1,0-1.4,0.1
		c-0.4,0.1-0.8,0.2-1.2,0.3c-0.3,0.2-0.6,0.4-0.8,0.7c-0.2,0.3-0.3,0.6-0.3,1.1c0,0.8,0.3,1.4,0.8,1.7C71.7,24.8,72.5,25,73.5,25z"
		/>
	<path id="XMLID_4_" fill="none" stroke="#999999" stroke-miterlimit="10" d="M93.7,29.1c-1.6,0-2.8-0.2-3.8-0.5
		c-1-0.3-1.7-0.8-2.3-1.3c-0.6-0.6-0.9-1.2-1.2-2.1c-0.2-0.8-0.3-1.7-0.3-2.7V1.6l5.4-0.9v20.6c0,0.5,0,0.9,0.1,1.3s0.2,0.7,0.4,1
		c0.2,0.3,0.5,0.5,0.9,0.6s0.9,0.3,1.5,0.3L93.7,29.1z"/>
	<path id="XMLID_2_" fill="none" stroke="#999999" stroke-miterlimit="10" d="M102.9,24.9c1,0,1.7-0.1,2.1-0.3s0.6-0.6,0.6-1.1
		c0-0.4-0.3-0.8-0.8-1.1c-0.5-0.3-1.3-0.7-2.4-1.1c-0.8-0.3-1.6-0.6-2.3-1s-1.3-0.7-1.7-1.2c-0.5-0.5-0.9-1-1.1-1.7
		c-0.3-0.6-0.4-1.4-0.4-2.3c0-1.8,0.7-3.2,2-4.2s3.1-1.5,5.4-1.5c1.2,0,2.3,0.1,3.3,0.3s1.9,0.4,2.5,0.7l-0.9,4.2
		c-0.6-0.2-1.3-0.4-2-0.6c-0.7-0.2-1.6-0.3-2.5-0.3c-1.7,0-2.5,0.5-2.5,1.4c0,0.2,0,0.4,0.1,0.6c0.1,0.2,0.2,0.3,0.4,0.5
		c0.2,0.2,0.5,0.3,0.9,0.5s0.8,0.4,1.4,0.6c1.2,0.4,2.1,0.9,2.9,1.3c0.8,0.4,1.4,0.9,1.8,1.4c0.4,0.5,0.8,1,0.9,1.6s0.3,1.3,0.3,2.1
		c0,1.9-0.7,3.3-2.1,4.2c-1.4,1-3.4,1.4-6,1.4c-1.7,0-3.1-0.1-4.2-0.4c-1.1-0.3-1.9-0.5-2.3-0.7l0.9-4.4c0.9,0.4,1.8,0.6,2.8,0.8
		C101.1,24.8,102,24.9,102.9,24.9z"/>
</g>
</svg>
