<?xml version="1.0" encoding="utf-8"?>
<!-- Generator: Adobe Illustrator 19.0.0, SVG Export Plug-In . SVG Version: 6.00 Build 0)  -->
<svg version="1.1" baseProfile="basic" id="Layer_1"
	 xmlns="http://www.w3.org/2000/svg" xmlns:xlink="http://www.w3.org/1999/xlink" 
   x="0px" y="0px" viewBox="0 0 112 30" width="112" height="30"
	 xml:space="preserve">
<g id="XMLID_40_" opacity="0.85">
	<g id="XMLID_383_">
		<linearGradient id="XMLID_2_" gradientUnits="userSpaceOnUse" x1="-12.9144" y1="13.6403" x2="119.5856" y2="49.1403">
			<stop  offset="0" style="stop-color:#FF0042"/>
			<stop  offset="0.1069" style="stop-color:#F2004E"/>
			<stop  offset="0.3031" style="stop-color:#D1006D"/>
			<stop  offset="0.5666" style="stop-color:#9B00A0"/>
			<stop  offset="0.884" style="stop-color:#5100E5"/>
			<stop  offset="0.9944" style="stop-color:#3600FF"/>
			<stop  offset="1" style="stop-color:#3600FF"/>
		</linearGradient>
		<path id="XMLID_384_" fill="url(#XMLID_2_)" d="M16.1,23.6c0,2-0.8,3.6-2.3,4.6c-1.5,1-3.6,1.5-6.2,1.5c-1.7,0-3.2-0.1-4.3-0.4
			c-1.2-0.3-1.9-0.6-2.4-0.8l-0.4-0.2l1.1-5.3l0.5,0.2C3,23.6,4,23.9,4.9,24.1c0.9,0.2,1.9,0.3,2.7,0.3c1.1,0,1.6-0.1,1.9-0.2
			c0.2-0.1,0.3-0.2,0.3-0.7c0-0.1,0-0.4-0.5-0.7c-0.5-0.3-1.3-0.7-2.3-1.1c-0.8-0.3-1.6-0.6-2.3-1c-0.7-0.4-1.4-0.8-1.9-1.3
			c-0.5-0.5-0.9-1.1-1.2-1.8c-0.3-0.7-0.4-1.6-0.4-2.5c0-1.9,0.7-3.5,2.2-4.6C4.6,9.4,6.6,8.8,9,8.8c1.2,0,2.3,0.1,3.4,0.3
			c1.1,0.2,1.9,0.4,2.6,0.7l0.4,0.2l-1.1,5.1l-0.5-0.2c-0.6-0.2-1.3-0.4-2-0.6c-0.7-0.2-1.5-0.2-2.4-0.2c-2,0-2,0.7-2,0.9
			c0,0.2,0,0.3,0.1,0.4c0,0,0.1,0.1,0.3,0.3c0.2,0.1,0.5,0.3,0.8,0.5c0.3,0.2,0.8,0.4,1.4,0.6c1.2,0.4,2.2,0.9,3,1.3
			c0.8,0.4,1.5,0.9,1.9,1.5c0.5,0.6,0.8,1.2,1.1,1.8C16,22,16.1,22.8,16.1,23.6z"/>
	</g>
	<g id="XMLID_376_">
		<linearGradient id="XMLID_3_" gradientUnits="userSpaceOnUse" x1="-11.581" y1="8.6635" x2="120.9191" y2="44.1635">
			<stop  offset="0" style="stop-color:#FF0042"/>
			<stop  offset="0.1069" style="stop-color:#F2004E"/>
			<stop  offset="0.3031" style="stop-color:#D1006D"/>
			<stop  offset="0.5666" style="stop-color:#9B00A0"/>
			<stop  offset="0.884" style="stop-color:#5100E5"/>
			<stop  offset="0.9944" style="stop-color:#3600FF"/>
			<stop  offset="1" style="stop-color:#3600FF"/>
		</linearGradient>
		<path id="XMLID_377_" fill="url(#XMLID_3_)" d="M34.5,11.4c-1.7-1.7-3.9-2.6-6.7-2.6c-1.2,0-2.4,0.2-3.5,0.7
			c-1.2,0.5-2.2,1.1-3.1,2c-0.9,0.9-1.6,2-2.1,3.3c-0.5,1.3-0.8,2.9-0.8,4.6c0,1.4,0.2,2.8,0.6,4c0.4,1.3,1.1,2.4,1.9,3.3
			c0.9,0.9,2,1.7,3.3,2.2c1.3,0.5,2.9,0.8,4.6,0.8c0.7,0,1.4,0,2.1-0.1c0.7-0.1,1.3-0.2,1.9-0.3c0.6-0.1,1.2-0.2,1.6-0.4
			c0.5-0.2,0.9-0.3,1.2-0.5l0.3-0.2L35.1,23l-0.6,0.3c-0.6,0.3-1.3,0.5-2.2,0.6c-0.9,0.2-1.9,0.3-2.8,0.3c-1.4,0-2.6-0.3-3.4-0.9
			c-0.6-0.5-1-1-1.2-1.7h12l0-0.5c0-0.3,0.1-0.6,0.1-1c0-0.4,0-0.7,0-1.1C37,15.7,36.2,13.2,34.5,11.4z M25.6,15.2
			c0.2-0.3,0.6-0.5,0.9-0.7c0.8-0.3,2-0.3,2.7,0c0.4,0.2,0.6,0.4,0.9,0.7c0.2,0.3,0.4,0.6,0.5,1c0.1,0.2,0.1,0.5,0.2,0.7h-5.9
			c0.1-0.2,0.1-0.5,0.2-0.7C25.2,15.8,25.4,15.5,25.6,15.2z"/>
	</g>
	<g id="XMLID_371_">
		<linearGradient id="XMLID_4_" gradientUnits="userSpaceOnUse" x1="-10.3762" y1="4.1669" x2="122.1238" y2="39.6669">
			<stop  offset="0" style="stop-color:#FF0042"/>
			<stop  offset="0.1069" style="stop-color:#F2004E"/>
			<stop  offset="0.3031" style="stop-color:#D1006D"/>
			<stop  offset="0.5666" style="stop-color:#9B00A0"/>
			<stop  offset="0.884" style="stop-color:#5100E5"/>
			<stop  offset="0.9944" style="stop-color:#3600FF"/>
			<stop  offset="1" style="stop-color:#3600FF"/>
		</linearGradient>
		<path id="XMLID_372_" fill="url(#XMLID_4_)" d="M53.5,9.8l-1.1,5.4L52,15.1c-0.5-0.1-1-0.2-1.7-0.4c-0.6-0.1-1.3-0.2-2-0.2
			c-0.3,0-0.7,0-1.1,0.1c-0.2,0-0.4,0.1-0.6,0.1v14.6h-6.4V10.5l0.3-0.1c1-0.3,2.1-0.7,3.5-1c1.3-0.3,2.8-0.5,4.5-0.5
			c0.3,0,0.7,0,1.1,0.1c0.4,0,0.8,0.1,1.3,0.1c0.4,0.1,0.8,0.1,1.3,0.2c0.4,0.1,0.8,0.2,1.1,0.3L53.5,9.8z"/>
	</g>
	<g id="XMLID_344_">
		<linearGradient id="XMLID_5_" gradientUnits="userSpaceOnUse" x1="-5.8076" y1="-12.885" x2="126.6924" y2="22.615">
			<stop  offset="0" style="stop-color:#FF0042"/>
			<stop  offset="0.1069" style="stop-color:#F2004E"/>
			<stop  offset="0.3031" style="stop-color:#D1006D"/>
			<stop  offset="0.5666" style="stop-color:#9B00A0"/>
			<stop  offset="0.884" style="stop-color:#5100E5"/>
			<stop  offset="0.9944" style="stop-color:#3600FF"/>
			<stop  offset="1" style="stop-color:#3600FF"/>
		</linearGradient>
		<path id="XMLID_348_" fill="url(#XMLID_5_)" d="M62.2,4.4c0,1.1-0.4,2-1.1,2.7c-0.7,0.6-1.6,1-2.6,1c-1,0-1.9-0.3-2.6-1
			c-0.7-0.7-1.1-1.6-1.1-2.7s0.4-2,1.1-2.7c0.7-0.7,1.6-1,2.6-1c1,0,1.8,0.3,2.6,1C61.8,2.3,62.2,3.2,62.2,4.4z"/>
		<linearGradient id="XMLID_6_" gradientUnits="userSpaceOnUse" x1="-9.541" y1="1.0495" x2="122.959" y2="36.5495">
			<stop  offset="0" style="stop-color:#FF0042"/>
			<stop  offset="0.1069" style="stop-color:#F2004E"/>
			<stop  offset="0.3031" style="stop-color:#D1006D"/>
			<stop  offset="0.5666" style="stop-color:#9B00A0"/>
			<stop  offset="0.884" style="stop-color:#5100E5"/>
			<stop  offset="0.9944" style="stop-color:#3600FF"/>
			<stop  offset="1" style="stop-color:#3600FF"/>
		</linearGradient>
		<rect id="XMLID_347_" x="55.4" y="9.3" fill="url(#XMLID_6_)" width="6.4" height="19.9"/>
	</g>
	<g id="XMLID_149_">
		<linearGradient id="XMLID_7_" gradientUnits="userSpaceOnUse" x1="-8.5579" y1="-2.6199" x2="123.9421" y2="32.8801">
			<stop  offset="0" style="stop-color:#FF0042"/>
			<stop  offset="0.1069" style="stop-color:#F2004E"/>
			<stop  offset="0.3031" style="stop-color:#D1006D"/>
			<stop  offset="0.5666" style="stop-color:#9B00A0"/>
			<stop  offset="0.884" style="stop-color:#5100E5"/>
			<stop  offset="0.9944" style="stop-color:#3600FF"/>
			<stop  offset="1" style="stop-color:#3600FF"/>
		</linearGradient>
		<path id="XMLID_157_" fill="url(#XMLID_7_)" d="M81.4,13.7c-0.3-1-0.8-1.9-1.5-2.6c-0.7-0.7-1.6-1.3-2.7-1.7
			c-1.1-0.4-2.5-0.6-4.1-0.6c-0.6,0-1.3,0-1.9,0.1c-0.6,0.1-1.2,0.1-1.8,0.2c-0.6,0.1-1.1,0.2-1.6,0.3c-0.5,0.1-0.9,0.2-1.2,0.3
			l-0.4,0.1l0.8,5.3l0.6-0.2c0.6-0.2,1.4-0.4,2.2-0.5c0.9-0.1,1.8-0.2,2.6-0.2c1.2,0,2.1,0.2,2.5,0.7c0.4,0.4,0.7,1,0.7,1.7
			c-0.2,0-0.5-0.1-0.8-0.1c-0.6-0.1-1.2-0.1-1.9-0.1c-1.1,0-2.1,0.1-3.1,0.3c-1,0.2-1.9,0.6-2.7,1.1c-0.8,0.5-1.5,1.2-1.9,2
			c-0.5,0.8-0.7,1.9-0.7,3.1c0,1.2,0.2,2.3,0.6,3.1c0.4,0.9,1,1.6,1.8,2.1c0.8,0.5,1.7,0.9,2.8,1.1c1,0.2,2.2,0.3,3.4,0.3
			c2,0,3.7-0.1,5.1-0.4c1.4-0.2,2.4-0.4,3.2-0.6l0.4-0.1V17.1C81.8,15.9,81.7,14.7,81.4,13.7z M70.8,22.8c0-0.3,0.1-0.6,0.2-0.8
			c0.1-0.2,0.3-0.4,0.6-0.5c0.3-0.1,0.6-0.2,1-0.3c0.4-0.1,0.9-0.1,1.4-0.1c0.3,0,0.7,0,1.1,0.1c0.2,0,0.4,0,0.5,0.1v3.2
			c-0.2,0-0.4,0-0.7,0.1c-0.5,0-1,0-1.5,0c-0.9,0-1.6-0.1-2.1-0.4C71,23.9,70.8,23.4,70.8,22.8z"/>
	</g>
	<g id="XMLID_146_">
		<linearGradient id="XMLID_8_" gradientUnits="userSpaceOnUse" x1="-6.2185" y1="-11.3515" x2="126.2815" y2="24.1485">
			<stop  offset="0" style="stop-color:#FF0042"/>
			<stop  offset="0.1069" style="stop-color:#F2004E"/>
			<stop  offset="0.3031" style="stop-color:#D1006D"/>
			<stop  offset="0.5666" style="stop-color:#9B00A0"/>
			<stop  offset="0.884" style="stop-color:#5100E5"/>
			<stop  offset="0.9944" style="stop-color:#3600FF"/>
			<stop  offset="1" style="stop-color:#3600FF"/>
		</linearGradient>
		<path id="XMLID_148_" fill="url(#XMLID_8_)" d="M95.1,24.2l-0.9,5.4l-0.4,0c-1.6,0-2.9-0.2-3.9-0.5c-1-0.3-1.9-0.8-2.5-1.4
			c-0.6-0.6-1.1-1.4-1.3-2.3c-0.2-0.8-0.3-1.8-0.3-2.8V1.3l6.4-1v21.2c0,0.5,0,0.9,0.1,1.2c0.1,0.3,0.2,0.6,0.3,0.8
			c0.2,0.2,0.4,0.4,0.7,0.5c0.3,0.1,0.8,0.2,1.4,0.3L95.1,24.2z"/>
	</g>
	<g id="XMLID_144_">
		<linearGradient id="XMLID_9_" gradientUnits="userSpaceOnUse" x1="-6.5274" y1="-10.1983" x2="125.9726" y2="25.3017">
			<stop  offset="0" style="stop-color:#FF0042"/>
			<stop  offset="0.1069" style="stop-color:#F2004E"/>
			<stop  offset="0.3031" style="stop-color:#D1006D"/>
			<stop  offset="0.5666" style="stop-color:#9B00A0"/>
			<stop  offset="0.884" style="stop-color:#5100E5"/>
			<stop  offset="0.9944" style="stop-color:#3600FF"/>
			<stop  offset="1" style="stop-color:#3600FF"/>
		</linearGradient>
		<path id="XMLID_145_" fill="url(#XMLID_9_)" d="M111.5,23.6c0,2-0.8,3.6-2.3,4.6c-1.5,1-3.6,1.5-6.2,1.5c-1.7,0-3.2-0.1-4.3-0.4
			c-1.2-0.3-1.9-0.6-2.4-0.8l-0.4-0.2l1.1-5.3l0.6,0.2c0.9,0.4,1.8,0.6,2.7,0.8c0.9,0.2,1.8,0.3,2.7,0.3c1.1,0,1.6-0.1,1.9-0.2
			c0.2-0.1,0.3-0.2,0.3-0.7c0-0.1,0-0.4-0.6-0.7c-0.5-0.3-1.3-0.7-2.3-1.1c-0.8-0.3-1.6-0.6-2.3-1c-0.7-0.4-1.4-0.8-1.9-1.3
			c-0.5-0.5-0.9-1.1-1.2-1.8c-0.3-0.7-0.4-1.6-0.4-2.5c0-1.9,0.7-3.5,2.2-4.6c1.4-1.1,3.3-1.6,5.7-1.6c1.2,0,2.3,0.1,3.4,0.3
			c1.1,0.2,1.9,0.4,2.6,0.7l0.4,0.2l-1.2,5.1l-0.5-0.2c-0.6-0.2-1.3-0.4-2-0.6c-0.7-0.2-1.5-0.2-2.3-0.2c-2,0-2,0.7-2,0.9
			c0,0.2,0,0.3,0.1,0.4c0,0,0.1,0.1,0.3,0.3c0.2,0.1,0.5,0.3,0.8,0.5c0.4,0.2,0.8,0.4,1.4,0.6c1.2,0.4,2.2,0.9,3,1.3
			c0.8,0.4,1.5,0.9,1.9,1.5c0.5,0.6,0.8,1.2,1,1.8C111.4,22,111.5,22.8,111.5,23.6z"/>
	</g>
</g>
</svg>
