<?xml version="1.0" encoding="utf-8"?>
<!-- Generator: Adobe Illustrator 19.0.0, SVG Export Plug-In . SVG Version: 6.00 Build 0)  -->
<svg width="439" height="36" version="1.2" baseProfile="tiny" id="Layer_1" xmlns="http://www.w3.org/2000/svg" xmlns:xlink="http://www.w3.org/1999/xlink"
	 x="0px" y="0px" viewBox="0 0 439 36" xml:space="preserve">
<g id="XMLID_1_">
	<path id="XMLID_62_" fill="none" stroke="#999999" stroke-miterlimit="10" d="M1,4.9l5.4-0.9v5.6h6.4v4.5H6.3v6.7
		c0,1.1,0.2,2,0.6,2.7c0.4,0.7,1.2,1,2.4,1c0.6,0,1.2-0.1,1.8-0.2c0.6-0.1,1.2-0.3,1.7-0.5l0.8,4.2c-0.6,0.3-1.4,0.5-2.2,0.7
		C10.6,28.9,9.6,29,8.5,29c-1.5,0-2.7-0.2-3.6-0.6c-1-0.4-1.7-0.9-2.3-1.7c-0.6-0.7-1-1.6-1.2-2.6c-0.2-1-0.3-2.1-0.3-3.3V4.9z"/>
	<path id="XMLID_60_" fill="none" stroke="#999999" stroke-miterlimit="10" d="M28.5,14.4c-0.5-0.1-1-0.2-1.7-0.4
		c-0.6-0.1-1.3-0.2-2.1-0.2c-0.3,0-0.7,0-1.2,0.1c-0.5,0.1-0.8,0.1-1.1,0.2v14.5h-5.4V10.7c1-0.3,2.1-0.7,3.4-1
		c1.3-0.3,2.8-0.5,4.4-0.5c0.3,0,0.6,0,1,0.1s0.8,0.1,1.2,0.1c0.4,0.1,0.8,0.1,1.2,0.2s0.8,0.2,1,0.3L28.5,14.4z"/>
	<path id="XMLID_57_" fill="none" stroke="#999999" stroke-miterlimit="10" d="M38.8,9.1c1.6,0,2.9,0.2,4,0.5
		c1.1,0.4,1.9,0.9,2.5,1.5c0.6,0.7,1.1,1.5,1.3,2.4c0.3,1,0.4,2,0.4,3.2V28c-0.8,0.2-1.8,0.4-3.2,0.6c-1.4,0.2-3,0.3-5,0.3
		c-1.2,0-2.3-0.1-3.3-0.3c-1-0.2-1.9-0.6-2.6-1.1c-0.7-0.5-1.3-1.1-1.7-1.9s-0.6-1.8-0.6-2.9c0-1.1,0.2-2,0.7-2.8
		c0.4-0.8,1-1.4,1.8-1.8c0.7-0.5,1.6-0.8,2.6-1s2-0.3,3-0.3c0.7,0,1.3,0,1.9,0.1s1,0.1,1.3,0.2v-0.5c0-0.9-0.3-1.6-0.8-2.2
		c-0.6-0.6-1.5-0.8-2.9-0.8c-0.9,0-1.8,0.1-2.7,0.2c-0.9,0.1-1.7,0.3-2.3,0.6L32.5,10c0.3-0.1,0.7-0.2,1.2-0.3
		c0.5-0.1,1-0.2,1.5-0.3s1.1-0.2,1.7-0.2C37.5,9.2,38.1,9.1,38.8,9.1z M39.2,24.8c0.5,0,1,0,1.5,0c0.5,0,0.9-0.1,1.2-0.1v-4.1
		c-0.2,0-0.5-0.1-1-0.1c-0.4,0-0.8-0.1-1.2-0.1c-0.5,0-1,0-1.4,0.1c-0.4,0.1-0.8,0.2-1.2,0.3c-0.3,0.2-0.6,0.4-0.8,0.7
		c-0.2,0.3-0.3,0.6-0.3,1.1c0,0.8,0.3,1.4,0.8,1.7C37.4,24.7,38.2,24.8,39.2,24.8z"/>
	<path id="XMLID_54_" fill="none" stroke="#999999" stroke-miterlimit="10" d="M57.7,4.2c0,1-0.3,1.8-1,2.3
		c-0.6,0.6-1.4,0.8-2.3,0.8c-0.9,0-1.6-0.3-2.3-0.8c-0.6-0.6-1-1.3-1-2.3c0-1,0.3-1.8,1-2.3C52.9,1.3,53.7,1,54.5,1
		c0.9,0,1.6,0.3,2.3,0.8C57.4,2.4,57.7,3.2,57.7,4.2z M57.2,28.6h-5.4V9.6h5.4V28.6z"/>
	<path id="XMLID_52_" fill="none" stroke="#999999" stroke-miterlimit="10" d="M62.3,10.3c0.9-0.3,2.1-0.5,3.5-0.7
		c1.4-0.2,3-0.3,4.5-0.3c1.6,0,2.9,0.2,4,0.6c1.1,0.4,1.9,1,2.5,1.8c0.6,0.8,1.1,1.7,1.3,2.7s0.4,2.2,0.4,3.5v10.7h-5.4v-10
		c0-1.7-0.2-3-0.7-3.7c-0.5-0.7-1.3-1.1-2.6-1.1c-0.4,0-0.8,0-1.2,0.1c-0.4,0-0.8,0.1-1.2,0.1v14.6h-5.4V10.3z"/>
	<path id="XMLID_49_" fill="none" stroke="#999999" stroke-miterlimit="10" d="M89.3,4.2c0,1-0.3,1.8-1,2.3
		c-0.6,0.6-1.4,0.8-2.3,0.8c-0.9,0-1.6-0.3-2.3-0.8c-0.6-0.6-1-1.3-1-2.3c0-1,0.3-1.8,1-2.3C84.5,1.3,85.3,1,86.1,1
		c0.9,0,1.6,0.3,2.3,0.8C89,2.4,89.3,3.2,89.3,4.2z M88.8,28.6h-5.4V9.6h5.4V28.6z"/>
	<path id="XMLID_47_" fill="none" stroke="#999999" stroke-miterlimit="10" d="M93.9,10.3c0.9-0.3,2.1-0.5,3.5-0.7
		c1.4-0.2,3-0.3,4.5-0.3c1.6,0,2.9,0.2,4,0.6c1.1,0.4,1.9,1,2.5,1.8c0.6,0.8,1.1,1.7,1.3,2.7s0.4,2.2,0.4,3.5v10.7h-5.4v-10
		c0-1.7-0.2-3-0.7-3.7c-0.5-0.7-1.3-1.1-2.6-1.1c-0.4,0-0.8,0-1.2,0.1c-0.4,0-0.8,0.1-1.2,0.1v14.6h-5.4V10.3z"/>
	<path id="XMLID_44_" fill="none" stroke="#999999" stroke-miterlimit="10" d="M131.4,26.2c0,3.1-0.8,5.4-2.4,6.9
		c-1.6,1.5-4,2.3-7.3,2.3c-1.2,0-2.3-0.1-3.5-0.3c-1.2-0.2-2.2-0.5-3.2-0.8l0.9-4.5c0.8,0.3,1.7,0.6,2.6,0.8c0.9,0.2,2,0.3,3.2,0.3
		c1.5,0,2.6-0.3,3.3-1s1-1.5,1-2.6v-0.7c-0.6,0.3-1.2,0.5-1.8,0.6c-0.6,0.1-1.3,0.2-2,0.2c-2.6,0-4.6-0.8-6-2.3
		c-1.4-1.5-2.1-3.7-2.1-6.5c0-1.4,0.2-2.7,0.6-3.8c0.4-1.1,1.1-2.1,1.9-2.9c0.8-0.8,1.8-1.4,3-1.9c1.2-0.4,2.6-0.7,4.1-0.7
		c0.6,0,1.3,0,2,0.1c0.7,0.1,1.4,0.1,2,0.2c0.7,0.1,1.3,0.2,1.9,0.3c0.6,0.1,1.2,0.3,1.6,0.4V26.2z M119.7,18.5c0,3,1.2,4.5,3.6,4.5
		c0.6,0,1.1-0.1,1.5-0.2c0.5-0.1,0.9-0.3,1.2-0.5v-8.6c-0.3,0-0.6-0.1-0.9-0.1c-0.4,0-0.8-0.1-1.3-0.1c-1.4,0-2.5,0.5-3.2,1.4
		C120,15.9,119.7,17.1,119.7,18.5z"/>
	<path id="XMLID_40_" fill="none" stroke="#999999" stroke-miterlimit="10" d="M143.8,22c0-0.9,0.1-1.7,0.4-2.5
		c0.3-0.8,0.6-1.4,1.1-2.1s1-1.2,1.5-1.6c0.6-0.5,1.2-0.9,1.8-1.2c-0.6-0.7-1.1-1.5-1.5-2.3c-0.5-0.8-0.7-1.7-0.7-2.6
		c0-2.1,0.6-3.7,1.9-4.9c1.3-1.1,3-1.7,5.3-1.7c1.1,0,2.1,0.2,3,0.5c0.8,0.3,1.5,0.7,2.1,1.2c0.6,0.5,1,1.1,1.3,1.8s0.4,1.4,0.4,2.2
		c0,1.5-0.4,2.8-1.2,3.9c-0.8,1.1-1.9,2.1-3.2,2.9l4.1,4c0.2-0.5,0.4-1.1,0.6-1.8c0.2-0.7,0.3-1.4,0.4-1.9l4.5,0.6
		c0,0.5-0.1,1-0.3,1.5c-0.1,0.5-0.3,1.1-0.5,1.6c-0.2,0.6-0.4,1.1-0.6,1.7c-0.2,0.6-0.5,1.1-0.7,1.5c0.8,0.9,1.5,1.8,2.3,2.8
		c0.7,1,1.4,2,1.9,3.1h-5.5c-0.2-0.3-0.5-0.7-0.8-1.2c-0.3-0.5-0.7-0.9-1-1.2c-1,0.8-2.1,1.4-3.3,1.9c-1.3,0.5-2.7,0.8-4.3,0.8
		c-1.7,0-3.1-0.2-4.2-0.6c-1.1-0.4-2-1-2.7-1.6c-0.7-0.7-1.2-1.4-1.5-2.2C144,23.6,143.8,22.8,143.8,22z M148.9,21.4
		c0,0.4,0.1,0.7,0.2,1.1s0.4,0.7,0.7,1.1c0.3,0.3,0.7,0.6,1.2,0.8c0.5,0.2,1.1,0.3,1.8,0.3c1,0,1.9-0.1,2.7-0.4
		c0.8-0.3,1.4-0.6,1.9-1.1l-5.8-5.8c-0.3,0.2-0.7,0.4-1,0.6c-0.3,0.2-0.6,0.5-0.9,0.8c-0.3,0.3-0.5,0.7-0.6,1.1
		C148.9,20.4,148.9,20.9,148.9,21.4z M155.8,9c0-0.6-0.2-1-0.5-1.5s-1-0.6-1.8-0.6c-0.8,0-1.4,0.2-1.8,0.7s-0.6,1.1-0.6,1.8
		c0,0.6,0.2,1.2,0.5,1.8c0.4,0.6,0.8,1.1,1.4,1.7c0.8-0.4,1.4-0.9,2-1.6C155.6,10.7,155.8,10,155.8,9z"/>
	<path id="XMLID_38_" fill="none" stroke="#999999" stroke-miterlimit="10" d="M190.5,14.4c-0.5-0.1-1-0.2-1.7-0.4
		c-0.6-0.1-1.3-0.2-2.1-0.2c-0.3,0-0.7,0-1.2,0.1c-0.5,0.1-0.8,0.1-1.1,0.2v14.5h-5.4V10.7c1-0.3,2.1-0.7,3.4-1
		c1.3-0.3,2.8-0.5,4.4-0.5c0.3,0,0.6,0,1,0.1s0.8,0.1,1.2,0.1c0.4,0.1,0.8,0.1,1.2,0.2s0.8,0.2,1,0.3L190.5,14.4z"/>
	<path id="XMLID_35_" fill="none" stroke="#999999" stroke-miterlimit="10" d="M193.1,19.3c0-1.7,0.3-3.1,0.8-4.4
		c0.5-1.3,1.2-2.3,2-3.1s1.8-1.5,2.9-1.9c1.1-0.4,2.2-0.6,3.4-0.6c2.7,0,4.8,0.8,6.4,2.5c1.6,1.6,2.3,4.1,2.3,7.3c0,0.3,0,0.7,0,1
		c0,0.4,0,0.7-0.1,1h-12.2c0.1,1.1,0.6,2,1.5,2.6c0.9,0.6,2.1,1,3.7,1c1,0,2-0.1,2.9-0.3c0.9-0.2,1.7-0.4,2.3-0.7l0.7,4.4
		c-0.3,0.1-0.7,0.3-1.2,0.4c-0.5,0.1-1,0.3-1.6,0.4c-0.6,0.1-1.2,0.2-1.9,0.3c-0.7,0.1-1.3,0.1-2,0.1c-1.7,0-3.2-0.3-4.4-0.8
		c-1.3-0.5-2.3-1.2-3.1-2.1c-0.8-0.9-1.4-1.9-1.8-3.1C193.3,21.9,193.1,20.7,193.1,19.3z M205.7,17.2c0-0.5-0.1-0.9-0.2-1.3
		c-0.1-0.4-0.3-0.8-0.6-1.2c-0.3-0.3-0.6-0.6-1-0.8c-0.4-0.2-0.9-0.3-1.6-0.3c-0.6,0-1.1,0.1-1.5,0.3c-0.4,0.2-0.8,0.5-1.1,0.8
		c-0.3,0.3-0.5,0.7-0.7,1.2s-0.3,0.9-0.3,1.3H205.7z"/>
	<path id="XMLID_32_" fill="none" stroke="#999999" stroke-miterlimit="10" d="M231.3,26.2c0,3.1-0.8,5.4-2.4,6.9
		c-1.6,1.5-4,2.3-7.3,2.3c-1.2,0-2.3-0.1-3.5-0.3c-1.2-0.2-2.2-0.5-3.2-0.8l0.9-4.5c0.8,0.3,1.7,0.6,2.6,0.8c0.9,0.2,2,0.3,3.2,0.3
		c1.5,0,2.6-0.3,3.3-1s1-1.5,1-2.6v-0.7c-0.6,0.3-1.2,0.5-1.8,0.6c-0.6,0.1-1.3,0.2-2,0.2c-2.6,0-4.6-0.8-6-2.3
		c-1.4-1.5-2.1-3.7-2.1-6.5c0-1.4,0.2-2.7,0.6-3.8c0.4-1.1,1.1-2.1,1.9-2.9c0.8-0.8,1.8-1.4,3-1.9c1.2-0.4,2.6-0.7,4.1-0.7
		c0.6,0,1.3,0,2,0.1c0.7,0.1,1.4,0.1,2,0.2s1.3,0.2,1.9,0.3c0.6,0.1,1.2,0.3,1.6,0.4V26.2z M219.6,18.5c0,3,1.2,4.5,3.6,4.5
		c0.6,0,1.1-0.1,1.5-0.2c0.5-0.1,0.9-0.3,1.2-0.5v-8.6c-0.3,0-0.6-0.1-0.9-0.1c-0.4,0-0.8-0.1-1.3-0.1c-1.4,0-2.5,0.5-3.2,1.4
		C219.9,15.9,219.6,17.1,219.6,18.5z"/>
	<path id="XMLID_29_" fill="none" stroke="#999999" stroke-miterlimit="10" d="M242.2,4.2c0,1-0.3,1.8-1,2.3
		c-0.6,0.6-1.4,0.8-2.3,0.8c-0.9,0-1.6-0.3-2.3-0.8c-0.6-0.6-1-1.3-1-2.3c0-1,0.3-1.8,1-2.3c0.6-0.6,1.4-0.8,2.3-0.8
		c0.9,0,1.6,0.3,2.3,0.8C241.9,2.4,242.2,3.2,242.2,4.2z M241.7,28.6h-5.4V9.6h5.4V28.6z"/>
	<path id="XMLID_26_" fill="none" stroke="#999999" stroke-miterlimit="10" d="M264.5,19.1c0,1.5-0.2,2.8-0.6,4.1s-1.1,2.3-1.9,3.2
		c-0.8,0.9-1.8,1.6-2.9,2c-1.1,0.5-2.4,0.7-3.8,0.7c-1.4,0-2.7-0.2-3.8-0.7c-1.1-0.5-2.1-1.2-2.9-2c-0.8-0.9-1.5-1.9-1.9-3.2
		s-0.7-2.6-0.7-4.1s0.2-2.8,0.7-4.1c0.5-1.2,1.1-2.3,1.9-3.1c0.8-0.9,1.8-1.5,3-2s2.4-0.7,3.7-0.7c1.4,0,2.6,0.2,3.8,0.7
		c1.1,0.5,2.1,1.2,2.9,2c0.8,0.9,1.5,1.9,1.9,3.1C264.3,16.2,264.5,17.6,264.5,19.1z M259,19.1c0-1.7-0.3-3-1-3.9
		c-0.7-0.9-1.6-1.4-2.8-1.4c-1.2,0-2.2,0.5-2.8,1.4c-0.7,0.9-1,2.3-1,3.9s0.3,3,1,3.9c0.7,1,1.6,1.5,2.8,1.5c1.2,0,2.2-0.5,2.8-1.5
		C258.7,22,259,20.7,259,19.1z"/>
	<path id="XMLID_24_" fill="none" stroke="#999999" stroke-miterlimit="10" d="M268.6,10.3c0.9-0.3,2.1-0.5,3.5-0.7
		c1.4-0.2,3-0.3,4.5-0.3c1.6,0,2.9,0.2,4,0.6c1.1,0.4,1.9,1,2.5,1.8c0.6,0.8,1.1,1.7,1.3,2.7s0.4,2.2,0.4,3.5v10.7h-5.4v-10
		c0-1.7-0.2-3-0.7-3.7c-0.5-0.7-1.3-1.1-2.6-1.1c-0.4,0-0.8,0-1.2,0.1c-0.4,0-0.8,0.1-1.2,0.1v14.6h-5.4V10.3z"/>
	<path id="XMLID_21_" fill="none" stroke="#999999" stroke-miterlimit="10" d="M296.6,9.1c1.6,0,2.9,0.2,4,0.5
		c1.1,0.4,1.9,0.9,2.5,1.5c0.6,0.7,1.1,1.5,1.3,2.4c0.3,1,0.4,2,0.4,3.2V28c-0.8,0.2-1.8,0.4-3.2,0.6c-1.4,0.2-3,0.3-5,0.3
		c-1.2,0-2.3-0.1-3.3-0.3c-1-0.2-1.9-0.6-2.6-1.1c-0.7-0.5-1.3-1.1-1.7-1.9s-0.6-1.8-0.6-2.9c0-1.1,0.2-2,0.7-2.8
		c0.4-0.8,1-1.4,1.8-1.8c0.7-0.5,1.6-0.8,2.6-1s2-0.3,3-0.3c0.7,0,1.3,0,1.9,0.1s1,0.1,1.3,0.2v-0.5c0-0.9-0.3-1.6-0.8-2.2
		c-0.6-0.6-1.5-0.8-2.9-0.8c-0.9,0-1.8,0.1-2.7,0.2c-0.9,0.1-1.7,0.3-2.3,0.6l-0.7-4.3c0.3-0.1,0.7-0.2,1.2-0.3
		c0.5-0.1,1-0.2,1.5-0.3s1.1-0.2,1.7-0.2C295.4,9.2,296,9.1,296.6,9.1z M297.1,24.8c0.5,0,1,0,1.5,0c0.5,0,0.9-0.1,1.2-0.1v-4.1
		c-0.2,0-0.5-0.1-1-0.1c-0.4,0-0.8-0.1-1.2-0.1c-0.5,0-1,0-1.4,0.1c-0.4,0.1-0.8,0.2-1.2,0.3c-0.3,0.2-0.6,0.4-0.8,0.7
		c-0.2,0.3-0.3,0.6-0.3,1.1c0,0.8,0.3,1.4,0.8,1.7C295.3,24.7,296.1,24.8,297.1,24.8z"/>
	<path id="XMLID_19_" fill="none" stroke="#999999" stroke-miterlimit="10" d="M317.3,28.9c-1.6,0-2.8-0.2-3.8-0.5
		c-1-0.3-1.7-0.8-2.3-1.3c-0.6-0.6-0.9-1.2-1.2-2.1c-0.2-0.8-0.3-1.7-0.3-2.7V1.5l5.4-0.9v20.6c0,0.5,0,0.9,0.1,1.3s0.2,0.7,0.4,1
		c0.2,0.3,0.5,0.5,0.9,0.6s0.9,0.3,1.5,0.3L317.3,28.9z"/>
	<path id="XMLID_17_" fill="none" stroke="#999999" stroke-miterlimit="10" d="M334.9,28.6c-1.2-2.4-2.5-5.2-3.7-8.4
		s-2.5-6.7-3.6-10.5h5.7c0.2,0.9,0.5,2,0.8,3s0.7,2.2,1,3.3s0.7,2.2,1,3.3c0.3,1.1,0.7,2,1,2.9c0.3-0.9,0.7-1.8,1-2.9
		c0.4-1.1,0.7-2.1,1.1-3.3s0.7-2.2,1-3.3s0.6-2.1,0.8-3h5.5c-1.1,3.8-2.3,7.3-3.6,10.5c-1.3,3.2-2.5,6-3.7,8.4H334.9z"/>
	<path id="XMLID_14_" fill="none" stroke="#999999" stroke-miterlimit="10" d="M355.4,4.2c0,1-0.3,1.8-1,2.3
		c-0.6,0.6-1.4,0.8-2.3,0.8c-0.9,0-1.6-0.3-2.3-0.8c-0.6-0.6-1-1.3-1-2.3c0-1,0.3-1.8,1-2.3c0.6-0.6,1.4-0.8,2.3-0.8
		c0.9,0,1.6,0.3,2.3,0.8C355.1,2.4,355.4,3.2,355.4,4.2z M354.9,28.6h-5.4V9.6h5.4V28.6z"/>
	<path id="XMLID_11_" fill="none" stroke="#999999" stroke-miterlimit="10" d="M376.7,28c-0.5,0.1-1,0.3-1.7,0.4
		c-0.6,0.1-1.3,0.2-2,0.3c-0.7,0.1-1.4,0.2-2.1,0.2c-0.7,0.1-1.4,0.1-2,0.1c-1.6,0-3-0.2-4.2-0.7c-1.2-0.5-2.3-1.1-3.1-2
		s-1.5-1.9-1.9-3.1c-0.4-1.2-0.7-2.6-0.7-4.1c0-1.5,0.2-2.9,0.6-4.2c0.4-1.2,0.9-2.3,1.7-3.2c0.7-0.9,1.6-1.5,2.6-2
		c1-0.5,2.2-0.7,3.6-0.7c0.7,0,1.4,0.1,2,0.2c0.6,0.1,1.2,0.3,1.8,0.6V1.5l5.4-0.9V28z M364.5,19c0,1.7,0.4,3,1.1,4
		c0.7,1,1.8,1.5,3.3,1.5c0.5,0,0.9,0,1.3-0.1s0.7-0.1,1-0.1v-9.8c-0.3-0.2-0.8-0.4-1.3-0.5c-0.5-0.1-1.1-0.2-1.6-0.2
		C365.8,13.8,364.5,15.5,364.5,19z"/>
	<path id="XMLID_8_" fill="none" stroke="#999999" stroke-miterlimit="10" d="M380.8,19.3c0-1.7,0.3-3.1,0.8-4.4
		c0.5-1.3,1.2-2.3,2-3.1s1.8-1.5,2.9-1.9c1.1-0.4,2.2-0.6,3.4-0.6c2.7,0,4.8,0.8,6.4,2.5c1.6,1.6,2.3,4.1,2.3,7.3c0,0.3,0,0.7,0,1
		c0,0.4,0,0.7-0.1,1h-12.2c0.1,1.1,0.6,2,1.5,2.6c0.9,0.6,2.1,1,3.7,1c1,0,2-0.1,2.9-0.3c0.9-0.2,1.7-0.4,2.3-0.7l0.7,4.4
		c-0.3,0.1-0.7,0.3-1.2,0.4c-0.5,0.1-1,0.3-1.6,0.4c-0.6,0.1-1.2,0.2-1.9,0.3c-0.7,0.1-1.3,0.1-2,0.1c-1.7,0-3.2-0.3-4.4-0.8
		c-1.3-0.5-2.3-1.2-3.1-2.1c-0.8-0.9-1.4-1.9-1.8-3.1C381,21.9,380.8,20.7,380.8,19.3z M393.4,17.2c0-0.5-0.1-0.9-0.2-1.3
		c-0.1-0.4-0.3-0.8-0.6-1.2c-0.3-0.3-0.6-0.6-1-0.8c-0.4-0.2-0.9-0.3-1.6-0.3c-0.6,0-1.1,0.1-1.5,0.3c-0.4,0.2-0.8,0.5-1.1,0.8
		c-0.3,0.3-0.5,0.7-0.7,1.2s-0.3,0.9-0.3,1.3H393.4z"/>
	<path id="XMLID_5_" fill="none" stroke="#999999" stroke-miterlimit="10" d="M420.4,19.1c0,1.5-0.2,2.8-0.6,4.1s-1.1,2.3-1.9,3.2
		c-0.8,0.9-1.8,1.6-2.9,2c-1.1,0.5-2.4,0.7-3.8,0.7c-1.4,0-2.7-0.2-3.8-0.7c-1.1-0.5-2.1-1.2-2.9-2c-0.8-0.9-1.5-1.9-1.9-3.2
		s-0.7-2.6-0.7-4.1s0.2-2.8,0.7-4.1c0.5-1.2,1.1-2.3,1.9-3.1c0.8-0.9,1.8-1.5,3-2s2.4-0.7,3.7-0.7c1.4,0,2.6,0.2,3.8,0.7
		c1.1,0.5,2.1,1.2,2.9,2c0.8,0.9,1.5,1.9,1.9,3.1C420.2,16.2,420.4,17.6,420.4,19.1z M415,19.1c0-1.7-0.3-3-1-3.9
		c-0.7-0.9-1.6-1.4-2.8-1.4c-1.2,0-2.2,0.5-2.8,1.4c-0.7,0.9-1,2.3-1,3.9s0.3,3,1,3.9c0.7,1,1.6,1.5,2.8,1.5c1.2,0,2.2-0.5,2.8-1.5
		C414.6,22,415,20.7,415,19.1z"/>
	<path id="XMLID_3_" fill="none" stroke="#999999" stroke-miterlimit="10" d="M430,24.7c1,0,1.7-0.1,2.1-0.3s0.6-0.6,0.6-1.1
		c0-0.4-0.3-0.8-0.8-1.1c-0.5-0.3-1.3-0.7-2.4-1.1c-0.8-0.3-1.6-0.6-2.3-1s-1.3-0.7-1.7-1.2c-0.5-0.5-0.9-1-1.1-1.7
		c-0.3-0.6-0.4-1.4-0.4-2.3c0-1.8,0.7-3.2,2-4.2s3.1-1.5,5.4-1.5c1.2,0,2.3,0.1,3.3,0.3s1.9,0.4,2.5,0.7l-0.9,4.2
		c-0.6-0.2-1.3-0.4-2-0.6c-0.7-0.2-1.6-0.3-2.5-0.3c-1.7,0-2.5,0.5-2.5,1.4c0,0.2,0,0.4,0.1,0.6c0.1,0.2,0.2,0.3,0.4,0.5
		c0.2,0.2,0.5,0.3,0.9,0.5s0.8,0.4,1.4,0.6c1.2,0.4,2.1,0.9,2.9,1.3c0.8,0.4,1.4,0.9,1.8,1.4c0.4,0.5,0.8,1,0.9,1.6s0.3,1.3,0.3,2.1
		c0,1.9-0.7,3.3-2.1,4.2c-1.4,1-3.4,1.4-6,1.4c-1.7,0-3.1-0.1-4.2-0.4c-1.1-0.3-1.9-0.5-2.3-0.7l0.9-4.4c0.9,0.4,1.8,0.6,2.8,0.8
		C428.1,24.6,429.1,24.7,430,24.7z"/>
</g>
</svg>
