<?xml version="1.0" encoding="utf-8"?>
<!-- Generator: Adobe Illustrator 19.0.0, SVG Export Plug-In . SVG Version: 6.00 Build 0)  -->
<svg version="1.2" baseProfile="tiny" id="Layer_1" xmlns="http://www.w3.org/2000/svg" xmlns:xlink="http://www.w3.org/1999/xlink"
	 x="0px" y="0px" viewBox="0 0 439 36" width="439" height="36" xml:space="preserve">
<g id="XMLID_40_">
	<g id="XMLID_471_">
		<linearGradient id="XMLID_2_" gradientUnits="userSpaceOnUse" x1="-14.0622" y1="14.6647" x2="446.4378" y2="55.1647">
			<stop  offset="0" style="stop-color:#FF0042"/>
			<stop  offset="0.1069" style="stop-color:#F2004E"/>
			<stop  offset="0.3031" style="stop-color:#D1006D"/>
			<stop  offset="0.5666" style="stop-color:#9B00A0"/>
			<stop  offset="0.884" style="stop-color:#5100E5"/>
			<stop  offset="0.9944" style="stop-color:#3600FF"/>
			<stop  offset="1" style="stop-color:#3600FF"/>
		</linearGradient>
		<path id="XMLID_472_" fill="url(#XMLID_2_)" d="M14.1,28.4l-0.4,0.2c-0.7,0.3-1.4,0.5-2.2,0.7c-0.8,0.2-1.9,0.3-3,0.3
			c-1.5,0-2.8-0.2-3.8-0.6c-1-0.4-1.9-1-2.5-1.8c-0.6-0.8-1.1-1.7-1.3-2.8c-0.2-1-0.4-2.2-0.4-3.4V4.6l6.4-1v5.7h6.5v5.5H6.8v6.2
			c0,1,0.2,1.9,0.5,2.4c0.3,0.5,0.9,0.8,2,0.8c0.5,0,1.1-0.1,1.7-0.1c0.6-0.1,1.1-0.3,1.6-0.4l0.6-0.2L14.1,28.4z"/>
	</g>
	<g id="XMLID_465_">
		<linearGradient id="XMLID_3_" gradientUnits="userSpaceOnUse" x1="-14.1686" y1="15.8745" x2="446.3314" y2="56.3745">
			<stop  offset="0" style="stop-color:#FF0042"/>
			<stop  offset="0.1069" style="stop-color:#F2004E"/>
			<stop  offset="0.3031" style="stop-color:#D1006D"/>
			<stop  offset="0.5666" style="stop-color:#9B00A0"/>
			<stop  offset="0.884" style="stop-color:#5100E5"/>
			<stop  offset="0.9944" style="stop-color:#3600FF"/>
			<stop  offset="1" style="stop-color:#3600FF"/>
		</linearGradient>
		<path id="XMLID_469_" fill="url(#XMLID_3_)" d="M30,9.7l-1.1,5.3l-0.5-0.1c-0.5-0.1-1-0.3-1.7-0.4c-0.6-0.1-1.3-0.2-2-0.2
			c-0.3,0-0.7,0-1.1,0.1c-0.2,0-0.5,0.1-0.6,0.1v14.6h-6.4V10.3l0.3-0.1c1-0.4,2.1-0.7,3.5-1c1.3-0.3,2.8-0.5,4.5-0.5
			c0.3,0,0.7,0,1.1,0.1c0.4,0,0.8,0.1,1.3,0.1c0.4,0.1,0.8,0.1,1.3,0.2c0.4,0.1,0.8,0.2,1.1,0.3L30,9.7z"/>
	</g>
	<g id="XMLID_461_">
		<linearGradient id="XMLID_4_" gradientUnits="userSpaceOnUse" x1="-14.0446" y1="14.4641" x2="446.4554" y2="54.9641">
			<stop  offset="0" style="stop-color:#FF0042"/>
			<stop  offset="0.1069" style="stop-color:#F2004E"/>
			<stop  offset="0.3031" style="stop-color:#D1006D"/>
			<stop  offset="0.5666" style="stop-color:#9B00A0"/>
			<stop  offset="0.884" style="stop-color:#5100E5"/>
			<stop  offset="0.9944" style="stop-color:#3600FF"/>
			<stop  offset="1" style="stop-color:#3600FF"/>
		</linearGradient>
		<path id="XMLID_462_" fill="url(#XMLID_4_)" d="M47.1,13.6c-0.3-1-0.8-1.9-1.5-2.7c-0.7-0.7-1.6-1.3-2.7-1.7
			c-1.1-0.4-2.5-0.6-4.1-0.6c-0.6,0-1.3,0-1.9,0.1c-0.6,0.1-1.2,0.1-1.8,0.2c-0.6,0.1-1.1,0.2-1.6,0.3c-0.5,0.1-0.9,0.2-1.2,0.3
			l-0.4,0.1l0.8,5.4l0.6-0.2c0.6-0.2,1.4-0.4,2.2-0.5c0.9-0.1,1.8-0.2,2.6-0.2c1.2,0,2.1,0.2,2.5,0.7c0.4,0.4,0.7,1,0.7,1.7
			c-0.2,0-0.5-0.1-0.8-0.1c-0.6-0.1-1.2-0.1-1.9-0.1c-1.1,0-2.1,0.1-3.1,0.3c-1,0.2-1.9,0.6-2.7,1.1c-0.8,0.5-1.5,1.2-1.9,2
			c-0.5,0.9-0.7,1.9-0.7,3.1c0,1.2,0.2,2.3,0.6,3.1c0.4,0.9,1,1.6,1.8,2.1c0.8,0.5,1.7,0.9,2.8,1.1c1,0.2,2.2,0.3,3.4,0.3
			c2,0,3.7-0.1,5-0.4c1.4-0.2,2.5-0.4,3.2-0.6l0.4-0.1V16.9C47.5,15.7,47.4,14.6,47.1,13.6z M41.4,24.3c-0.2,0-0.4,0-0.7,0.1
			c-0.5,0-1,0-1.5,0c-0.9,0-1.6-0.1-2.1-0.4c-0.4-0.2-0.6-0.7-0.6-1.3c0-0.3,0.1-0.6,0.2-0.8c0.1-0.2,0.3-0.4,0.6-0.5
			c0.3-0.1,0.6-0.2,1-0.3c0.4-0.1,0.9-0.1,1.4-0.1c0.3,0,0.7,0,1.1,0.1c0.2,0,0.4,0.1,0.5,0.1V24.3z"/>
	</g>
	<g id="XMLID_457_">
		<linearGradient id="XMLID_5_" gradientUnits="userSpaceOnUse" x1="-12.6246" y1="-1.6814" x2="447.8754" y2="38.8186">
			<stop  offset="0" style="stop-color:#FF0042"/>
			<stop  offset="0.1069" style="stop-color:#F2004E"/>
			<stop  offset="0.3031" style="stop-color:#D1006D"/>
			<stop  offset="0.5666" style="stop-color:#9B00A0"/>
			<stop  offset="0.884" style="stop-color:#5100E5"/>
			<stop  offset="0.9944" style="stop-color:#3600FF"/>
			<stop  offset="1" style="stop-color:#3600FF"/>
		</linearGradient>
		<path id="XMLID_459_" fill="url(#XMLID_5_)" d="M58.2,4.2c0,1.1-0.4,2-1.1,2.7c-0.7,0.6-1.6,1-2.6,1c-1,0-1.9-0.3-2.6-1
			c-0.7-0.7-1.1-1.6-1.1-2.7c0-1.1,0.4-2,1.1-2.7c0.7-0.6,1.6-1,2.6-1c1,0,1.8,0.3,2.6,1C57.9,2.2,58.2,3.1,58.2,4.2z"/>
		<linearGradient id="XMLID_6_" gradientUnits="userSpaceOnUse" x1="-13.9283" y1="13.1423" x2="446.5717" y2="53.6423">
			<stop  offset="0" style="stop-color:#FF0042"/>
			<stop  offset="0.1069" style="stop-color:#F2004E"/>
			<stop  offset="0.3031" style="stop-color:#D1006D"/>
			<stop  offset="0.5666" style="stop-color:#9B00A0"/>
			<stop  offset="0.884" style="stop-color:#5100E5"/>
			<stop  offset="0.9944" style="stop-color:#3600FF"/>
			<stop  offset="1" style="stop-color:#3600FF"/>
		</linearGradient>
		<rect id="XMLID_458_" x="51.4" y="9.2" fill="url(#XMLID_6_)" width="6.4" height="19.9"/>
	</g>
	<g id="XMLID_455_">
		<linearGradient id="XMLID_7_" gradientUnits="userSpaceOnUse" x1="-13.8184" y1="11.8921" x2="446.6816" y2="52.3921">
			<stop  offset="0" style="stop-color:#FF0042"/>
			<stop  offset="0.1069" style="stop-color:#F2004E"/>
			<stop  offset="0.3031" style="stop-color:#D1006D"/>
			<stop  offset="0.5666" style="stop-color:#9B00A0"/>
			<stop  offset="0.884" style="stop-color:#5100E5"/>
			<stop  offset="0.9944" style="stop-color:#3600FF"/>
			<stop  offset="1" style="stop-color:#3600FF"/>
		</linearGradient>
		<path id="XMLID_456_" fill="url(#XMLID_7_)" d="M79.1,17.9v11.2h-6.4V18.6c0-1.6-0.2-2.8-0.6-3.4c-0.4-0.6-1.1-0.8-2.1-0.8
			c-0.4,0-0.8,0-1.2,0c-0.2,0-0.5,0.1-0.7,0.1v14.7h-6.4V10l0.4-0.1c0.9-0.3,2.1-0.5,3.6-0.8c1.5-0.2,3-0.3,4.6-0.3
			c1.7,0,3.1,0.2,4.2,0.7c1.1,0.5,2.1,1.1,2.7,1.9c0.7,0.8,1.2,1.8,1.4,2.9C79,15.4,79.1,16.6,79.1,17.9z"/>
	</g>
	<g id="XMLID_452_">
		<linearGradient id="XMLID_8_" gradientUnits="userSpaceOnUse" x1="-12.382" y1="-4.4396" x2="448.118" y2="36.0604">
			<stop  offset="0" style="stop-color:#FF0042"/>
			<stop  offset="0.1069" style="stop-color:#F2004E"/>
			<stop  offset="0.3031" style="stop-color:#D1006D"/>
			<stop  offset="0.5666" style="stop-color:#9B00A0"/>
			<stop  offset="0.884" style="stop-color:#5100E5"/>
			<stop  offset="0.9944" style="stop-color:#3600FF"/>
			<stop  offset="1" style="stop-color:#3600FF"/>
		</linearGradient>
		<path id="XMLID_454_" fill="url(#XMLID_8_)" d="M89.8,4.2c0,1.1-0.4,2-1.1,2.7c-0.7,0.6-1.6,1-2.6,1c-1,0-1.8-0.3-2.6-1
			c-0.7-0.7-1.1-1.6-1.1-2.7c0-1.1,0.4-2,1.1-2.7c0.7-0.6,1.6-1,2.6-1c1,0,1.9,0.3,2.6,1C89.5,2.2,89.8,3.1,89.8,4.2z"/>
		<linearGradient id="XMLID_9_" gradientUnits="userSpaceOnUse" x1="-13.6857" y1="10.384" x2="446.8143" y2="50.884">
			<stop  offset="0" style="stop-color:#FF0042"/>
			<stop  offset="0.1069" style="stop-color:#F2004E"/>
			<stop  offset="0.3031" style="stop-color:#D1006D"/>
			<stop  offset="0.5666" style="stop-color:#9B00A0"/>
			<stop  offset="0.884" style="stop-color:#5100E5"/>
			<stop  offset="0.9944" style="stop-color:#3600FF"/>
			<stop  offset="1" style="stop-color:#3600FF"/>
		</linearGradient>
		<rect id="XMLID_453_" x="83" y="9.2" fill="url(#XMLID_9_)" width="6.4" height="19.9"/>
	</g>
	<g id="XMLID_440_">
		<linearGradient id="XMLID_10_" gradientUnits="userSpaceOnUse" x1="-13.5758" y1="9.1339" x2="446.9242" y2="49.6339">
			<stop  offset="0" style="stop-color:#FF0042"/>
			<stop  offset="0.1069" style="stop-color:#F2004E"/>
			<stop  offset="0.3031" style="stop-color:#D1006D"/>
			<stop  offset="0.5666" style="stop-color:#9B00A0"/>
			<stop  offset="0.884" style="stop-color:#5100E5"/>
			<stop  offset="0.9944" style="stop-color:#3600FF"/>
			<stop  offset="1" style="stop-color:#3600FF"/>
		</linearGradient>
		<path id="XMLID_441_" fill="url(#XMLID_10_)" d="M110.7,17.9v11.2h-6.4V18.6c0-1.6-0.2-2.8-0.6-3.4c-0.4-0.6-1.1-0.8-2.1-0.8
			c-0.4,0-0.8,0-1.2,0c-0.3,0-0.5,0.1-0.7,0.1v14.7h-6.4V10l0.4-0.1c0.9-0.3,2.1-0.5,3.6-0.8c1.5-0.2,3-0.3,4.6-0.3
			c1.7,0,3.1,0.2,4.2,0.7c1.2,0.5,2.1,1.1,2.8,1.9c0.7,0.8,1.2,1.8,1.4,2.9C110.6,15.4,110.7,16.6,110.7,17.9z"/>
	</g>
	<g id="XMLID_436_">
		<linearGradient id="XMLID_11_" gradientUnits="userSpaceOnUse" x1="-13.6802" y1="10.3214" x2="446.8198" y2="50.8214">
			<stop  offset="0" style="stop-color:#FF0042"/>
			<stop  offset="0.1069" style="stop-color:#F2004E"/>
			<stop  offset="0.3031" style="stop-color:#D1006D"/>
			<stop  offset="0.5666" style="stop-color:#9B00A0"/>
			<stop  offset="0.884" style="stop-color:#5100E5"/>
			<stop  offset="0.9944" style="stop-color:#3600FF"/>
			<stop  offset="1" style="stop-color:#3600FF"/>
		</linearGradient>
		<path id="XMLID_437_" fill="url(#XMLID_11_)" d="M131.6,9.9c-0.5-0.1-1-0.3-1.7-0.4c-0.6-0.1-1.3-0.3-2-0.3
			c-0.7-0.1-1.4-0.2-2.1-0.2c-2.4-0.2-4.5-0.1-6.3,0.6c-1.3,0.5-2.3,1.2-3.2,2c-0.9,0.9-1.5,1.9-2,3.1c-0.5,1.2-0.7,2.5-0.7,4
			c0,2.9,0.7,5.2,2.2,6.8c1.5,1.7,3.6,2.5,6.4,2.5c0.8,0,1.5-0.1,2.1-0.2c0.4-0.1,0.8-0.2,1.2-0.3c0,0.9-0.3,1.6-0.8,2.2
			c-0.5,0.6-1.5,0.8-2.9,0.8c-1.1,0-2.2-0.1-3-0.3c-0.9-0.2-1.8-0.4-2.6-0.8l-0.5-0.2l-1.2,5.5l0.4,0.1c1,0.3,2.1,0.6,3.3,0.8
			s2.4,0.3,3.5,0.3c3.4,0,6-0.8,7.6-2.4c1.7-1.6,2.5-4,2.5-7.3V10L131.6,9.9z M123.3,22.6c-1.3,0-3.1-0.4-3.1-4
			c0-1.3,0.3-2.4,0.9-3.3c0.6-0.8,1.5-1.2,2.8-1.2c0.5,0,0.9,0,1.2,0c0.2,0,0.3,0,0.5,0.1V22c-0.3,0.1-0.5,0.2-0.9,0.3
			C124.3,22.5,123.8,22.6,123.3,22.6z"/>
	</g>
	<g id="XMLID_424_">
		<linearGradient id="XMLID_12_" gradientUnits="userSpaceOnUse" x1="-12.899" y1="1.4383" x2="447.601" y2="41.9383">
			<stop  offset="0" style="stop-color:#FF0042"/>
			<stop  offset="0.1069" style="stop-color:#F2004E"/>
			<stop  offset="0.3031" style="stop-color:#D1006D"/>
			<stop  offset="0.5666" style="stop-color:#9B00A0"/>
			<stop  offset="0.884" style="stop-color:#5100E5"/>
			<stop  offset="0.9944" style="stop-color:#3600FF"/>
			<stop  offset="1" style="stop-color:#3600FF"/>
		</linearGradient>
		<path id="XMLID_425_" fill="url(#XMLID_12_)" d="M168,28.4c-0.5-1-1.2-2.1-1.9-3.1c-0.7-0.9-1.4-1.8-2-2.6
			c0.2-0.4,0.4-0.8,0.6-1.3c0.2-0.5,0.4-1.1,0.6-1.7c0.2-0.6,0.3-1.1,0.5-1.7c0.1-0.6,0.2-1.1,0.3-1.6l0.1-0.5l-5.5-0.7l0,0.5
			c0,0.5-0.2,1.1-0.4,1.8c-0.1,0.4-0.2,0.7-0.3,1.1l-3.1-3c1.1-0.7,2-1.6,2.8-2.7c0.9-1.2,1.3-2.6,1.3-4.2c0-0.9-0.2-1.7-0.5-2.4
			c-0.3-0.7-0.8-1.4-1.4-2c-0.6-0.6-1.4-1-2.3-1.3c-0.9-0.3-1.9-0.5-3.1-0.5c-2.3,0-4.2,0.6-5.6,1.8c-1.4,1.2-2.1,3-2.1,5.3
			c0,1,0.3,2,0.8,2.9c0.4,0.6,0.8,1.3,1.2,1.9c-0.5,0.3-1,0.6-1.4,1c-0.6,0.5-1.2,1.1-1.6,1.7c-0.5,0.6-0.8,1.4-1.1,2.2
			c-0.3,0.8-0.4,1.7-0.4,2.7c0,0.9,0.2,1.8,0.5,2.6c0.3,0.9,0.8,1.7,1.6,2.4c0.7,0.7,1.7,1.3,2.9,1.7c1.2,0.4,2.7,0.7,4.4,0.7
			c1.6,0,3.1-0.3,4.5-0.8c1.2-0.5,2.2-1.1,3.1-1.7c0.2,0.3,0.4,0.5,0.6,0.8c0.3,0.5,0.6,0.8,0.8,1.2l0.1,0.2h6.6L168,28.4z
			 M155.3,23.9c-0.7,0.3-1.5,0.4-2.5,0.4c-0.7,0-1.2-0.1-1.7-0.3c-0.4-0.2-0.8-0.4-1.1-0.7c-0.3-0.3-0.5-0.6-0.6-0.9
			c-0.1-0.3-0.2-0.6-0.2-0.9c0-0.5,0.1-0.9,0.2-1.2c0.1-0.4,0.3-0.7,0.6-1c0.2-0.3,0.5-0.6,0.8-0.8c0.2-0.2,0.4-0.3,0.6-0.4l5.1,5.1
			C156.3,23.5,155.8,23.7,155.3,23.9z M155.3,9.1c0,0.8-0.2,1.5-0.7,2c-0.4,0.5-1,0.9-1.5,1.3c-0.4-0.4-0.8-0.9-1-1.3
			c-0.3-0.5-0.5-1-0.5-1.6c0-0.6,0.2-1.1,0.5-1.5c0.3-0.4,0.8-0.5,1.4-0.5c0.7,0,1.2,0.2,1.4,0.5C155.2,8.2,155.3,8.6,155.3,9.1z"/>
	</g>
	<g id="XMLID_422_">
		<linearGradient id="XMLID_13_" gradientUnits="userSpaceOnUse" x1="-12.9252" y1="1.7366" x2="447.5748" y2="42.2366">
			<stop  offset="0" style="stop-color:#FF0042"/>
			<stop  offset="0.1069" style="stop-color:#F2004E"/>
			<stop  offset="0.3031" style="stop-color:#D1006D"/>
			<stop  offset="0.5666" style="stop-color:#9B00A0"/>
			<stop  offset="0.884" style="stop-color:#5100E5"/>
			<stop  offset="0.9944" style="stop-color:#3600FF"/>
			<stop  offset="1" style="stop-color:#3600FF"/>
		</linearGradient>
		<path id="XMLID_423_" fill="url(#XMLID_13_)" d="M192,9.7l-1.1,5.3l-0.5-0.1c-0.5-0.1-1-0.3-1.7-0.4c-0.6-0.1-1.3-0.2-2-0.2
			c-0.3,0-0.7,0-1.1,0.1c-0.2,0-0.5,0.1-0.6,0.1v14.6h-6.4V10.3l0.3-0.1c1-0.4,2.1-0.7,3.5-1c1.3-0.3,2.8-0.5,4.5-0.5
			c0.3,0,0.7,0,1.1,0.1s0.8,0.1,1.3,0.1c0.4,0.1,0.8,0.1,1.3,0.2c0.4,0.1,0.8,0.2,1.1,0.3L192,9.7z"/>
	</g>
	<g id="XMLID_417_">
		<linearGradient id="XMLID_14_" gradientUnits="userSpaceOnUse" x1="-12.7926" y1="0.2284" x2="447.7074" y2="40.7284">
			<stop  offset="0" style="stop-color:#FF0042"/>
			<stop  offset="0.1069" style="stop-color:#F2004E"/>
			<stop  offset="0.3031" style="stop-color:#D1006D"/>
			<stop  offset="0.5666" style="stop-color:#9B00A0"/>
			<stop  offset="0.884" style="stop-color:#5100E5"/>
			<stop  offset="0.9944" style="stop-color:#3600FF"/>
			<stop  offset="1" style="stop-color:#3600FF"/>
		</linearGradient>
		<path id="XMLID_419_" fill="url(#XMLID_14_)" d="M208.9,11.3c-1.7-1.7-3.9-2.6-6.7-2.6c-1.2,0-2.4,0.2-3.6,0.7
			c-1.1,0.4-2.2,1.1-3.1,2c-0.9,0.9-1.6,2-2.1,3.3c-0.5,1.3-0.8,2.9-0.8,4.6c0,1.4,0.2,2.8,0.6,4.1c0.4,1.3,1.1,2.4,2,3.3
			c0.9,0.9,2,1.7,3.3,2.2c1.3,0.5,2.9,0.8,4.6,0.8c0.7,0,1.4,0,2.1-0.1c0.7-0.1,1.3-0.2,1.9-0.3c0.6-0.1,1.1-0.2,1.6-0.4
			c0.5-0.2,0.9-0.3,1.2-0.5l0.3-0.2l-0.9-5.4l-0.6,0.3c-0.6,0.3-1.3,0.5-2.2,0.6c-0.9,0.2-1.9,0.3-2.8,0.3c-1.4,0-2.6-0.3-3.4-0.9
			c-0.6-0.5-1-1-1.2-1.7h12l0-0.5c0-0.3,0-0.6,0.1-1c0-0.4,0-0.7,0-1C211.3,15.6,210.5,13,208.9,11.3z M200,15.1
			c0.2-0.3,0.6-0.5,0.9-0.7c0.8-0.4,2-0.3,2.7,0c0.4,0.2,0.7,0.4,0.9,0.7c0.2,0.3,0.4,0.6,0.5,1c0.1,0.2,0.1,0.5,0.2,0.7h-5.9
			c0.1-0.2,0.1-0.5,0.2-0.7C199.5,15.7,199.7,15.3,200,15.1z"/>
	</g>
	<g id="XMLID_413_">
		<linearGradient id="XMLID_15_" gradientUnits="userSpaceOnUse" x1="-12.9135" y1="1.6034" x2="447.5865" y2="42.1034">
			<stop  offset="0" style="stop-color:#FF0042"/>
			<stop  offset="0.1069" style="stop-color:#F2004E"/>
			<stop  offset="0.3031" style="stop-color:#D1006D"/>
			<stop  offset="0.5666" style="stop-color:#9B00A0"/>
			<stop  offset="0.884" style="stop-color:#5100E5"/>
			<stop  offset="0.9944" style="stop-color:#3600FF"/>
			<stop  offset="1" style="stop-color:#3600FF"/>
		</linearGradient>
		<path id="XMLID_414_" fill="url(#XMLID_15_)" d="M231.5,9.9c-0.5-0.1-1-0.3-1.7-0.4c-0.6-0.1-1.3-0.3-2-0.3
			c-0.7-0.1-1.4-0.2-2.1-0.2c-2.4-0.2-4.5-0.1-6.3,0.6c-1.3,0.5-2.3,1.2-3.2,2c-0.9,0.9-1.5,1.9-2,3.1c-0.5,1.2-0.7,2.5-0.7,4
			c0,2.9,0.7,5.2,2.2,6.8c1.5,1.7,3.6,2.5,6.4,2.5c0.8,0,1.4-0.1,2.1-0.2c0.4-0.1,0.8-0.2,1.2-0.3c0,0.9-0.3,1.6-0.8,2.2
			c-0.5,0.6-1.5,0.8-2.9,0.8c-1.1,0-2.2-0.1-3-0.3c-0.9-0.2-1.8-0.4-2.6-0.8l-0.5-0.2l-1.1,5.5l0.4,0.1c1,0.3,2.1,0.6,3.3,0.8
			c1.2,0.2,2.4,0.3,3.5,0.3c3.4,0,6-0.8,7.6-2.4c1.7-1.6,2.5-4,2.5-7.3V10L231.5,9.9z M221,15.3c0.6-0.8,1.5-1.2,2.8-1.2
			c0.5,0,0.9,0,1.2,0c0.2,0,0.3,0,0.5,0.1V22c-0.3,0.1-0.5,0.2-0.9,0.3c-0.4,0.1-0.9,0.2-1.4,0.2c-1.3,0-3.1-0.4-3.1-4
			C220.1,17.2,220.4,16.1,221,15.3z"/>
	</g>
	<g id="XMLID_405_">
		<linearGradient id="XMLID_16_" gradientUnits="userSpaceOnUse" x1="-12.5122" y1="-2.9591" x2="447.9878" y2="37.5409">
			<stop  offset="0" style="stop-color:#FF0042"/>
			<stop  offset="0.1069" style="stop-color:#F2004E"/>
			<stop  offset="0.3031" style="stop-color:#D1006D"/>
			<stop  offset="0.5666" style="stop-color:#9B00A0"/>
			<stop  offset="0.884" style="stop-color:#5100E5"/>
			<stop  offset="0.9944" style="stop-color:#3600FF"/>
			<stop  offset="1" style="stop-color:#3600FF"/>
		</linearGradient>
		<rect id="XMLID_407_" x="235.9" y="9.2" fill="url(#XMLID_16_)" width="6.4" height="19.9"/>
		<linearGradient id="XMLID_17_" gradientUnits="userSpaceOnUse" x1="-11.2085" y1="-17.7827" x2="449.2915" y2="22.7173">
			<stop  offset="0" style="stop-color:#FF0042"/>
			<stop  offset="0.1069" style="stop-color:#F2004E"/>
			<stop  offset="0.3031" style="stop-color:#D1006D"/>
			<stop  offset="0.5666" style="stop-color:#9B00A0"/>
			<stop  offset="0.884" style="stop-color:#5100E5"/>
			<stop  offset="0.9944" style="stop-color:#3600FF"/>
			<stop  offset="1" style="stop-color:#3600FF"/>
		</linearGradient>
		<path id="XMLID_406_" fill="url(#XMLID_17_)" d="M242.7,4.2c0,1.1-0.4,2-1.1,2.7c-0.7,0.6-1.6,1-2.6,1c-1,0-1.8-0.3-2.6-1
			c-0.7-0.7-1.1-1.6-1.1-2.7c0-1.1,0.4-2,1.1-2.7c0.7-0.6,1.6-1,2.6-1c1,0,1.9,0.3,2.6,1C242.4,2.2,242.7,3.1,242.7,4.2z"/>
	</g>
	<g id="XMLID_401_">
		<linearGradient id="XMLID_18_" gradientUnits="userSpaceOnUse" x1="-12.3884" y1="-4.3677" x2="448.1116" y2="36.1323">
			<stop  offset="0" style="stop-color:#FF0042"/>
			<stop  offset="0.1069" style="stop-color:#F2004E"/>
			<stop  offset="0.3031" style="stop-color:#D1006D"/>
			<stop  offset="0.5666" style="stop-color:#9B00A0"/>
			<stop  offset="0.884" style="stop-color:#5100E5"/>
			<stop  offset="0.9944" style="stop-color:#3600FF"/>
			<stop  offset="1" style="stop-color:#3600FF"/>
		</linearGradient>
		<path id="XMLID_402_" fill="url(#XMLID_18_)" d="M264.3,14.9c-0.5-1.3-1.2-2.4-2-3.3c-0.9-0.9-1.9-1.6-3.1-2.1c-2.4-1-5.5-1-7.9,0
			c-1.2,0.5-2.3,1.2-3.1,2.1c-0.9,0.9-1.6,2-2,3.3c-0.5,1.3-0.7,2.7-0.7,4.3s0.2,3,0.7,4.3c0.5,1.3,1.2,2.4,2,3.3
			c0.9,0.9,1.9,1.6,3.1,2.2c1.2,0.5,2.5,0.8,4,0.8c1.5,0,2.8-0.3,4-0.8c1.2-0.5,2.2-1.2,3.1-2.2c0.9-0.9,1.5-2.1,2-3.3
			c0.5-1.3,0.7-2.7,0.7-4.3S264.7,16.2,264.3,14.9z M257.6,22.8c-0.6,0.8-1.4,1.2-2.4,1.2c-1.1,0-1.9-0.4-2.4-1.2
			c-0.6-0.9-0.9-2.1-0.9-3.7c0-1.5,0.3-2.8,0.9-3.6c0.6-0.8,1.4-1.2,2.4-1.2c1.1,0,1.8,0.4,2.4,1.2c0.6,0.9,0.9,2.1,0.9,3.6
			C258.5,20.7,258.2,21.9,257.6,22.8z"/>
	</g>
	<g id="XMLID_399_">
		<linearGradient id="XMLID_19_" gradientUnits="userSpaceOnUse" x1="-12.2346" y1="-6.1162" x2="448.2654" y2="34.3838">
			<stop  offset="0" style="stop-color:#FF0042"/>
			<stop  offset="0.1069" style="stop-color:#F2004E"/>
			<stop  offset="0.3031" style="stop-color:#D1006D"/>
			<stop  offset="0.5666" style="stop-color:#9B00A0"/>
			<stop  offset="0.884" style="stop-color:#5100E5"/>
			<stop  offset="0.9944" style="stop-color:#3600FF"/>
			<stop  offset="1" style="stop-color:#3600FF"/>
		</linearGradient>
		<path id="XMLID_400_" fill="url(#XMLID_19_)" d="M285.5,17.9v11.2h-6.4V18.6c0-1.6-0.2-2.8-0.6-3.4c-0.4-0.6-1.1-0.8-2.1-0.8
			c-0.4,0-0.8,0-1.2,0c-0.2,0-0.5,0.1-0.7,0.1v14.7h-6.4V10l0.4-0.1c0.9-0.3,2.1-0.5,3.6-0.8c1.5-0.2,3-0.3,4.6-0.3
			c1.7,0,3.1,0.2,4.2,0.7c1.1,0.5,2.1,1.1,2.7,1.9c0.7,0.8,1.1,1.8,1.4,2.9C285.3,15.4,285.5,16.6,285.5,17.9z"/>
	</g>
	<g id="XMLID_393_">
		<linearGradient id="XMLID_20_" gradientUnits="userSpaceOnUse" x1="-12.0654" y1="-8.0404" x2="448.4347" y2="32.4596">
			<stop  offset="0" style="stop-color:#FF0042"/>
			<stop  offset="0.1069" style="stop-color:#F2004E"/>
			<stop  offset="0.3031" style="stop-color:#D1006D"/>
			<stop  offset="0.5666" style="stop-color:#9B00A0"/>
			<stop  offset="0.884" style="stop-color:#5100E5"/>
			<stop  offset="0.9944" style="stop-color:#3600FF"/>
			<stop  offset="1" style="stop-color:#3600FF"/>
		</linearGradient>
		<path id="XMLID_394_" fill="url(#XMLID_20_)" d="M305,13.6c-0.3-1-0.8-1.9-1.5-2.7c-0.7-0.7-1.6-1.3-2.7-1.7
			c-1.1-0.4-2.5-0.6-4.1-0.6c-0.6,0-1.3,0-1.9,0.1c-0.6,0.1-1.2,0.1-1.8,0.2c-0.6,0.1-1.1,0.2-1.6,0.3c-0.5,0.1-0.9,0.2-1.2,0.3
			l-0.4,0.1l0.9,5.4l0.6-0.2c0.6-0.2,1.3-0.4,2.2-0.5c0.9-0.1,1.8-0.2,2.6-0.2c1.2,0,2.1,0.2,2.5,0.7c0.4,0.4,0.7,1,0.7,1.7
			c-0.2,0-0.5-0.1-0.8-0.1c-0.6-0.1-1.2-0.1-1.9-0.1c-1.1,0-2.1,0.1-3.1,0.3c-1,0.2-1.9,0.6-2.7,1.1c-0.8,0.5-1.5,1.2-2,2
			c-0.5,0.9-0.7,1.9-0.7,3.1c0,1.2,0.2,2.3,0.6,3.1c0.4,0.9,1,1.6,1.8,2.1c0.8,0.5,1.7,0.9,2.8,1.1c1,0.2,2.2,0.3,3.4,0.3
			c2,0,3.7-0.1,5-0.4c1.4-0.2,2.5-0.4,3.2-0.6l0.4-0.1V16.9C305.4,15.7,305.2,14.6,305,13.6z M299.2,24.3c-0.2,0-0.4,0-0.7,0.1
			c-0.5,0-1,0-1.5,0c-0.9,0-1.6-0.1-2.1-0.4c-0.4-0.2-0.6-0.7-0.6-1.3c0-0.3,0.1-0.6,0.2-0.8c0.1-0.2,0.3-0.4,0.6-0.5
			c0.3-0.1,0.6-0.2,1-0.3c0.4-0.1,0.9-0.1,1.4-0.1c0.3,0,0.7,0,1.1,0.1c0.2,0,0.4,0.1,0.5,0.1V24.3z"/>
	</g>
	<g id="XMLID_385_">
		<linearGradient id="XMLID_21_" gradientUnits="userSpaceOnUse" x1="-11.5396" y1="-14.0186" x2="448.9604" y2="26.4814">
			<stop  offset="0" style="stop-color:#FF0042"/>
			<stop  offset="0.1069" style="stop-color:#F2004E"/>
			<stop  offset="0.3031" style="stop-color:#D1006D"/>
			<stop  offset="0.5666" style="stop-color:#9B00A0"/>
			<stop  offset="0.884" style="stop-color:#5100E5"/>
			<stop  offset="0.9944" style="stop-color:#3600FF"/>
			<stop  offset="1" style="stop-color:#3600FF"/>
		</linearGradient>
		<path id="XMLID_392_" fill="url(#XMLID_21_)" d="M318.6,24.1l-0.9,5.4h-0.4c-1.6,0-2.9-0.2-3.9-0.5c-1-0.3-1.9-0.8-2.5-1.4
			c-0.6-0.6-1.1-1.4-1.3-2.3c-0.2-0.8-0.3-1.8-0.3-2.8V1.1l6.4-1v21.2c0,0.4,0,0.8,0.1,1.2c0.1,0.3,0.2,0.6,0.3,0.8
			c0.2,0.2,0.4,0.4,0.7,0.5c0.3,0.1,0.8,0.2,1.4,0.3L318.6,24.1z"/>
	</g>
	<g id="XMLID_383_">
		<linearGradient id="XMLID_22_" gradientUnits="userSpaceOnUse" x1="-11.7297" y1="-11.8566" x2="448.7703" y2="28.6434">
			<stop  offset="0" style="stop-color:#FF0042"/>
			<stop  offset="0.1069" style="stop-color:#F2004E"/>
			<stop  offset="0.3031" style="stop-color:#D1006D"/>
			<stop  offset="0.5666" style="stop-color:#9B00A0"/>
			<stop  offset="0.884" style="stop-color:#5100E5"/>
			<stop  offset="0.9944" style="stop-color:#3600FF"/>
			<stop  offset="1" style="stop-color:#3600FF"/>
		</linearGradient>
		<path id="XMLID_384_" fill="url(#XMLID_22_)" d="M347.4,9.2l-0.2,0.6c-1.1,3.8-2.3,7.3-3.6,10.5c-1.3,3.2-2.5,6.1-3.8,8.5
			l-0.1,0.3h-5.1l-0.1-0.3c-1.2-2.4-2.5-5.3-3.8-8.5c-1.3-3.2-2.5-6.8-3.6-10.5l-0.2-0.6h6.8l0.1,0.4c0.2,0.9,0.5,1.9,0.8,3
			c0.3,1.1,0.7,2.2,1,3.3c0.3,1.1,0.7,2.2,1,3.3c0.2,0.6,0.4,1.1,0.5,1.6c0.2-0.5,0.4-1,0.6-1.6c0.4-1.1,0.7-2.1,1.1-3.3
			c0.3-1.1,0.7-2.2,1-3.3c0.3-1.1,0.6-2.1,0.9-3l0.1-0.4H347.4z"/>
	</g>
	<g id="XMLID_377_">
		<linearGradient id="XMLID_23_" gradientUnits="userSpaceOnUse" x1="-10.3398" y1="-27.6602" x2="450.1602" y2="12.8398">
			<stop  offset="0" style="stop-color:#FF0042"/>
			<stop  offset="0.1069" style="stop-color:#F2004E"/>
			<stop  offset="0.3031" style="stop-color:#D1006D"/>
			<stop  offset="0.5666" style="stop-color:#9B00A0"/>
			<stop  offset="0.884" style="stop-color:#5100E5"/>
			<stop  offset="0.9944" style="stop-color:#3600FF"/>
			<stop  offset="1" style="stop-color:#3600FF"/>
		</linearGradient>
		<path id="XMLID_381_" fill="url(#XMLID_23_)" d="M355.9,4.2c0,1.1-0.4,2-1.1,2.7c-0.7,0.6-1.6,1-2.6,1c-1,0-1.8-0.3-2.6-1
			c-0.7-0.7-1.1-1.6-1.1-2.7c0-1.1,0.4-2,1.1-2.7c0.7-0.6,1.6-1,2.6-1c1,0,1.9,0.3,2.6,1C355.5,2.2,355.9,3.1,355.9,4.2z"/>
		<linearGradient id="XMLID_24_" gradientUnits="userSpaceOnUse" x1="-11.6435" y1="-12.8367" x2="448.8565" y2="27.6633">
			<stop  offset="0" style="stop-color:#FF0042"/>
			<stop  offset="0.1069" style="stop-color:#F2004E"/>
			<stop  offset="0.3031" style="stop-color:#D1006D"/>
			<stop  offset="0.5666" style="stop-color:#9B00A0"/>
			<stop  offset="0.884" style="stop-color:#5100E5"/>
			<stop  offset="0.9944" style="stop-color:#3600FF"/>
			<stop  offset="1" style="stop-color:#3600FF"/>
		</linearGradient>
		<rect id="XMLID_379_" x="349" y="9.2" fill="url(#XMLID_24_)" width="6.4" height="19.9"/>
	</g>
	<g id="XMLID_348_">
		<linearGradient id="XMLID_25_" gradientUnits="userSpaceOnUse" x1="-11.1098" y1="-18.905" x2="449.3902" y2="21.595">
			<stop  offset="0" style="stop-color:#FF0042"/>
			<stop  offset="0.1069" style="stop-color:#F2004E"/>
			<stop  offset="0.3031" style="stop-color:#D1006D"/>
			<stop  offset="0.5666" style="stop-color:#9B00A0"/>
			<stop  offset="0.884" style="stop-color:#5100E5"/>
			<stop  offset="0.9944" style="stop-color:#3600FF"/>
			<stop  offset="1" style="stop-color:#3600FF"/>
		</linearGradient>
		<path id="XMLID_371_" fill="url(#XMLID_25_)" d="M370.8,1.1v8.3c-0.4-0.1-0.8-0.3-1.2-0.4c-0.6-0.1-1.3-0.2-2.1-0.2
			c-1.4,0-2.7,0.3-3.8,0.7c-1.1,0.5-2.1,1.2-2.8,2.1c-0.8,0.9-1.3,2-1.8,3.3c-0.4,1.3-0.6,2.7-0.6,4.3c0,1.6,0.2,3,0.7,4.3
			c0.5,1.3,1.1,2.4,2,3.3c0.9,0.9,2,1.6,3.3,2.1c1.3,0.5,2.7,0.7,4.3,0.7c0.7,0,1.3,0,2.1-0.1c0.7-0.1,1.4-0.1,2.1-0.2
			c0.7-0.1,1.4-0.2,2-0.3c0.6-0.1,1.2-0.3,1.7-0.4l0.4-0.1V0.1L370.8,1.1z M366,22.7c-0.7-0.9-1-2.2-1-3.7c0-4.2,1.9-4.7,3.3-4.7
			c0.5,0,1,0.1,1.5,0.2c0.4,0.1,0.7,0.2,1,0.3v9c-0.2,0-0.3,0-0.6,0.1c-0.4,0-0.8,0.1-1.3,0.1C367.6,24,366.7,23.6,366,22.7z"/>
	</g>
	<g id="XMLID_277_">
		<linearGradient id="XMLID_26_" gradientUnits="userSpaceOnUse" x1="-11.3516" y1="-16.1561" x2="449.1484" y2="24.3439">
			<stop  offset="0" style="stop-color:#FF0042"/>
			<stop  offset="0.1069" style="stop-color:#F2004E"/>
			<stop  offset="0.3031" style="stop-color:#D1006D"/>
			<stop  offset="0.5666" style="stop-color:#9B00A0"/>
			<stop  offset="0.884" style="stop-color:#5100E5"/>
			<stop  offset="0.9944" style="stop-color:#3600FF"/>
			<stop  offset="1" style="stop-color:#3600FF"/>
		</linearGradient>
		<path id="XMLID_339_" fill="url(#XMLID_26_)" d="M396.6,11.3c-1.7-1.7-3.9-2.6-6.7-2.6c-1.2,0-2.4,0.2-3.5,0.7
			c-1.2,0.4-2.2,1.1-3.1,2c-0.9,0.9-1.6,2-2.1,3.3c-0.5,1.3-0.8,2.9-0.8,4.6c0,1.4,0.2,2.8,0.6,4.1c0.4,1.3,1.1,2.4,1.9,3.3
			c0.9,0.9,2,1.7,3.3,2.2c1.3,0.5,2.9,0.8,4.6,0.8c0.7,0,1.4,0,2.1-0.1c0.7-0.1,1.3-0.2,1.9-0.3c0.6-0.1,1.2-0.2,1.7-0.4
			c0.5-0.2,0.9-0.3,1.2-0.5l0.3-0.2l-0.9-5.4l-0.6,0.3c-0.6,0.3-1.3,0.5-2.2,0.6c-0.9,0.2-1.9,0.3-2.8,0.3c-1.4,0-2.6-0.3-3.4-0.9
			c-0.6-0.5-1-1-1.2-1.7h12l0-0.5c0-0.3,0-0.6,0.1-1c0-0.4,0-0.7,0-1C399.1,15.6,398.2,13,396.6,11.3z M387.7,15.1
			c0.2-0.3,0.5-0.5,0.9-0.7c0.7-0.4,2-0.3,2.7,0c0.4,0.2,0.7,0.4,0.9,0.7c0.2,0.3,0.4,0.6,0.5,1c0.1,0.2,0.1,0.5,0.1,0.7h-5.9
			c0-0.2,0.1-0.5,0.2-0.7C387.2,15.7,387.4,15.3,387.7,15.1z"/>
	</g>
	<g id="XMLID_146_">
		<linearGradient id="XMLID_27_" gradientUnits="userSpaceOnUse" x1="-11.1914" y1="-17.9779" x2="449.3086" y2="22.5221">
			<stop  offset="0" style="stop-color:#FF0042"/>
			<stop  offset="0.1069" style="stop-color:#F2004E"/>
			<stop  offset="0.3031" style="stop-color:#D1006D"/>
			<stop  offset="0.5666" style="stop-color:#9B00A0"/>
			<stop  offset="0.884" style="stop-color:#5100E5"/>
			<stop  offset="0.9944" style="stop-color:#3600FF"/>
			<stop  offset="1" style="stop-color:#3600FF"/>
		</linearGradient>
		<path id="XMLID_148_" fill="url(#XMLID_27_)" d="M420.2,14.9c-0.5-1.3-1.2-2.4-2-3.3c-0.9-0.9-1.9-1.6-3.1-2.1c-2.4-1-5.5-1-7.9,0
			c-1.2,0.5-2.3,1.2-3.1,2.1c-0.9,0.9-1.6,2-2,3.3c-0.5,1.3-0.7,2.7-0.7,4.3s0.2,3,0.7,4.3c0.5,1.3,1.2,2.4,2,3.3
			c0.9,0.9,1.9,1.6,3.1,2.2c1.2,0.5,2.5,0.8,4,0.8c1.5,0,2.8-0.3,4-0.8c1.2-0.5,2.2-1.2,3.1-2.2c0.9-0.9,1.5-2.1,2-3.3
			c0.4-1.3,0.7-2.7,0.7-4.3S420.7,16.2,420.2,14.9z M413.6,22.8c-0.6,0.8-1.4,1.2-2.4,1.2c-1.1,0-1.9-0.4-2.4-1.2
			c-0.6-0.9-0.9-2.1-0.9-3.7c0-1.5,0.3-2.8,0.9-3.6c0.6-0.8,1.4-1.2,2.4-1.2s1.9,0.4,2.4,1.2c0.6,0.9,0.9,2.1,0.9,3.6
			C414.5,20.7,414.2,21.9,413.6,22.8z"/>
	</g>
	<g id="XMLID_144_">
		<linearGradient id="XMLID_28_" gradientUnits="userSpaceOnUse" x1="-11.0424" y1="-19.6722" x2="449.4576" y2="20.8278">
			<stop  offset="0" style="stop-color:#FF0042"/>
			<stop  offset="0.1069" style="stop-color:#F2004E"/>
			<stop  offset="0.3031" style="stop-color:#D1006D"/>
			<stop  offset="0.5666" style="stop-color:#9B00A0"/>
			<stop  offset="0.884" style="stop-color:#5100E5"/>
			<stop  offset="0.9944" style="stop-color:#3600FF"/>
			<stop  offset="1" style="stop-color:#3600FF"/>
		</linearGradient>
		<path id="XMLID_145_" fill="url(#XMLID_28_)" d="M438.5,23.5c0,2-0.8,3.6-2.3,4.7c-1.5,1-3.6,1.5-6.2,1.5c-1.7,0-3.2-0.1-4.3-0.4
			c-1.2-0.3-1.9-0.5-2.4-0.8l-0.4-0.2l1.1-5.3l0.5,0.2c0.9,0.3,1.8,0.6,2.7,0.8c0.9,0.2,1.8,0.3,2.7,0.3c1.1,0,1.6-0.1,1.9-0.2
			c0.2-0.1,0.3-0.2,0.3-0.7c0-0.1,0-0.4-0.5-0.7c-0.5-0.3-1.3-0.7-2.3-1.1c-0.8-0.3-1.6-0.6-2.3-1c-0.7-0.3-1.4-0.8-1.9-1.3
			c-0.5-0.5-1-1.1-1.2-1.9c-0.3-0.7-0.4-1.6-0.4-2.5c0-1.9,0.7-3.5,2.2-4.6c1.4-1.1,3.3-1.7,5.8-1.7c1.2,0,2.3,0.1,3.4,0.3
			c1.1,0.2,2,0.4,2.6,0.7l0.4,0.2l-1.2,5.1l-0.5-0.2c-0.6-0.2-1.3-0.4-2-0.6c-0.7-0.1-1.5-0.2-2.4-0.2c-2,0-2,0.7-2,0.9
			c0,0.1,0,0.3,0.1,0.4c0,0,0.1,0.1,0.3,0.3c0.2,0.1,0.5,0.3,0.8,0.5c0.4,0.2,0.8,0.4,1.4,0.6c1.2,0.4,2.2,0.9,3,1.3
			c0.8,0.4,1.5,0.9,1.9,1.5c0.5,0.6,0.8,1.2,1,1.8C438.4,21.9,438.5,22.6,438.5,23.5z"/>
	</g>
</g>
</svg>
