<?xml version="1.0" encoding="utf-8"?>
<!-- Generator: Adobe Illustrator 19.0.0, SVG Export Plug-In . SVG Version: 6.00 Build 0)  -->
<svg version="1.2" baseProfile="tiny" id="Layer_1" xmlns="http://www.w3.org/2000/svg" xmlns:xlink="http://www.w3.org/1999/xlink"
	 x="0px" y="0px" viewBox="0 0 1080 340" xml:space="preserve">
<g id="XMLID_8_">
	<path id="XMLID_49_" fill="none" stroke="#3D4451" stroke-width="6.5139" stroke-linecap="round" stroke-miterlimit="10" d="
		M9,153.5c16.8-5.2,30.8-15.3,49.4-25c48-24.9,102.5-53,155.4-20.4c8.5,5.3,14.6,11.3,18.4,18.4c3.6,6.6,5.1,14.1,4.6,22.4
		c-1.1,18.2-10.2,34.3-17.8,50.3c-4.4,9.2-7.7,19.7-5.1,29.6c3,11.4,13.6,19.7,24.9,23.2c24.5,7.6,53.2,4.4,76.6-4.1"/>
	<path id="XMLID_48_" fill="none" stroke="#3D4451" stroke-width="6.5139" stroke-linecap="round" stroke-miterlimit="10" d="
		M320.3,260.1c-24.8,11.1-53,14.4-79.6,9.3c-22.2-4.2-42.7-20.9-42.8-45.2c0-12.2,4.2-24,9.2-35.2c6.4-14.4,17.5-31.3,13.2-47.7
		c-2.6-9.8-10.6-17.4-19.6-22c-46-23.1-95.3,3.1-136.3,24.3c-18.6,9.6-36.2,18.7-53.4,24.4"/>
	<path id="XMLID_47_" fill="none" stroke="#3D4451" stroke-width="6.4386" stroke-miterlimit="10" d="M799.7,91.6
		c19.3-4.9,37.6-14.2,56.3-21.3c20.6-7.7,41.2-15.8,62.8-20.4c20.7-4.3,44-4.5,64.8,0.4c19.7,4.6,38.7,15.6,48.7,33
		c14.1,24.5,4.6,49.5-10.1,70.6c-7.1,10.2-13.3,19-12,30.2c1.2,10.2,9.4,17.9,18.5,22.2c11.9,5.6,23.1,9.5,36.1,11.6"/>
	<path id="XMLID_46_" fill="none" stroke="#3D4451" stroke-width="6.5139" stroke-miterlimit="10" d="M1063.1,233.7
		c-28.4-5.3-65.8-12.6-69.6-48.1c-1.9-17.7,7.1-30.8,15.1-42.4c4.1-6,8-11.6,10.5-17.7c5.3-13,5.5-26.1,0.5-35.8
		c-4.8-9.4-13.9-15.3-20.6-18.5c-39.6-19.2-83.5-7.1-122.2,8.1c-24.2,9.5-48.1,19.5-72.2,29.3"/>
	<g id="XMLID_36_">
		<path id="XMLID_45_" fill="#00C79B" d="M352.5,248.5l4.4,12.6c2.2,6.4,9,9.8,15.1,7.7l27.4-9.5l-5.2-14.2
			C394.2,245.1,365.5,262.7,352.5,248.5z"/>
		<path id="XMLID_44_" fill="#00C79B" d="M394.8,245.1l2.4,7.2c4.1,12.4,17,18.9,28.7,14.6l58.8-21.5l-9.5-28.7L394.8,245.1z"/>
		<path id="XMLID_43_" fill="#00C79B" d="M323.7,239.4l20.2-7l7.5,21.5l-20.2,7c-4.4,1.5-9.3-0.8-10.8-5.2l-1.9-5.4
			C316.9,245.8,319.2,241,323.7,239.4z"/>
		<path id="XMLID_42_" fill="none" stroke="#3D4451" stroke-width="7.3327" stroke-miterlimit="10" d="M470.5,249.9L421,267.1
			c-9.9,3.4-20.7-1.8-24.2-11.7L378,201.2c-3.4-9.9,1.8-20.7,11.7-24.2l49.5-17.2L470.5,249.9z"/>
		<path id="XMLID_41_" fill="none" stroke="#3D4451" stroke-width="7.3327" stroke-miterlimit="10" d="M399.4,262l-27.4,9.5
			c-6.1,2.1-12.8-1.3-15.1-7.7l-15.4-44.3c-2.2-6.4,0.9-13.3,7-15.4l27.4-9.5"/>
		<path id="XMLID_40_" fill="none" stroke="#3D4451" stroke-width="6.225" stroke-miterlimit="10" d="M446,150.3l-1.9,0.7
			c-4,1.4-6.1,5.7-4.7,9.7l30.8,88.5c1.4,4,5.7,6.1,9.7,4.7l1.9-0.7c4-1.4,6.1-5.7,4.7-9.7L455.7,155C454.3,151,450,148.9,446,150.3
			z"/>
		<path id="XMLID_39_" fill="#3D4451" d="M366.9,215.8L366.9,215.8c1-0.3,2.1,0.2,2.4,1.2l10.8,31c0.3,1-0.2,2.1-1.2,2.4l0,0
			c-1,0.3-2.1-0.2-2.4-1.2l-10.8-31C365.4,217.3,365.9,216.2,366.9,215.8z"/>
		<path id="XMLID_38_" fill="#3D4451" d="M357.8,219L357.8,219c1-0.3,2.1,0.2,2.4,1.2l10.8,31c0.3,1-0.2,2.1-1.2,2.4l0,0
			c-1,0.3-2.1-0.2-2.4-1.2l-10.8-31C356.3,220.4,356.8,219.3,357.8,219z"/>
		<path id="XMLID_37_" fill="none" stroke="#3D4451" stroke-width="5.4995" stroke-miterlimit="10" d="M321.5,237.4l23.1-8l8.6,24.6
			l-23.1,8c-5.1,1.8-10.6-0.9-12.4-6l-2.1-6.2C313.8,244.7,316.5,239.2,321.5,237.4z"/>
	</g>
	<g id="XMLID_18_">
		<path id="XMLID_35_" fill="#FED32F" d="M798.3,111.3l-24.5,8.3l-6.2-18.4l24.5-8.3c5.1-1.7,10.6,1,12.3,6.1v0
			C806.1,104.1,803.4,109.6,798.3,111.3z"/>
		<path id="XMLID_34_" fill="#FED32F" d="M774.8,129.9l-37.4,13.4l3.4,25.4l28.7-11.1c7.2-2.8,11.8-13.3,10.5-23.6l0,0
			C779.5,130.9,777.2,129.1,774.8,129.9z"/>
		<path id="XMLID_33_" fill="#FED32F" d="M719.2,155.3l5.9,17.4c1.5,4.4,6.3,6.7,10.8,5.2l0.1,0c4.5-1.5,6.9-6.3,5.5-10.6l-5.8-17.3
			"/>
		<line id="XMLID_32_" fill="#C7DDEB" x1="696.6" y1="88.1" x2="719" y2="154.6"/>
		<path id="XMLID_31_" fill="#FED32F" d="M732.2,173.4L654,200.2c-4.4,1.5-8.8,0-9.9-3.3l-3.6-10.8c-1.1-3.3,1.5-7.2,5.9-8.7
			l73.1-24.6"/>
		
			<rect id="XMLID_30_" x="636.9" y="148.1" transform="matrix(-0.9477 0.3193 -0.3193 -0.9477 1330.266 85.8709)" fill="#FDC345" width="42.5" height="7.7"/>
		<path id="XMLID_29_" fill="none" stroke="#3D4451" stroke-width="8.0664" stroke-miterlimit="10" d="M716.1,84.5l27.6-9.3
			c6.9-2.3,14.4,1.4,16.7,8.3l18.1,53.8c2.3,6.9-1.4,14.4-8.3,16.7l-27.6,9.3"/>
		<path id="XMLID_28_" fill="none" stroke="#3D4451" stroke-width="6.7803" stroke-miterlimit="10" d="M798.1,114.4l-24.3,8.2
			l-8.2-24.5l24.3-8.2c6.8-2.3,14.1,1.4,16.4,8.1v0C808.5,104.8,804.9,112.2,798.1,114.4z"/>
		<polyline id="XMLID_27_" fill="none" stroke="#3D4451" stroke-width="7.4422" stroke-miterlimit="10" points="726.8,174.6 
			650.7,200.2 620.5,110.5 696.6,84.9 		"/>
		
			<rect id="XMLID_26_" x="635.7" y="140.7" transform="matrix(-0.9477 0.3193 -0.3193 -0.9477 1326.7661 79.269)" fill="none" stroke="#3D4451" stroke-width="5.2702" stroke-miterlimit="10" width="42.5" height="15.3"/>
		<path id="XMLID_25_" fill="none" stroke="#3D4451" stroke-width="5.6248" stroke-miterlimit="10" d="M590.5,147.4l36.7-12.4
			l-3.9-11.5L586.7,136c-2.4,0.8-3.6,3.4-2.8,5.7l1,2.9C585.6,146.9,588.2,148.2,590.5,147.4z"/>
		<path id="XMLID_24_" fill="none" stroke="#3D4451" stroke-width="5.6248" stroke-miterlimit="10" d="M608.1,199.5l36.7-12.4
			l-3.9-11.5L604.2,188c-2.4,0.8-3.6,3.4-2.8,5.7l1,2.9C603.1,199,605.7,200.3,608.1,199.5z"/>
		
			<line id="XMLID_23_" fill="none" stroke="#3D4451" stroke-width="3.7211" stroke-linecap="round" stroke-miterlimit="10" x1="638.5" y1="116.3" x2="672.9" y2="104.7"/>
		<path id="XMLID_22_" fill="none" stroke="#3D4451" stroke-width="6.1522" stroke-miterlimit="10" d="M735.9,177.9l0.1,0
			c4.5-1.5,6.9-6.4,5.4-10.9L713,82.6c-1.5-4.5-6.4-6.9-10.9-5.4l-0.1,0c-4.5,1.5-6.9,6.4-5.4,10.9l28.4,84.4
			C726.5,177,731.4,179.4,735.9,177.9z"/>
		
			<line id="XMLID_21_" fill="none" stroke="#3D4451" stroke-width="3.7211" stroke-linecap="round" stroke-miterlimit="10" x1="679.8" y1="102.5" x2="685.1" y2="100.8"/>
		<path id="XMLID_20_" fill="#3D4451" d="M743.2,97.1L743.2,97.1c1-0.3,2.1,0.2,2.4,1.2l10.6,31.1c0.3,1-0.2,2.1-1.2,2.4l0,0
			c-1,0.3-2.1-0.2-2.4-1.2L742,99.6C741.7,98.6,742.2,97.5,743.2,97.1z"/>
		<path id="XMLID_19_" fill="#3D4451" d="M734.1,100.2L734.1,100.2c1-0.3,2.1,0.2,2.4,1.2l10.6,31.1c0.3,1-0.2,2.1-1.2,2.4l0,0
			c-1,0.3-2.1-0.2-2.4-1.2l-10.6-31.1C732.6,101.7,733.1,100.6,734.1,100.2z"/>
	</g>
	
		<line id="XMLID_17_" fill="none" stroke="#3D4451" stroke-width="6.5139" stroke-linecap="round" stroke-miterlimit="10" x1="533.1" y1="10.3" x2="529.3" y2="70"/>
	
		<line id="XMLID_16_" fill="none" stroke="#3D4451" stroke-width="6.5139" stroke-linecap="round" stroke-miterlimit="10" x1="587.3" y1="269.9" x2="610.2" y2="321.7"/>
	
		<line id="XMLID_15_" fill="none" stroke="#3D4451" stroke-width="6.5139" stroke-linecap="round" stroke-miterlimit="10" x1="450.8" y1="40.3" x2="484.7" y2="82.5"/>
	
		<line id="XMLID_14_" fill="none" stroke="#3D4451" stroke-width="6.5139" stroke-linecap="round" stroke-miterlimit="10" x1="625" y1="237.5" x2="668.3" y2="260"/>
	
		<line id="XMLID_13_" fill="none" stroke="#3D4451" stroke-width="6.5139" stroke-linecap="round" stroke-miterlimit="10" x1="537.5" y1="332" x2="539.7" y2="280.9"/>
	
		<line id="XMLID_12_" fill="none" stroke="#3D4451" stroke-width="6.5139" stroke-linecap="round" stroke-miterlimit="10" x1="468.9" y1="315.9" x2="494.9" y2="275.2"/>
	
		<line id="XMLID_11_" fill="none" stroke="#3D4451" stroke-width="6.5139" stroke-linecap="round" stroke-miterlimit="10" x1="585.6" y1="83.6" x2="617.6" y2="48.3"/>
	<path id="XMLID_10_" fill="none" stroke="#3D4451" stroke-width="4.3426" stroke-linecap="round" stroke-miterlimit="10" d="
		M432.1,174.2L394.9,187c0,0-5.9,3-4.7,8.3"/>
	
		<line id="XMLID_9_" fill="none" stroke="#3D4451" stroke-width="6.5139" stroke-linecap="round" stroke-miterlimit="10" x1="447.1" y1="116.9" x2="399.4" y2="99.3"/>
</g>
<circle id="XMLID_7_" fill="#A9F6DF" cx="645.1" cy="287.4" r="10.6"/>
<circle id="XMLID_6_" fill="#A9F6DF" cx="404.5" cy="46.1" r="14.5"/>
<circle id="XMLID_5_" fill="#00CA9D" cx="568.2" cy="318" r="4.4"/>
<circle id="XMLID_4_" fill="#02B58A" cx="495.8" cy="46.1" r="4.4"/>
<circle id="XMLID_3_" fill="#E4E4E4" cx="576.4" cy="43" r="6.5"/>
<circle id="XMLID_2_" fill="#E4E4E4" cx="500.2" cy="322.4" r="6.5"/>
</svg>
